<?xml version="1.0" encoding="utf-8"?>
<!-- Generator: Adobe Illustrator 22.1.0, SVG Export Plug-In . SVG Version: 6.00 Build 0)  -->
<svg version="1.1" id="Capa_1" xmlns="http://www.w3.org/2000/svg" xmlns:xlink="http://www.w3.org/1999/xlink" x="0px" y="0px"
	 viewBox="0 0 454.5 454.5" style="enable-background:new 0 0 454.5 454.5;" xml:space="preserve">
<style type="text/css">
	.st0{stroke:#FFFFFF;stroke-width:5;stroke-miterlimit:10;}
	.st1{fill:#862124;stroke:#FFFFFF;stroke-width:5;stroke-miterlimit:10;}
	.st2{fill:#404040;stroke:#FFFFFF;stroke-width:5;stroke-miterlimit:10;}
</style>
<g>
	<path class="st0" d="M311.4,137.2c0,0.2-0.1,0.4-0.1,0.6C311.3,137.6,311.4,137.4,311.4,137.2z"/>
	<path class="st0" d="M310.8,140.2c0,0.2-0.1,0.5-0.2,0.7C310.7,140.7,310.7,140.5,310.8,140.2z"/>
	<path class="st0" d="M311.1,138.7c0,0.2-0.1,0.5-0.1,0.7C311,139.1,311,138.9,311.1,138.7z"/>
	<path class="st0" d="M310.4,142c0,0.2-0.1,0.4-0.1,0.6C310.3,142.4,310.3,142.2,310.4,142z"/>
	<path class="st0" d="M310,143.9c0,0.1-0.1,0.3-0.1,0.4C309.9,144.2,309.9,144,310,143.9z"/>
	<path class="st1" d="M236.8,209.2l-74.9,2.8c-3,0.1-5.6,2.1-6.5,5L145,252.4c-0.6,2.1-0.2,4.4,1.1,6.2c1.3,1.8,3.4,2.8,5.6,2.8
		h73.9c3.1,0,5.8-2,6.7-5l11.3-38.3c0.6-2.2,0.2-4.5-1.2-6.3C241.2,210.1,239.1,209.1,236.8,209.2z M220.5,247.5h-46.4h-12.9
		l6.3-21.6l60.1-2.3L220.5,247.5z"/>
	<path class="st2" d="M448.5,294c-2-0.3-4-0.6-6-1l2.5-7.2c1.3-3.7-0.7-7.6-4.3-8.9c-3.6-1.3-7.6,0.7-8.9,4.3l-2.9,8.3
		c-25.5-8.5-47-26.2-64-53c-7.3-11.5-12.5-22.9-16-31.8c-13.5-42.1-21.3-78.2-21.4-78.9c0-0.2-0.1-0.4-0.2-0.6v-0.1
		c-0.1-0.2-0.1-0.4-0.2-0.6c0-0.1-0.1-0.1-0.1-0.2c-0.1-0.2-0.2-0.4-0.3-0.5c0,0,0-0.1-0.1-0.1c-0.1-0.2-0.3-0.4-0.4-0.6l-0.1-0.1
		c-0.1-0.2-0.3-0.3-0.4-0.5l-0.1-0.1c0,0,0,0-0.1-0.1c-0.2-0.2-0.4-0.3-0.6-0.5l-0.1-0.1c-0.2-0.1-0.3-0.2-0.5-0.3
		c-0.1,0-0.1-0.1-0.2-0.1c-0.2-0.1-0.3-0.2-0.5-0.3c-0.1,0-0.1-0.1-0.2-0.1c-0.2-0.1-0.5-0.2-0.7-0.3c-0.1,0-0.1,0-0.2-0.1
		c-0.2-0.1-0.4-0.1-0.6-0.1c-0.1,0-0.1,0-0.2,0c-0.2,0-0.5-0.1-0.7-0.1c0,0,0,0-0.1,0c-0.2,0-0.4,0-0.6,0h-0.1c-0.3,0-0.6,0-1,0.1
		c-66.5,12.6-185.8,22.2-186.9,22.3c-3.2,0.3-5.8,2.7-6.4,5.9c-2.6,16.5-6.3,32.1-10.7,46.9c-2.8,6.2-36.9,79.7-90,97l-2.8-8.9
		c-1.2-3.7-5.1-5.7-8.8-4.6c-3.7,1.2-5.7,5.1-4.6,8.8l2.4,7.7c-1.6,0.2-3.3,0.4-4.9,0.4c-3.9,0.2-6.8,3.5-6.6,7.4
		c0.2,3.7,3.3,6.6,7,6.6c0.1,0,0.2,0,0.4,0c2.8-0.1,5.6-0.4,8.5-0.9l6.5,20.7c0.9,3,3.7,4.9,6.7,4.9c0.7,0,1.4-0.1,2.1-0.3
		c3.7-1.2,5.7-5.1,4.6-8.8l-6.2-19.8c20.6-6.7,40.8-21.3,59.5-43.1c-18.6,37.4-36.3,60-36.7,60.4c-1.7,2.1-2,5-0.8,7.4s3.6,4,6.3,4
		h255.9c3,0,5.7-1.9,6.6-4.8l12.3-37.4l14.9,37.2c1.1,2.7,3.6,4.4,6.5,4.4h47c2.8,0,5.3-1.7,6.4-4.3c1.1-2.6,0.6-5.6-1.4-7.6
		c-11.8-12.3-22.7-30.8-32.3-51.6c14.7,15,31.7,25.9,50.5,32.2l-7.8,22.5c-1.3,3.7,0.7,7.6,4.3,8.9c0.8,0.3,1.5,0.4,2.3,0.4
		c2.9,0,5.6-1.8,6.6-4.7l8.1-23.4c2.9,0.6,5.8,1.1,8.7,1.6c0.3,0,0.7,0.1,1,0.1c3.4,0,6.4-2.5,6.9-6
		C455,298.1,452.3,294.5,448.5,294z M88.2,320.4H71.6c16.6-24.1,53.3-84.3,67.2-164.4c22.9-1.9,113.2-10,172.8-20.2
		c-0.1,0.4-0.2,0.9-0.3,1.4c0,0.2-0.1,0.4-0.1,0.6c-0.1,0.3-0.1,0.6-0.2,0.9c0,0.2-0.1,0.5-0.1,0.7c-0.1,0.3-0.1,0.6-0.2,0.8
		c0,0.2-0.1,0.5-0.2,0.7c-0.1,0.3-0.1,0.7-0.2,1c0,0.2-0.1,0.4-0.1,0.6c-0.1,0.4-0.2,0.9-0.3,1.3c0,0.1-0.1,0.3-0.1,0.4
		c-0.2,1.1-0.5,2.3-0.8,3.6c-3.8,17.3-10.1,43.4-19,72.7c-15.4,46.8-32.9,87.2-38.5,99.9H88.2L88.2,320.4z M358.8,319.8l-20.2-50.6
		c-1.1-2.7-3.8-4.5-6.7-4.4c-2.9,0.1-5.5,2-6.4,4.8l-16.7,50.8H282h-14.6c14.1-29.8,25.7-61.9,34.7-91c7.3-22,14.3-45.6,19.4-68.7
		c1.1,4.3,3.7,14.3,6.6,24.3c2.5,8.9,5.2,17.9,7.1,22.9c12.4,38.8,29.8,83.2,51,111.8L358.8,319.8L358.8,319.8z"/>
</g>
</svg>
