<?xml version="1.0" encoding="utf-8"?>
<!-- Generator: Adobe Illustrator 22.1.0, SVG Export Plug-In . SVG Version: 6.00 Build 0)  -->
<svg version="1.1" id="Layer_1" xmlns="http://www.w3.org/2000/svg" xmlns:xlink="http://www.w3.org/1999/xlink" x="0px" y="0px"
	 viewBox="0 0 512 512" style="enable-background:new 0 0 512 512;" xml:space="preserve">
<style type="text/css">
	.st0{fill:#862124;}
	.st1{fill:#404040;}
</style>
<path class="st0" d="M206,166c0,5.5-4.5,10-10,10s-10-4.5-10-10s4.5-10,10-10S206,160.5,206,166z"/>
<path class="st0" d="M206,346c0,5.5-4.5,10-10,10s-10-4.5-10-10s4.5-10,10-10S206,340.5,206,346z"/>
<path class="st0" d="M146,166c0,5.5-4.5,10-10,10s-10-4.5-10-10s4.5-10,10-10S146,160.5,146,166z"/>
<path class="st0" d="M146,346c0,5.5-4.5,10-10,10s-10-4.5-10-10s4.5-10,10-10S146,340.5,146,346z"/>
<path class="st0" d="M66,346c0,55.1,44.9,100,100,100s100-44.9,100-100c0-39.5-23.1-73.8-56.4-90c33.4-16.2,56.4-50.5,56.4-90
	c0-55.1-44.9-100-100-100S66,110.9,66,166c0,39.5,23.1,73.8,56.4,90C89.1,272.2,66,306.5,66,346z M86,166c0-44.1,35.9-80,80-80
	s80,35.9,80,80s-35.9,80-80,80S86,210.1,86,166z M166,266c44.1,0,80,35.9,80,80s-35.9,80-80,80s-80-35.9-80-80S121.9,266,166,266z"
	/>
<path class="st1" d="M482,216v-50c0-5.5-4.5-10-10-10s-10,4.5-10,10v50h-40v-50c0-5.5-4.5-10-10-10s-10,4.5-10,10v50
	c-16.5,0-30,13.5-30,30v40c0,22,17.8,40,40,40h20v116c0,27.6-22.4,50-50,50h-51.7c1.1-3.1,1.7-6.5,1.7-10V30c0-16.5-13.5-30-30-30
	H30C13.5,0,0,13.5,0,30v452c0,16.5,13.5,30,30,30h91c5.5,0,10-4.5,10-10s-4.5-10-10-10H30c-5.5,0-10-4.5-10-10V30
	c0-5.5,4.5-10,10-10h272c5.5,0,10,4.5,10,10v452c0,5.5-4.5,10-10,10h-91c-5.5,0-10,4.5-10,10s4.5,10,10,10h171c38.6,0,70-31.4,70-70
	V326h20c22.1,0,40-17.9,40-40v-40C512,229.5,498.5,216,482,216z M492,286c0,11-9,20-20,20h-60c-11,0-20-8.9-20-20v-40
	c0-5.5,4.5-10,10-10h80c5.5,0,10,4.5,10,10V286z"/>
<path class="st1" d="M176,502c0,5.5-4.5,10-10,10s-10-4.5-10-10s4.5-10,10-10S176,496.5,176,502z"/>
</svg>
