<?xml version="1.0" encoding="utf-8"?>
<!-- Generator: Adobe Illustrator 22.1.0, SVG Export Plug-In . SVG Version: 6.00 Build 0)  -->
<svg version="1.1" id="Capa_1" xmlns="http://www.w3.org/2000/svg" xmlns:xlink="http://www.w3.org/1999/xlink" x="0px" y="0px"
	 viewBox="0 0 512 512" style="enable-background:new 0 0 512 512;" xml:space="preserve">
<style type="text/css">
	.st0{fill:#404040;}
	.st1{fill:#862124;}
</style>
<g>
	<g>
		<path class="st0" d="M252.4,293.9c-5-2.4-10.9-0.3-13.3,4.7l-1.7,3.5c-2.4,5-0.3,11,4.7,13.3c1.4,0.7,2.9,1,4.3,1
			c3.7,0,7.3-2.1,9-5.7l1.7-3.5C259.5,302.2,257.4,296.3,252.4,293.9z"/>
	</g>
</g>
<g>
	<g>
		<path class="st0" d="M140.4,236c-3.9-3.9-10.2-3.9-14.1,0c-8.3,8.3-21.8,8.3-30.1,0c-3.9-3.9-10.2-3.9-14.1,0s-3.9,10.2,0,14.1
			c8,8,18.6,12.1,29.2,12.1s21.1-4,29.2-12.1C144.3,246.2,144.3,239.9,140.4,236z"/>
	</g>
</g>
<g>
	<g>
		<path class="st0" d="M477.4,26.6c-35.2-35.2-92.5-35.3-127.8-0.3c-11-5.5-22.8-10.2-35.1-14.1C273.9-0.5,240.8,0,237.9,0
			c-54.2,0-101.5,22.8-123.5,59.4c-2.9,4.8-5.3,9.8-7.2,15c-10.3,9.8-57,58-57,126.4c0,45.5-21.9,69.3-34.9,79.4
			c-4.9,3.8-7.5,9.7-7.1,15.9c0.5,6.2,3.9,11.7,9.3,14.7c4.9,2.8,10.4,5.4,15.8,8c4.7,2.3,11.4,5.5,14.7,7.6v17.8
			c0,2.4-0.5,4.8-1.4,7.1l-2.5,6.1c-3.4,8.4-2.1,17.9,3.2,25.1v2.2c0,6.5,2.9,12.5,7.6,16.6v11.7c0,25.2,20.5,45.6,45.6,45.6h29.5
			c5.5,0,10-4.5,10-10s-4.5-10-10-10h-29.5c-14.1,0-25.6-11.5-25.6-25.6v-17.2c0-4-2.4-7.6-6.1-9.2l-0.4-0.2
			c-0.7-0.3-1.1-0.9-1.1-1.7V379c0-2.2-0.8-4.4-2.1-6.2l-1.8-2.2c-1.3-1.6-1.6-3.8-0.8-5.7l2.5-6.1c1.9-4.7,2.9-9.6,2.9-14.6v-21.3
			c0-9.6-9.8-14.3-26.1-22.1c-4.3-2-8.7-4.2-12.5-6.2c16.1-13.1,40.8-41.7,40.8-93.7c0-37.6,16.7-68.9,31.2-89
			c0.8,17.4,6.1,35.6,15.8,53.9c25.7,48,70.3,68.1,106.2,84.3c34.2,15.4,53.5,25.1,53.6,45.2c0.1,14.8-3.3,25.6-10.1,32.3
			c-7.9,7.7-18.3,7.5-18.4,7.5c-3.4-0.2-6.5,1.2-8.5,3.9c-2,2.7-2.5,6.2-1.4,9.4c0.3,0.8,7.4,20.9,23.6,40.5
			c20.3,24.5,45.8,37.4,74.4,37.6l26.9,78.8c1.4,4.2,5.3,6.8,9.5,6.8c1.1,0,2.2-0.2,3.2-0.5c5.2-1.8,8-7.5,6.2-12.7L356,421.1
			c49.9-26.7,84.9-68.2,101.7-120.4c13.3-41.6,14-88.3,2.7-132.6c6.2-3.8,11.9-8.2,17.1-13.4C512.7,119.4,512.7,61.9,477.4,26.6z
			 M438.6,294.6c-15.7,49-49.4,87.6-97.5,111.7c-24.3,1.1-45.5-9-63.1-29.9c-7.1-8.4-12.2-17.1-15.5-23.7c5.7-1.8,12.3-5,18.2-10.6
			c11.1-10.6,16.6-26.4,16.5-47.1c-0.3-33.9-31.9-48.2-65.4-63.3c-34.9-15.7-74.4-33.5-96.8-75.5c-13.9-26.1-17.2-50.9-9.8-72.6
			c0-0.1,0.1-0.2,0.1-0.3c1.6-4.7,3.8-9.3,6.4-13.7C149.9,39,190.7,20,238,20c0.1,0,0.2,0,0.3,0c0.3,0,31.8-0.8,70.2,11.3
			c51,16,88.6,45.8,111.8,88.6C449.4,173.9,456.3,239.2,438.6,294.6z M454.4,148.1c-4.5-13-10-25.7-16.5-37.8
			C421.4,79.9,397.7,55,368,36.5c27.7-23.2,69.2-21.8,95.3,4.2c27.5,27.5,27.5,72.3,0,99.9C460.5,143.4,457.5,145.9,454.4,148.1z"/>
	</g>
</g>
<g>
	<g>
		<path class="st1" d="M264.6,468.3l-31.3-54.3l-1.1-37c-0.9-31-24.9-56.3-55.8-58.8c-22.7-1.9-44.6,10.8-54.4,31.4l-0.5,1
			c-12.9,27.3-3.6,60.4,21.7,76.9l31.2,20.3l34.1,59c1.9,3.2,5.2,5,8.7,5c1.7,0,3.4-0.4,5-1.3c4.8-2.8,6.4-8.9,3.7-13.7l-30.3-52.4
			l12.1-7l12.1-7l27.6,47.8c2.8,4.8,8.9,6.4,13.7,3.7C265.7,479.2,267.3,473.1,264.6,468.3z M182.2,429.1l-28-18.3
			c-17-11.1-23.3-33.3-14.6-51.6l0.5-1c5.8-12.3,18.4-20.1,31.8-20.1c0.9,0,1.9,0,2.8,0.1c20.8,1.7,36.9,18.7,37.4,39.5l1,33.6
			L182.2,429.1z"/>
	</g>
</g>
<g>
	<g>
		<path class="st1" d="M279.6,494.9c-1.9-1.9-4.4-2.9-7.1-2.9c-2.6,0-5.2,1.1-7.1,2.9s-2.9,4.4-2.9,7.1s1.1,5.2,2.9,7.1
			c1.9,1.9,4.4,2.9,7.1,2.9c2.6,0,5.2-1.1,7.1-2.9c1.9-1.9,2.9-4.4,2.9-7.1S281.4,496.8,279.6,494.9z"/>
	</g>
</g>
<g>
	<g>
		<path class="st0" d="M197.6,58.6c-2.2-5.1-8-7.4-13.1-5.3c-17.6,7.5-30.3,20.2-35.8,35.8c-5.5,15.6-3.4,33,5.9,50.5
			c1.8,3.4,5.3,5.3,8.8,5.3c1.6,0,3.2-0.4,4.7-1.2c4.9-2.6,6.7-8.7,4.1-13.5c-6.7-12.6-8.3-24.2-4.7-34.5
			c3.6-10.2,12.4-18.7,24.8-24C197.4,69.6,199.8,63.7,197.6,58.6z"/>
	</g>
</g>
<g>
	<g>
		<path class="st0" d="M222,46l-0.6,0c-5.5,0-10,4.5-9.9,10.1c0,5.5,4.5,9.9,10,9.9c0,0,0,0,0.1,0l0.4,0c5.5,0,10-4.5,10-10
			S227.5,46,222,46z"/>
	</g>
</g>
</svg>
