<svg xmlns="http://www.w3.org/2000/svg" width="638" height="528.842" viewBox="0 0 638 528.842"><defs><style>.a{fill:#f5f5f5;}.b{fill:#3f3d56;}.c{opacity:0.1;}.d,.k{fill:#862124;}.e{fill:#a8a8a8;}.f{opacity:0.2;}.g{fill:#ffb9b9;}.h{fill:#575a89;}.i{fill:#2f2e41;}.j{fill:#f3e9e9;}.k{opacity:0.3;}</style></defs><g transform="translate(0 0)"><circle class="a" cx="252.895" cy="252.895" r="252.895" transform="translate(132.21 0)"/><path class="b" d="M747.838,788.844c0,10.485-138.42,32.544-309.169,32.544S129.5,799.329,129.5,788.844s138.42-5.424,309.169-5.424S747.838,778.36,747.838,788.844Z" transform="translate(-129.5 -292.547)"/><path class="c" d="M747.838,788.844c0,10.485-138.42,32.544-309.169,32.544S129.5,799.329,129.5,788.844s138.42-5.424,309.169-5.424S747.838,778.36,747.838,788.844Z" transform="translate(-129.5 -292.547)"/><ellipse class="b" cx="309.169" cy="18.984" rx="309.169" ry="18.984" transform="translate(0 477.314)"/><path class="b" d="M851.689,659.413c0,42.852,26.883,77.528,60.106,77.528" transform="translate(-362.043 -253.01)"/><path class="d" d="M940.34,736.527c0-43.334,30-78.4,67.075-78.4" transform="translate(-390.589 -252.596)"/><path class="d" d="M883.809,665.142c0,40.705,17.143,73.644,38.329,73.644" transform="translate(-372.386 -254.854)"/><path class="b" d="M940.34,726.185c0-55.371,34.676-100.177,77.528-100.177" transform="translate(-390.589 -242.253)"/><path class="e" d="M921.69,772.379s8.524-.263,11.093-2.092,13.112-4.014,13.749-1.08,12.81,14.591,3.187,14.669-22.361-1.5-24.925-3.061S921.69,772.379,921.69,772.379Z" transform="translate(-384.584 -287.901)"/><path class="f" d="M949.891,785.038c-9.624.078-22.361-1.5-24.925-3.061-1.953-1.189-2.731-5.457-2.991-7.426l-.285.011s.54,6.875,3.1,8.437,15.3,3.138,24.925,3.061c2.778-.022,3.738-1.011,3.685-2.474C953.018,784.469,951.959,785.021,949.891,785.038Z" transform="translate(-384.584 -290.084)"/><path class="g" d="M702.135,289.03s8.673,18.214,5.2,26.887,13.01,18.214,13.01,18.214l21.683-12.142V306.377l-3.469-6.939s-13.877-7.806-12.143-19.948S702.135,289.03,702.135,289.03Z" transform="translate(-313.887 -129.486)"/><path class="c" d="M702.135,289.03s8.673,18.214,5.2,26.887,13.01,18.214,13.01,18.214l21.683-12.142V306.377l-3.469-6.939s-13.877-7.806-12.143-19.948S702.135,289.03,702.135,289.03Z" transform="translate(-313.887 -129.486)"/><path class="g" d="M665.542,407.888s-1.735,19.081-1.735,21.683-2.6,11.275-2.6,11.275-9.541,44.233-15.612,48.57-9.541,31.224,0,29.489,12.142-25.152,12.142-25.152l19.747-37.288,2.8-45.108Z" transform="translate(-293.773 -172.019)"/><path class="h" d="M683.3,351.6h-6.939s-6.939,41.631,0,43.366,19.948,1.735,19.948,1.735Z" transform="translate(-304.596 -153.895)"/><path class="g" d="M616.129,685.237l3.469,16.479,6.939-5.2-3.469-14.745-6.939,2.6Z" transform="translate(-198.392 -219.528)"/><path class="i" d="M696.842,487.2l-5.2,3.469s-2.6,30.356,3.469,53.774,10.408,51.172,10.408,51.172,10.408,69.386,13.01,71.12,19.081,2.6,19.948-.867S732.4,597.35,732.4,597.35s-5.2-54.641-.867-61.58c0,0,13.877,59.845,18.214,65.916,0,0,6.071,65.916,9.541,67.651s19.948,2.6,20.816-.867-5.2-78.059-7.806-84.13-3.469-96.273-9.54-95.405S696.842,487.2,696.842,487.2Z" transform="translate(-310.329 -197.558)"/><circle class="g" cx="19.948" cy="19.948" r="19.948" transform="translate(376.973 127.454)"/><path class="h" d="M710.737,331.114l-4.337-7.806s-5.2-6.939-7.806-5.2-2.6,7.806-2.6,7.806-19.948,6.939-18.214,16.479,13.01,26.02,13.01,26.02,1.735,13.877,0,17.346-5.2,6.071-2.6,9.541,3.469,4.337,2.6,8.673-2.6,6.071-.867,7.806-.867,19.948-2.6,20.816,55.509,9.541,59.845,6.939,16.479-2.6,15.612-5.2-4.337-18.214-4.337-20.816,0-13.877-.867-14.744.867-13.877.867-13.877L754.1,348.46l13.877-21.683s-3.469-12.143-19.948-13.877-21.038-6.071-21.038-6.071-1.513,7.806-4.982,9.541S710.737,331.114,710.737,331.114Z" transform="translate(-306.01 -139.478)"/><path class="g" d="M808.932,377.187l5.2,39.029-11.275,56.376s-4.337,32.091-13.01,31.224,0-34.693,0-34.693l6.939-52.907s-11.275-26.887-8.673-30.356S808.932,377.187,808.932,377.187Z" transform="translate(-340.89 -162.133)"/><path class="i" d="M742.693,757.165s-11.275-6.071-13.877-5.2-5.2,13.01-5.2,13.01-19.948,14.745-6.939,18.214,18.214-4.337,18.214-4.337,13.01-6.938,13.01-8.673-1.735-13.01-1.735-13.01Z" transform="translate(-317.15 -282.783)"/><path class="i" d="M794.129,753.281s-5.2,28.622-1.735,30.356,18.214,4.337,19.948,0,1.735-14.744.867-18.214-3.469-12.143-3.469-12.143Z" transform="translate(-342.567 -283.235)"/><path class="i" d="M699.879,230.776a4.628,4.628,0,0,0-2.39-.072,7.15,7.15,0,0,0-2.408,1.966c-1.989,1.888-4.831,2.479-7.424,3.374s-5.32,2.478-5.969,5.143a27.993,27.993,0,0,0-.283,3.236c-.386,3.144-2.784,5.975-2.355,9.113.28,2.05,1.742,3.79,2.042,5.837.335,2.283-.819,4.659-.176,6.874.63,2.171,2.763,3.494,4.728,4.613q1.264-8.023,3.036-15.956a5.766,5.766,0,0,1,1.081-2.636c1.744-1.976,5.164-.85,7.428-2.2.86-.513,1.5-1.359,2.4-1.79,2.614-1.25,5.443,1.519,8.34,1.545,1.279.011,2.681-.5,3.762.188a3.437,3.437,0,0,1,1.1,1.353c1.033,1.938,1.6,4.116,2.8,5.952s3.361,3.334,5.5,2.82c-.326-1.656.97-3.146,1.49-4.751.893-2.763-.567-5.762-.215-8.643.33-2.706,2.093-5.882.159-7.8a5.482,5.482,0,0,0-2.288-1.149C713.392,235.615,707.069,231.975,699.879,230.776Z" transform="translate(-306.437 -114.927)"/><path class="h" d="M793.958,331.134l8.673,3.469s11.275,36.427,8.673,36.427-26.02,6.071-26.02,3.469S787.02,331.134,793.958,331.134Z" transform="translate(-340.661 -147.305)"/><path class="j" d="M338.489,162H70v88.14H80.17v23.052l23.052-23.052H338.489Z" transform="translate(-22.54 -52.164)"/><path class="j" d="M338.489,512H70v88.14H80.17v23.052l23.052-23.052H338.489Z" transform="translate(-22.54 -164.863)"/><path class="j" d="M140,338H408.489v88.14h-10.17v23.052L375.267,426.14H140Z" transform="translate(-45.08 -108.835)"/><rect class="k" width="206.113" height="8.136" transform="translate(78.648 124.414)"/><rect class="k" width="103.056" height="8.136" transform="translate(78.648 140.008)"/><circle class="k" cx="11.526" cy="11.526" r="11.526" transform="translate(78.648 160.348)"/><rect class="d" width="206.113" height="8.136" transform="translate(119.328 242.386)"/><rect class="d" width="103.056" height="8.136" transform="translate(119.328 257.98)"/><circle class="d" cx="11.526" cy="11.526" r="11.526" transform="translate(119.328 278.32)"/><rect class="k" width="206.113" height="8.136" transform="translate(78.648 361.714)"/><rect class="k" width="103.056" height="8.136" transform="translate(78.648 377.308)"/><circle class="k" cx="11.526" cy="11.526" r="11.526" transform="translate(78.648 397.648)"/></g></svg>