<svg xmlns="http://www.w3.org/2000/svg" xmlns:xlink="http://www.w3.org/1999/xlink" width="565" height="393.493" viewBox="0 0 565 393.493"><defs><style>.a,.b{fill:#862124;}.b,.e,.g{opacity:0.1;}.c{fill:url(#a);}.d{fill:#444176;}.f{fill:#565387;}.h{fill:#ced2df;}.i{fill:#88455e;}.j{fill:#ec8c9c;}.k{fill:#ebf1f6;}.l{fill:url(#b);}.m{fill:url(#c);}.n{fill:#ffbdc6;}.o{fill:#7679b4;}.p{fill:#a66477;}.q{fill:#f2f1f2;}.r{fill:#565388;}.s{fill:url(#d);}.t{fill:#493545;}.u{opacity:0.05;}.v{fill:#3e3d77;}.w{fill:#c77485;}.x{fill:#ffaac4;}.aa,.y{fill:none;stroke-miterlimit:10;}.y{stroke:#535461;stroke-width:2px;}.z{fill:#dee3f3;opacity:0.5;}.aa{stroke:#862124;}.ab{fill:#a8a8a8;}.ac{opacity:0.2;}.ad{fill:#ffd037;}</style><linearGradient id="a" x1="0.5" y1="1" x2="0.5" gradientUnits="objectBoundingBox"><stop offset="0" stop-color="gray" stop-opacity="0.251"/><stop offset="0.54" stop-color="gray" stop-opacity="0.122"/><stop offset="1" stop-color="gray" stop-opacity="0.102"/></linearGradient><linearGradient id="b" x1="0.495" y1="1.014" x2="0.495" y2="0" xlink:href="#a"/><linearGradient id="c" x1="0.5" y1="1" x2="0.5" y2="0" xlink:href="#a"/><linearGradient id="d" x1="0.5" y1="1" x2="0.5" y2="0" xlink:href="#a"/></defs><g transform="translate(0.021 -0.021)"><circle class="a" cx="27.655" cy="27.655" r="27.655" transform="translate(28.925 11.632)"/><path class="b" d="M191.527,214.823c11.611,26.227-3.2,56.427-20.635,79.169-5.835,7.626-12.278,15.621-13.087,25.186-.976,11.7,6.948,22.456,16.346,29.487a68.83,68.83,0,0,0,60.96,10.309c17.631-5.586,32.455-18.2,50.241-23.288,29.742-8.518,61.27,5.6,86.741,23.2,18.03,12.438,37.339,27.6,59.075,24.93,15.294-1.874,28.273-12.611,37.083-25.251,4.253-6.1,7.953-12.944,14.146-17.06a35.409,35.409,0,0,1,12.331-4.676c39.492-8.441,81.405,12.159,120.374,1.564,26.322-7.138,47.308-27.958,60.359-51.913s19.142-51,24.216-77.8c3.6-19.035,6.6-39.6-1.689-57.106-8.768-18.536-29.064-29.772-49.462-31.878s-40.854,3.706-59.646,11.9c-23.479,10.267-46.493,24.639-72.12,24.686-17.453.036-34.1-6.662-50.782-11.772-27.9-8.536-56.909-12.777-85.819-16.691-27.678-3.748-55.63-7.233-83.475-5.021-19.7,1.564-37.1,9.1-56.219,12.581-12.462,2.272-24.984.595-37.214,4.4-15.062,4.711-30.551,15.627-31.384,32.818C171.082,188.965,185.37,200.909,191.527,214.823Z" transform="translate(-138.326 -119.24)"/><path class="c" d="M612.18,290.732c-2.54-6.621-9.089-22.182-13.4-19.095-5.449,3.9,5.449,21.141,5.449,21.141.309,3.165-5.818,9.75-9.1,13.033v-.41a1.431,1.431,0,0,1-.143.357l-.274-.149a1.786,1.786,0,0,1-.387.708,6.954,6.954,0,0,0-.03-.708c-.631,2.671-11.635,6.056-11.635,6.056h-.809c-3.058,0-11.017-.69-14.7-6.591a32.632,32.632,0,0,0-7.216-8.417,6.145,6.145,0,0,0-3.42-1.3,44.01,44.01,0,0,1-20.088-6.912l-.3-.208-.065.19c-.387-.553-.761-1.142-1.112-1.749h0l-.178-.327A14.943,14.943,0,0,0,543,273.065v-.309a10.178,10.178,0,0,0,1.368-5.1v-1.785l2.326-2.07a9.565,9.565,0,0,0,2.707-3.248,3.85,3.85,0,0,0,.285-1.666,2.885,2.885,0,0,0-1.095-2.582c-1.784-1.231-4.759,0-6.05-1.713-.595-.773-.488-1.826-.779-2.736-.595-1.85-2.736-2.849-4.717-2.879a20.379,20.379,0,0,0-5.782,1.231,33.948,33.948,0,0,1-12.313,1.154,8.043,8.043,0,0,0-3.373.119,4.646,4.646,0,0,0-2.736,3.182,7.482,7.482,0,0,0-.262,1.63A10.255,10.255,0,0,0,510,263.083v4.574a10.249,10.249,0,0,0,2.469,6.656,14.871,14.871,0,0,0,6.228,10.85v.363l.077.048a24.583,24.583,0,0,1-.654,4.206v-.3s-8.328,4.432-17.251,4.539h-.982a6.644,6.644,0,0,0-4.759,1.785c-2.641,2.486-7.269,6.418-10.112,6.418-.595,0-15.609,2.933-18.1,3.42l-4.646-4.551-.143.268-.274-.268a11.3,11.3,0,0,0-1.511.22,36.007,36.007,0,0,1-8.239-18.173s10.273-11.7,6.5-22.6c-3.224-9.292-12.105,10.624-14.627,16.626a4.8,4.8,0,0,0-.155,3.3l8.346,26.9a12.617,12.617,0,0,0-.66,6.543h-.1l6.079,7.8a32.1,32.1,0,0,0,11.73,1.915,41.009,41.009,0,0,0,15.311-2.939h1.41l-.268.1h7.239l4.6,13.925c-.155,1.267-2.379,18.952-4.164,22.908a9.94,9.94,0,0,0-.7,4.164,31.79,31.79,0,0,0,1.327,8.06l4.033-.149-.155.315c-3.414,7-9.119,19.475-12.492,31.134l-5.871,11.9,4.4,53.358h.178l.339.054h0c.476.071,1.19.178,2.13.3l-.345.595-9.7,16.061s-6.918,14.163,8.387,11.492c0,0,5.657-1.642,7.965-11.3l10.065-9.44s.47-6.27-2.379-8.774c-.178-2.9-.631-11.356.065-13.39.839-2.463-3.569-30.784-3.569-30.784s15.93-33.044,25.578-33.865a5.288,5.288,0,0,1,2.088.274c7.929,2.582,17.536,21.754,20.362,27.72h0l.131.274v.054l.107.232v.065l.1.2v.054l.083.184v.042l.071.149v.059l.054.113v.048l.036.083v.1h0l.03.071,1.255,37.148h0l.125.065h.059l-.107.767-.547,3.837s6.918,14.574,6.5,16.418,4.61,9.238,11.736,7.186,2.885-13.622,2.885-13.622L560.7,454.714l-.3-.631a13.492,13.492,0,0,0,1.927-1.434s-2.094-15.187,0-18.47,2.724-18.268,2.724-18.268-1.469-10.261-3.985-14.776l-10.541-37.624c3.159,2.939,5.615,4.087,7.668,4.009h.339a5.122,5.122,0,0,0,2.582-.642,7.274,7.274,0,0,0,1.19-.839,1.871,1.871,0,0,0,.2-.2h0c2.933-2.463-3.355-12.111-6.918-17.845-3.432-5.532,1.3-20.564,1.654-21.682a5.672,5.672,0,0,1,1.017-.595,6.275,6.275,0,0,1,2.332-.506c3.414.119,7.614,2.082,12.813,3.069a60.45,60.45,0,0,0,10.939.851h.214c1.457,0,2.778-.03,3.849-.071a6.5,6.5,0,0,0,2.8-.755h0a8.443,8.443,0,0,0,1.987-1.606l9.125-10.309-.238.113a5.128,5.128,0,0,0,0-3.629l9.643-16.656a6.335,6.335,0,0,0,.47-5.49Z" transform="translate(-254.148 -171.795)"/><path class="d" d="M526.487,618.418l-9.714,9.309c-2.225,9.518-7.691,11.13-7.691,11.13-14.77,2.629-8.1-11.3-8.1-11.3l9.369-15.853,1.154-1.957s6.68-2.023,11.13-.809a3.808,3.808,0,0,1,1.517.821C526.945,612.178,526.487,618.418,526.487,618.418Z" transform="translate(-276.789 -317.475)"/><path class="d" d="M633.59,618.29c-6.882,2.022-11.736-5.259-11.3-7.085S616,595.037,616,595.037l.523-3.783.488-3.5,11.3.809,1.065,2.237L636,604.745S640.472,616.267,633.59,618.29Z" transform="translate(-323.996 -309.048)"/><path class="e" d="M531.672,611.319c-1.065,1.826-9.7.9-13.9.333l1.154-1.957s6.68-2.023,11.13-.809a3.808,3.808,0,0,1,1.517.821C531.63,610.694,531.672,611.319,531.672,611.319Z" transform="translate(-284.198 -317.455)"/><path class="e" d="M629.739,590.776c-5.788,3.855-11.951.94-12.879.458l.488-3.5,11.3.809Z" transform="translate(-324.345 -309.04)"/><path class="f" d="M586.73,505.472c-2.023,3.236,0,18.214,0,18.214-6.68,6.073-14.568,1.618-14.568,1.618l-1.19-36.625s-13.152-30.153-22.462-29.344-24.686,33.389-24.686,33.389,4.247,27.922,3.438,30.337,0,14.163,0,14.163c-1.416,2.427-16.186,0-16.186,0l-4.247-52.614,5.639-11.742c3.242-11.493,8.75-23.794,12.046-30.694,1.636-3.432,2.73-5.526,2.73-5.526l10.767-2.243,34.948-7.245,12.557,45.708c2.427,4.449,3.843,14.568,3.843,14.568S588.753,502.236,586.73,505.472Z" transform="translate(-279.766 -243.986)"/><g class="g" transform="translate(227.04 183.151)"><path d="M605.161,547.208l-1.19-36.625s-13.152-30.153-22.461-29.344a5.07,5.07,0,0,0-1.219.274c9.077,3.016,20.445,29.07,20.445,29.07l1.19,36.625a14.276,14.276,0,0,0,8.048,1.469,14.319,14.319,0,0,1-4.812-1.469Z" transform="translate(-536.569 -449.04)"/><path d="M514.273,537.227l-4.247-52.614,5.663-11.76c3.242-11.493,8.75-23.794,12.046-30.694,1.636-3.432,2.73-5.526,2.73-5.526l10.767-2.243,31.9-6.633-.172-.637L538,434.389l-10.767,2.243s-1.095,2.094-2.73,5.526c-3.307,6.9-8.8,19.226-12.046,30.694l-5.663,11.736,4.247,52.614s8.066,1.327,12.849,1.035A95.55,95.55,0,0,1,514.273,537.227Z" transform="translate(-506.79 -427.12)"/></g><path class="h" d="M471.14,338.21s-11.534.595-9.916,12.748l3.236.4,4.854-5.258,2.427-4.449v-1.011Z" transform="translate(-261.226 -207.947)"/><path class="e" d="M471.14,338.21s-11.534.595-9.916,12.748l3.236.4,4.854-5.258,2.427-4.449v-1.011Z" transform="translate(-261.226 -207.947)"/><path class="h" d="M693.309,345.69s9.518,5.056,7.085,10.927l-3.034,1.19-4.045-2.225-.595-5.258.4-3.64Z" transform="translate(-355.079 -210.978)"/><path class="e" d="M693.309,345.69s9.518,5.056,7.085,10.927l-3.034,1.19-4.045-2.225-.595-5.258.4-3.64Z" transform="translate(-355.079 -210.978)"/><rect class="i" width="33.187" height="25.091" rx="12.545" transform="translate(256.479 82.502)"/><path class="j" d="M465.939,311.051l-7.085,11.3-.595-2.011-9.625-31.36a4.824,4.824,0,0,1,.149-3.254c2.433-5.913,11.011-25.579,14.122-16.388,3.641,10.707-6.276,22.259-6.276,22.259a35.644,35.644,0,0,0,8.465,18.524C465.617,310.736,465.939,311.051,465.939,311.051Z" transform="translate(-256.102 -179.069)"/><path class="j" d="M691.16,324.751s11.13-10.523,10.707-14.77c0,0-10.523-16.995-5.259-20.82,4.164-3.046,10.487,12.3,12.938,18.827a6.365,6.365,0,0,1-.422,5.354l-13.3,23.55Z" transform="translate(-354.447 -187.915)"/><path class="j" d="M566.772,299.924s2.023,12.95-3.843,17.81,16.8,4.83,16.8,4.83l8.1-7.489s-9.309-8.7-6.478-15.175Z" transform="translate(-302.102 -192.426)"/><path class="e" d="M557.991,324.219s8.7,6.478,17.4-.809l14.163,29.344-.809,35.816s-29.344,15.175-41.485,5.871-2.023-14.163-2.023-14.163l-2.831-27.518,3.034-17.81s5.461-8.5,5.871-8.5S557.991,324.219,557.991,324.219Z" transform="translate(-293.726 -201.951)"/><path class="k" d="M558,323.539s8.7,6.49,17.405-.809l14.163,29.344-.809,35.816s-29.344,15.175-41.485,5.871-2.023-14.163-2.023-14.163l-2.832-27.518,3.034-17.81s5.461-8.5,5.871-8.5S558,323.539,558,323.539Z" transform="translate(-293.73 -201.676)"/><path class="e" d="M525.816,319s-8.251,4.7-17.209,4.467a6.341,6.341,0,0,0-4.574,1.749c-2.552,2.451-7.019,6.329-9.785,6.329-.595,0-17.81,3.438-17.81,3.438l-4.551-4.551s-6.781,13.253-10.017,12.647l5.871,7.691s11.13,4.854,25.7-1.011h8.5l4.449,13.759s-2.225,18.619-4.045,22.664.595,11.939.595,11.939l15.984-.595s.809-7.894,2.023-8.923-4.247-35.816-4.247-35.816-3.64-19.63,9.714-26.709Z" transform="translate(-261.551 -200.164)"/><path class="e" d="M550.051,439.38a52.847,52.847,0,0,0-1.255,7.3l-12.236.464c1.636-3.432,2.73-5.526,2.73-5.526Z" transform="translate(-291.811 -248.936)"/><path class="e" d="M472.64,340.464l-7.085,11.3-.595-2.011c2.6-2.582,5.645-7.977,6.859-10.225A12,12,0,0,0,472.64,340.464Z" transform="translate(-262.803 -208.482)"/><path class="h" d="M525.529,319s-8.661,4.7-17.614,4.467a6.341,6.341,0,0,0-4.574,1.749c-2.552,2.451-7.019,6.329-9.785,6.329-.595,0-17.81,3.438-17.81,3.438l-4.568-4.557S464.4,343.68,461.16,343.074l5.871,7.691s11.13,4.854,25.7-1.011h8.5l4.45,13.753s-2.225,18.619-4.045,22.664.595,11.939.595,11.939l15.984-.595s.809-7.894,2.023-8.923-4.247-35.816-4.247-35.816-3.64-19.63,9.714-26.709Z" transform="translate(-261.263 -200.164)"/><path class="e" d="M596.73,316.94a39.377,39.377,0,0,0,19.279,7.019,5.859,5.859,0,0,1,3.3,1.279,31.955,31.955,0,0,1,6.966,8.328c4.449,7.287,15.377,6.478,15.377,6.478s10.624-3.337,11.231-5.949c0,0,.3,14.276,6.983,10.826l-8.786,10.124a6.2,6.2,0,0,1-4.432,2.135,65.137,65.137,0,0,1-13.878-.767c-7.287-1.416-12.545-4.854-16.388-1.82,0,0-5.056,15.781-1.618,21.45s9.518,15.175,6.68,17.608-6.276,2.225-11.939-3.641-6.276-15.781-6.276-15.781l1.416-25.5s-5.461-19.226-10.707-23.068Z" transform="translate(-315.059 -199.33)"/><path class="e" d="M661.205,344.8l-8.81,10.166a6.193,6.193,0,0,1-2.124,1.582h0a6.168,6.168,0,0,1-2.3.541,64.368,64.368,0,0,1-13.878-.767c-6.817-1.327-11.861-4.42-15.633-2.332a5.532,5.532,0,0,0-.761.506s-5.056,15.781-1.618,21.45,9.518,15.175,6.68,17.608a6.545,6.545,0,0,1-1.582,1.029c-2.546,1.148-5.7.155-10.356-4.67-5.663-5.871-6.276-15.781-6.276-15.781l1.416-25.5s-5.461-19.226-10.707-23.068l2.314-8.3a42.011,42.011,0,0,0,19.392,6.817,5.859,5.859,0,0,1,3.3,1.279,31.979,31.979,0,0,1,6.966,8.328c4.449,7.287,15.377,6.478,15.377,6.478a59.052,59.052,0,0,0,7.656-3.046h0a11.67,11.67,0,0,0,3.569-2.379,1.785,1.785,0,0,0,.387-.714S654.531,348.238,661.205,344.8Z" transform="translate(-315.594 -199.464)"/><path class="h" d="M660.513,344.872l-8.8,10.178A6.191,6.191,0,0,1,650,356.43h0a6.174,6.174,0,0,1-2.7.744,64.366,64.366,0,0,1-13.878-.767c-6.573-1.279-11.5-4.206-15.222-2.534a5.5,5.5,0,0,0-1.19.708s-5.056,15.781-1.618,21.45,9.518,15.175,6.68,17.608a7.015,7.015,0,0,1-1.19.827c-2.617,1.445-5.853.595-10.761-4.467-5.663-5.871-6.276-15.781-6.276-15.781l1.416-25.5S599.8,329.5,594.55,325.653l2.427-8.7.291.2a42.01,42.01,0,0,0,19.392,6.817,5.859,5.859,0,0,1,3.3,1.279,31.982,31.982,0,0,1,6.966,8.328c4.449,7.287,15.377,6.478,15.377,6.478a59.053,59.053,0,0,0,7.656-3.046h0c1.838-.94,3.337-1.969,3.569-2.909v.512C653.708,337.068,654.6,347.912,660.513,344.872Z" transform="translate(-315.306 -199.334)"/><path class="e" d="M584.721,300.45H569.85a36.388,36.388,0,0,1,.28,7.138,15.288,15.288,0,0,0,15.716,1.13C584.418,306.077,583.549,303.079,584.721,300.45Z" transform="translate(-305.299 -192.649)"/><circle class="j" cx="14.77" cy="14.77" r="14.77" transform="translate(258.805 87.868)"/><path class="e" d="M571.981,273.246c1.648-.2,3.3-.779,4.919-.452,1.475.3,2.73,1.315,4.206,1.624,2.843.595,5.484-1.5,7.632-3.45l4.64-4.223a9.47,9.47,0,0,0,2.617-3.2,3.212,3.212,0,0,0-.785-3.783c-1.7-1.19-4.616,0-5.841-1.689-.553-.761-.47-1.785-.755-2.695-.595-1.82-2.641-2.814-4.557-2.837a20.156,20.156,0,0,0-5.58,1.19,32.123,32.123,0,0,1-11.9,1.136,7.6,7.6,0,0,0-3.254.113,4.55,4.55,0,0,0-2.641,3.135c-.916,3.236.648,8.453,2.219,11.35S568.846,273.633,571.981,273.246Z" transform="translate(-301.475 -173.238)"/><path class="i" d="M571.981,272.566c1.648-.2,3.3-.779,4.919-.452,1.475.3,2.73,1.315,4.206,1.624,2.843.595,5.484-1.5,7.632-3.45l4.64-4.223a9.47,9.47,0,0,0,2.617-3.2,3.212,3.212,0,0,0-.785-3.783c-1.7-1.19-4.616,0-5.841-1.689-.553-.761-.47-1.785-.755-2.695-.595-1.82-2.641-2.814-4.557-2.837a20.156,20.156,0,0,0-5.58,1.19,32.122,32.122,0,0,1-11.9,1.136,7.6,7.6,0,0,0-3.254.113,4.551,4.551,0,0,0-2.641,3.135c-.916,3.236.648,8.453,2.219,11.35S568.846,272.923,571.981,272.566Z" transform="translate(-301.475 -172.962)"/><path class="e" d="M536.55,394s3.236.4,4.854,2.427a8.719,8.719,0,0,0,4.449,2.629" transform="translate(-291.807 -230.551)"/><path class="e" d="M487.482,349.09s2.641,5.895,1.011,6.49-1.011,4.854-1.011,4.854" transform="translate(-271.88 -212.355)"/><g class="g" transform="translate(216.327 118.931)"><path d="M488.964,337.986s17.2-3.438,17.792-3.438c2.772,0,7.233-3.878,9.785-6.329a6.246,6.246,0,0,1,2.772-1.541h-.22a6.341,6.341,0,0,0-4.574,1.749c-2.552,2.451-7.019,6.329-9.785,6.329-.482,0-11.487,2.183-15.954,3.069Z" transform="translate(-488.78 -322.205)"/><path d="M560.432,319.915v-.755a42.937,42.937,0,0,1-13.182,4.217A40.735,40.735,0,0,0,560.432,319.915Z" transform="translate(-512.469 -319.16)"/><path d="M526.829,418.881s-2.427-7.894-.595-11.939,4.045-22.664,4.045-22.664l-4.438-13.759h-8.524l-.518.2h6.99l4.432,13.765s-2.225,18.619-4.045,22.664.595,11.939.595,11.939l15.984-.595v-.125Z" transform="translate(-500.132 -339.968)"/></g><g class="g" transform="translate(288.738 145.55)"><path d="M628.736,427.98a7.018,7.018,0,0,1-1.19.827c-2.617,1.445-5.853.595-10.761-4.467-4.5-4.658-5.806-11.9-6.157-14.639l-.119,2.094s.595,9.916,6.276,15.781c4.907,5.08,8.143,5.913,10.761,4.467a7.017,7.017,0,0,0,1.19-.827c.851-.732.9-2.106.452-3.819A1.873,1.873,0,0,1,628.736,427.98Z" transform="translate(-610.51 -382.462)"/><path d="M671.173,364.2l-5.728,6.621a6.192,6.192,0,0,1-1.713,1.38h0a6.175,6.175,0,0,1-2.7.744,64.367,64.367,0,0,1-13.878-.767c-6.573-1.279-11.5-4.206-15.222-2.534a5.5,5.5,0,0,0-1.19.708s-3.266,10.2-2.766,17.138a66.924,66.924,0,0,1,2.766-13.9,5.5,5.5,0,0,1,1.19-.708c3.724-1.672,8.649,1.255,15.222,2.534a65.124,65.124,0,0,0,13.878.767,6.173,6.173,0,0,0,2.7-.744h0a6.19,6.19,0,0,0,1.713-1.362l8.81-10.166a3.468,3.468,0,0,1-3.081.291Z" transform="translate(-617.565 -363.91)"/></g><path class="l" d="M265.74,486.89a.458.458,0,0,0,.541.071A1.841,1.841,0,0,1,265.74,486.89Z" transform="translate(-182.089 -268.185)"/><path class="m" d="M269.373,300.875c-1.071-.309-2.6-.815-4.438-1.457a23.271,23.271,0,0,0,4.11-8.28l-.155.06c.053-.184.107-.363.155-.553-3.527,1.434-7.43-.993-9.916-4.11s-4.164-6.984-6.888-9.851a31.527,31.527,0,0,0-3.652-3.147,5.05,5.05,0,0,0-2.647-1.3c-1.588-.048-2.831,1.511-4.36,1.969a5.949,5.949,0,0,1-3.04-.113c-3.944-.9-7.733-2.576-11.76-3.016a13.783,13.783,0,0,0-6.383.72c-2.022.767-2.945,2.3-4.58,3.522-1.785,1.315-5.27,1.285-7.346,1.517a52.642,52.642,0,0,1-7.59.315,17.766,17.766,0,0,0-4.366.161c-3.016.66-5.437,3.058-7.7,5.354a3.968,3.968,0,0,0-1.273,1.993,2.517,2.517,0,0,0,0,.66,4.289,4.289,0,0,0,.3,1.755,23.2,23.2,0,0,0,2.921,5.812,16.785,16.785,0,0,1,2.522,4.128,8.013,8.013,0,0,1,.387,2.379,17.3,17.3,0,0,1-.268,2.558,32.122,32.122,0,0,1-1.957,6.811,12.373,12.373,0,0,0-1.142,3.569,5.685,5.685,0,0,0,0,.761c-.149,3.926,3.813,6.752,4.58,10.654a6.366,6.366,0,0,1,.113.981,6.647,6.647,0,0,1-3.516,5.758c.178.071.363.131.547.19a4.964,4.964,0,0,1-.547.3,11.1,11.1,0,0,0,1.142.369,26.53,26.53,0,0,0-5.776,7.138c-6.882,12.813-53.495,37.91-53.495,37.91l.69.393-.559.363c-4.033,2.683-13.5,10.505-4.943,20.4,0,0,6.68-10.541,11.362-15.032.208-.2.416-.387.595-.559a1.368,1.368,0,0,1,.178,1.083l30.647-17.221s10.892-7.626,13.931-9.345a25.073,25.073,0,0,1,6.906-2.974l-.357.149a13.991,13.991,0,0,1,3.516-.5c5.425.083,11.3,4.057,13.235,19.791,2.594,21.07,1.392,24.871.559,25.388a1.53,1.53,0,0,1-.3-.053.517.517,0,0,0,.083.059,1.593,1.593,0,0,1-.333-.059.476.476,0,0,0,.452.107.422.422,0,0,0,.339-.042h0a3.521,3.521,0,0,0,.41,0,4.373,4.373,0,0,1-.042.595c-.042,0-.244.113,0,.125h0c-.065,1.19-.059,2.481,0,3.831-2.695.149-5.389.309-7.733.452l.208-1.112.1-.5c2.07-.167,4.033-.773,4.265-2.451.506-3.688-4.557-5.657-8.863-5.9s-30.135,1.475-30.135,1.475-3.872,5.015,8.411,6.543l1.136.595a136.538,136.538,0,0,1,14.467,10.279l.434.345-1.4,1.142c7.6,1.719,14.943,30.748,18.994,44.019s12.914,12.789,20.261,10.82c6.882-1.844,7.733-21.831,7.846-24.341V444l12.242,15.121.928,1.148q.535.28,1.059.523c9.268,4.408,19.505-4.045,16.6-13.682-2.945-9.714-7.513-24.08-10.559-30.153-2.552-5.086-5.847-13.533-7.846-18.821a6.348,6.348,0,0,0,.755-.363s-.048-.238-.125-.672l.125-.065s-2.974-15.3-3.105-26.173v-.946c2.213-.506,3.617-.7,3.617-.7l.042-.476-.256.054,1.231-14.092s4.521-9.619,1.059-13.622a8.411,8.411,0,0,1-2.028-4.164c-.595-3.682,0-9.827,8.06-14.931,12.409-7.87,17.251-14.276,17.251-14.276S276.969,303.112,269.373,300.875Zm-24.645,9.779v-6.514c2.3-.113,4.652.155,6.966,0a17.628,17.628,0,0,0,3.361-.565l.559.387A61.268,61.268,0,0,1,244.728,310.655Zm-35.185,102.1c.91.631,1.826,1.285,2.724,1.945.559,3.212,1.053,5.479,1.089,5.639A44.531,44.531,0,0,0,209.543,412.755Z" transform="translate(-125.1 -180.707)"/><path class="n" d="M280.829,500.32l-.535,2.909-.41,2.225-.75,4.069-7.269,5.086s-.654-.559-1.737-1.445a127.429,127.429,0,0,0-13.836-10.112,15.465,15.465,0,0,0-3.8-1.755Z" transform="translate(-176.72 -273.626)"/><path class="e" d="M280.825,500.32l-.535,2.909a22.6,22.6,0,0,1-4.794-.244l-16.959.244c-.8-.048-1.553-.113-2.254-.184a15.469,15.469,0,0,0-3.8-1.755Z" transform="translate(-176.716 -273.626)"/><path class="o" d="M271.487,498.527s8.483,1.451,8.964-2.183-4.36-5.55-8.471-5.824-28.838,1.463-28.838,1.463-4.36,5.812,11.385,6.781Z" transform="translate(-172.709 -269.644)"/><path class="e" d="M280.829,500.32l-.535,2.909-.41,2.225-.75,4.069-7.269,5.086s-.654-.559-1.737-1.445a127.429,127.429,0,0,0-13.836-10.112,15.465,15.465,0,0,0-3.8-1.755Z" transform="translate(-176.72 -273.626)"/><path class="e" d="M280.825,500.32l-.535,2.909a22.6,22.6,0,0,1-4.794-.244l-16.959.244c-.8-.048-1.553-.113-2.254-.184a15.469,15.469,0,0,0-3.8-1.755Z" transform="translate(-176.716 -273.626)"/><path class="e" d="M271.487,498.527s8.483,1.451,8.964-2.183-4.36-5.55-8.471-5.824-28.838,1.463-28.838,1.463-4.36,5.812,11.385,6.781Z" transform="translate(-172.709 -269.644)"/><rect class="p" width="44.334" height="52.573" transform="translate(72.974 109.431)"/><rect class="e" width="44.334" height="52.573" transform="translate(72.974 109.431)"/><path class="n" d="M148.929,451.526a7.1,7.1,0,0,0-2.7,1.909c-4.479,4.426-10.868,14.806-10.868,14.806-8.185-9.744.874-17.447,4.759-20.094.94-.642,1.57-.987,1.57-.987Z" transform="translate(-127.921 -252.088)"/><path class="n" d="M283.313,331.09s2.183,15.264,9.69,18.9-9.69,10.416-9.69,10.416l-23.5-8.72s13.325-4.36,10.66-17.2Z" transform="translate(-179.686 -205.063)"/><path class="n" d="M237.7,485.45l-.535,2.909-.41,2.225-.75,4.069-7.269,5.086s-.654-.559-1.737-1.445a127.4,127.4,0,0,0-13.836-10.112,15.465,15.465,0,0,0-3.8-1.755Z" transform="translate(-159.246 -267.602)"/><path class="e" d="M237.695,485.45l-.535,2.909a22.6,22.6,0,0,1-4.795-.244l-16.959.244c-.8-.048-1.553-.113-2.254-.184a15.467,15.467,0,0,0-3.8-1.755Z" transform="translate(-159.242 -267.602)"/><path class="o" d="M228.313,483.659s8.483,1.451,8.964-2.183-4.36-5.574-8.483-5.812-28.832,1.451-28.832,1.451-4.36,5.812,11.385,6.781Z" transform="translate(-155.214 -263.628)"/><path class="e" d="M248.726,493.973l-.75,4.069-7.269,5.086s-.654-.559-1.737-1.445l9.613-7.882Z" transform="translate(-171.243 -270.985)"/><path class="o" d="M296.048,542.1q-.5-.244-1.011-.518l-.886-1.13-11.707-14.871v.262c-.077,2.469-.922,22.158-7.5,23.973-7.025,1.939-15.508,2.421-19.38-10.66s-10.9-41.669-18.173-43.365l10.779-8.845s7.138,8.328,10.053,16.346c-.107-.512-5.038-23.538-.97-27.607h35.37s5.449,15.549,9.208,23.259c2.915,5.984,7.287,20.13,10.112,29.7A11.377,11.377,0,0,1,296.048,542.1Z" transform="translate(-170.603 -263.643)"/><path class="e" d="M307.455,459.906c-5.455,3.23-29.439,1.915-37.255,1.392l-2.124-.155c-.232,0,.036-.131.036-.131l.22-2.2,5.812-14.776L305.277,426a26.943,26.943,0,0,0-.791,8.144C304.641,444.839,307.455,459.906,307.455,459.906Z" transform="translate(-182.996 -243.515)"/><path class="q" d="M307.28,458.7c-5.455,3.23-29.439,1.915-37.255,1.392l-2.124-.155h-.351l.387-.1,1.915-.506,4.116-16.477L305.1,424.81a26.942,26.942,0,0,0-.791,8.144C304.466,443.631,307.28,458.7,307.28,458.7Z" transform="translate(-182.822 -243.033)"/><path class="e" d="M304.555,432.893c-6.329,1.457-20.261,5.746-25.614,16.061-3.569,6.888-6.543,9.845-8.667,11.082l-2.124-.155.036-.131,1.915-.506,4.116-16.477,31.134-18.048A26.943,26.943,0,0,0,304.555,432.893Z" transform="translate(-183.065 -242.997)"/><path class="e" d="M147.14,447.17l7.269,4.36a7.1,7.1,0,0,0-2.7,1.909c-.595-1.785-4.414-4.235-6.139-5.282C146.51,447.515,147.14,447.17,147.14,447.17Z" transform="translate(-133.402 -252.093)"/><path class="e" d="M265.652,484.3a.434.434,0,0,1-.512-.065A1.75,1.75,0,0,0,265.652,484.3Z" transform="translate(-181.845 -267.107)"/><path class="r" d="M233.542,336.005s-6.543.726-11.147-4.116c0,0-19.38,5.574-25.924,18.173s-51.121,37.309-51.121,37.309,7.733,4.36,7.025,6.543l29.314-16.959s10.416-7.513,13.325-9.208,18.9-12.111,22.289,16.233,0,24.984,0,24.984,4.848,1.7,11.9-11.9,28.832-16.715,28.832-16.715l1.19-14.276s4.325-9.47,1.011-13.42a8.387,8.387,0,0,1-1.939-4.1c-.553-3.629,0-9.678,7.733-14.7,11.9-7.733,16.477-14.05,16.477-14.05s.244-4.6-7.025-6.781-36.827-14.05-36.827-14.05l-.97,4.116,23.259,16.477s-11.629,9.446-20.82,9.208C240.086,328.73,241.781,335.761,233.542,336.005Z" transform="translate(-133.313 -192.049)"/><path class="e" d="M291.3,338.208a47.594,47.594,0,0,1-1.338-5.949l-12.843,3.414a14.157,14.157,0,0,1-.291,7.406A13.812,13.812,0,0,0,291.3,338.2Z" transform="translate(-186.582 -205.537)"/><circle class="n" cx="13.812" cy="13.812" r="13.812" transform="translate(80.243 109.669)"/><path class="e" d="M269.967,273.917c3.831.434,7.477,2.082,11.249,2.974a5.556,5.556,0,0,0,2.909.113c1.463-.452,2.653-1.987,4.164-1.939a4.377,4.377,0,0,1,2.534,1.279,30.4,30.4,0,0,1,3.492,3.1c2.6,2.826,4.217,6.633,6.591,9.7s6.115,5.461,9.488,4.051c-2.29,8.923-9.809,15.746-17.935,16.3-3.242.22-6.543-.452-9.7.5a8.5,8.5,0,0,1-2.451.595c-1.785,0-3.26-1.66-4.39-3.272-2.641-3.8-4.759-8.1-7.733-11.558a6.322,6.322,0,0,0-3.527-2.439,6.532,6.532,0,0,0-3.9,1.095,18.526,18.526,0,0,0-5.711,3.962,7.919,7.919,0,0,0-1.927,6.966c.351,1.321,1.16,2.51,1.19,3.9,0,2.2-1.915,3.813-2.3,5.948a22.963,22.963,0,0,0-.1,2.712c-.172,2.939-2.088,5.354-4.1,7.192a5.173,5.173,0,0,0-1.874,2.6c-.155.755,0,1.558-.1,2.326-.291,1.909-2.2,2.873-3.878,3.123a11.243,11.243,0,0,1-5.818-.69c2.379-1.112,3.8-4.283,3.254-7.138-.75-3.932-4.7-6.752-4.366-10.761a12.45,12.45,0,0,1,1.095-3.539,32.39,32.39,0,0,0,1.868-6.71,11.368,11.368,0,0,0-.113-5.354,16.9,16.9,0,0,0-2.415-4.069,23.091,23.091,0,0,1-2.8-5.728,4.015,4.015,0,0,1-.268-1.892,3.92,3.92,0,0,1,1.19-1.963c2.165-2.266,4.485-4.628,7.364-5.282a16.512,16.512,0,0,1,4.164-.161,48.918,48.918,0,0,0,7.263-.309c1.987-.232,5.354-.2,7.031-1.5,1.564-1.19,2.451-2.707,4.384-3.468A12.831,12.831,0,0,1,269.967,273.917Z" transform="translate(-168.571 -181.85)"/><path class="e" d="M308.48,513.76s7.995,15.746,5.574,20.594" transform="translate(-199.405 -279.071)"/><path class="e" d="M324.811,572.211,313.1,557.34v.262s-.678-4.806,1.553-3.188c4.884,3.533,12.7,9.327,12.867,10.327S325.941,569.749,324.811,572.211Z" transform="translate(-201.239 -295.407)"/><g class="g" transform="translate(12.281 106.879)"><path d="M303.5,348.866s.987,4.093-2.207,6.139c4.919-.845,5.134-4.67,4.985-6.335a15.5,15.5,0,0,1-2.778.2Z" transform="translate(-208.773 -319.064)"/><path d="M148.431,409.094s44.578-24.71,51.121-37.309c4.693-9.042,16-14.461,22.009-16.8-4.384,1.469-19.136,7.1-24.68,17.774-6.543,12.6-51.121,37.309-51.121,37.309Z" transform="translate(-145.76 -321.621)"/><path d="M312.028,326.781c7.584-2.379,14.836-8.251,14.836-8.251L303.6,302.053l.529-2.26-2.225-.892-.97,4.116L324.2,319.494A56.124,56.124,0,0,1,312.028,326.781Z" transform="translate(-208.631 -298.9)"/><path d="M319.83,437.742a57.628,57.628,0,0,1,9.119-2.3l.042-.47a61.715,61.715,0,0,0-9.161,2.772Z" transform="translate(-216.284 -354.029)"/><path d="M259.05,451.982h-.214a.434.434,0,0,1-.512-.065,1.781,1.781,0,0,0,.512.065c.8-.464,1.993-4.081-.512-25.019-2.677-22.354-13.182-20.6-18.934-18.03,5.877-1.618,13.967-.22,16.269,19,2.5,20.939,1.309,24.561.512,25.019a5.353,5.353,0,0,0,2.879-.97Z" transform="translate(-183.694 -342.887)"/><path d="M267.252,483.9a1.784,1.784,0,0,1-.512-.065A.434.434,0,0,0,267.252,483.9Z" transform="translate(-194.775 -373.824)"/></g><path class="p" d="M269.967,273.127c3.831.434,7.477,2.082,11.249,2.974a5.556,5.556,0,0,0,2.909.113c1.463-.452,2.653-1.987,4.164-1.939a4.377,4.377,0,0,1,2.534,1.279,30.4,30.4,0,0,1,3.492,3.1c2.6,2.826,4.218,6.633,6.591,9.7s6.115,5.461,9.488,4.051c-2.29,8.923-9.809,15.746-17.935,16.3-3.242.22-6.543-.452-9.7.5a8.494,8.494,0,0,1-2.451.595c-1.785,0-3.26-1.66-4.39-3.272-2.641-3.8-4.759-8.1-7.733-11.558a6.322,6.322,0,0,0-3.527-2.439,6.532,6.532,0,0,0-3.9,1.095,18.525,18.525,0,0,0-5.711,3.962,7.919,7.919,0,0,0-1.927,6.966c.351,1.321,1.16,2.51,1.19,3.9,0,2.2-1.915,3.813-2.3,5.948a22.96,22.96,0,0,0-.1,2.713c-.172,2.939-2.088,5.354-4.1,7.192a5.173,5.173,0,0,0-1.874,2.6c-.155.755,0,1.559-.1,2.326-.291,1.909-2.195,2.873-3.878,3.123a11.243,11.243,0,0,1-5.818-.69c2.379-1.112,3.8-4.283,3.254-7.138-.75-3.932-4.7-6.752-4.366-10.761a12.45,12.45,0,0,1,1.095-3.539,32.391,32.391,0,0,0,1.868-6.71,11.367,11.367,0,0,0-.113-5.354,16.9,16.9,0,0,0-2.415-4.069,23.093,23.093,0,0,1-2.8-5.728,4.016,4.016,0,0,1-.268-1.892,3.92,3.92,0,0,1,1.19-1.963c2.165-2.266,4.485-4.628,7.364-5.282a16.512,16.512,0,0,1,4.164-.161,48.922,48.922,0,0,0,7.263-.309c1.987-.232,5.354-.2,7.031-1.5,1.564-1.19,2.451-2.707,4.384-3.468A12.831,12.831,0,0,1,269.967,273.127Z" transform="translate(-168.571 -181.53)"/><path class="s" d="M872.731,210.52h0v-.22a.5.5,0,0,0-.036-.226h-.1v-.494c-.238-5.514-7.864-17.251-10.922-13.824-2.677,3.01,1.362,10.624,3.42,14.05l.184.309-.1-.065s-8.512,25.388-9.518,26.376-8.013,20.951-17.251,23.2c-1.826.434-3.343.827-4.616,1.19l.1-.339a36.8,36.8,0,0,0,1.624-5.949c.3-2.165,0-4.789-1.095-5.841-.535-.523-1.19-.595-1.63-1.428a6.59,6.59,0,0,1-.452-2.29l-.785-9.625.547-.167c3.307-1.059,6.514-3.569,6.888-6.948a3.572,3.572,0,0,1-.351.113q.065-.295.1-.595c-2.778,1.095-5.354-1.785-8.031-3.075-4.408-2.159-9.446-.125-14,.369-5.157.565-10.053-1.576-15.323-1.19-2.867.22-6.056,2.165-5.9,4.991.089,1.553,1.19,2.867,1.642,4.354,1.142,3.6-1.4,7.21-3.623,10.279a15.3,15.3,0,0,0-3.117,6.841c-5.122-5.354-10.66-11.54-11.3-13.866l-14.818-25.388s-.351.375-.916.928c-.089-.274-.2-.595-.315-.916-1.892-5.3-7.245-18.143-14.033-15.787s2.814,15.52,6.99,20.766l.595.726a1.879,1.879,0,0,1-1.059-.048l16.525,28.345s3,5.425,5.758,6.9c0,0,20.528,25.882,20.778,31.057s9.232,18.982,9.232,18.982,3,22.432-2.254,26.376h.868q-.375.366-.767.8c-3.9,4.319-8.875,13.574-2.07,29.314,10.011,23.2,11.516,32.288,11.516,32.288s-19.035.987-22.783,1.725c-3.319.654-16.222,1.112-19.172,1.19-1.053-1.225-4.164-3.938-8.364,0-5.258,4.931-9.012,21.415-9.012,21.415s-2,13.313,4.759,9.857c0,0,8.013-11.094,10.261-11.588,1.118-.244,2.3-1.892,3.206-3.48l.048.03h0c.054,0,.274-.119.63-.262h0c1.666-.66,6.252-2.249,9.869-1.457,1.981.434,10.475.535,19.38.512-2.011,4.818-5.615,17.251-5.615,17.251s-1.505,11.594,3.492,11.118c3.569-.351,9.042-9.47,11.9-14.675,2.07-1.517,8-6.954,12.385-6.543l29.54-11.338s7.007-3.944,3.254-17.007c-2.974-10.386-11.439-31.646-14.782-39.932h0l-.1-.214c-.809-2-1.3-3.194-1.3-3.194h0a48.894,48.894,0,0,1-2.683-11.724c-.03-.315-.054-.637-.077-.952a5.259,5.259,0,0,0,1.16-.672s-2.754-27.851,0-30.813h0l.048-.054h0v-.036h0l.048-.059h0l.107-.137h0l.131-.167h0c.149-.2.327-.44.529-.738h0c1.576-2.308,4.515-7.578,3.67-13.8h0q-.053-.4-.131-.815h0a16.994,16.994,0,0,0-1.713-4.83,13.4,13.4,0,0,1-.22-1.91V275.8a5.723,5.723,0,0,1,.089-.857v-.107a1.065,1.065,0,0,1,.054-.327v-.137a1.563,1.563,0,0,1,.071-.321v-.113c.036-.143.071-.286.119-.428v-.071q.053-.178.119-.351l.054-.137.119-.286.06-.143c.048-.107.1-.214.155-.321l.042-.089q.107-.2.226-.387l.065-.1.2-.28.1-.125.208-.25.1-.107c.107-.113.214-.226.333-.333,3.254-2.974,17.774-24.894,17.774-24.894s3.5-4.931,3.5-8.132C867.163,237.437,873.355,216.8,872.731,210.52ZM833.75,394.775c-.357-3.379-.714-7.566-1.041-11.9l5.663,8.828S837.837,394.394,833.75,394.775Z" transform="translate(-376.931 -149.926)"/><path class="t" d="M781.91,525.978s-3.391-5.354-8.483-.482-8.72,21.076-8.72,21.076-1.939,13.087,4.6,9.69c0,0,7.733-10.9,9.934-11.385s4.6-6.543,4.6-6.543Z" transform="translate(-384.136 -282.997)"/><path class="t" d="M846.346,548.92s-4.6-2.183-6.056-.482-6.3,18.654-6.3,18.654-1.451,11.148,3.391,10.66,13.325-17.941,13.325-17.941Z" transform="translate(-412.233 -292.858)"/><path class="u" d="M846.346,548.92s-4.6-2.183-6.056-.482-6.3,18.654-6.3,18.654-1.451,11.148,3.391,10.66,13.325-17.941,13.325-17.941Z" transform="translate(-412.233 -292.858)"/><path class="v" d="M869.214,474.2,879.63,490.43s-.726,3.635-7.025,2.909l-21.563,13.569s-1.874,16.519,4.116,15.02c.97-.244,7.733-7.269,12.6-6.781L896.351,504s6.781-3.878,3.147-16.715-15.651-42.6-15.651-42.6L864.853,455.3Z" transform="translate(-419.111 -251.084)"/><path class="u" d="M869.214,474.2,879.63,490.43s-.726,3.635-7.025,2.909l-21.563,13.569s-1.874,16.519,4.116,15.02c.97-.244,7.733-7.269,12.6-6.781L896.351,504s6.781-3.878,3.147-16.715-15.651-42.6-15.651-42.6L864.853,455.3Z" transform="translate(-419.111 -251.084)"/><path class="v" d="M850.448,486.277c1.452,9.208-6.781,9.934-6.781,9.934s-37.071.726-41.431-.244-10.178,1.7-10.178,1.7c-7.513-4.6-1.451-15.99-1.451-15.99s15.508-.482,19.142-1.19,22.045-1.713,22.045-1.713-1.451-8.964-11.148-31.735c-6.585-15.466-1.784-24.567,2-28.809a15.956,15.956,0,0,1,3.325-2.927l29.8,1.451a38.658,38.658,0,0,0,.167,4.5,47.956,47.956,0,0,0,3.956,14.871c-1.7,0-12.6,10.178-12.6,10.178S848.991,477.075,850.448,486.277Z" transform="translate(-393.802 -239.18)"/><path class="e" d="M792.785,482.655s15.508-.482,19.142-1.19,22.045-1.7,22.045-1.7-1.451-8.964-11.147-31.735c-6.585-15.466-1.785-24.567,2-28.809a15.953,15.953,0,0,1,3.325-2.927l27.613,1.344v-.863l-29.8-1.451a15.949,15.949,0,0,0-3.325,2.927c-3.771,4.247-8.59,13.342-2,28.809,9.72,22.753,11.159,31.717,11.159,31.717s-18.44.97-22.045,1.7-19.142,1.19-19.142,1.19-6.055,11.391,1.452,16.013c0,0,.226-.107.595-.262C787.664,492.286,792.785,482.655,792.785,482.655Z" transform="translate(-393.804 -239.193)"/><rect class="t" width="15.02" height="38.035" transform="translate(428.296 87.195)"/><rect class="e" width="15.02" height="38.035" transform="translate(428.296 87.195)"/><path class="t" d="M880.165,252.05c.518.143,1.1.161,1.451.874a5.352,5.352,0,0,1,.351,1.785l.946,11.754a6.544,6.544,0,0,0,.44,2.249c.4.8,1.059.892,1.576,1.4,1.041,1.035,1.344,3.629,1.059,5.74a37.716,37.716,0,0,1-1.57,5.83c-.809,2.736-1.344,5.812-2.481,8.12s-3.2,3.569-4.533,1.63-1.154-5.853-1.4-9.06c-.416-5.354-2.5-9.97-2.647-15.359-.119-4.36,1.053-8.429,1.784-12.563.523-2.837.553-6.282,1.315-8.834C877.09,248.654,878.3,251.539,880.165,252.05Z" transform="translate(-428.26 -170.435)"/><path class="e" d="M880.165,252.05c.518.143,1.1.161,1.451.874a5.352,5.352,0,0,1,.351,1.785l.946,11.754a6.544,6.544,0,0,0,.44,2.249c.4.8,1.059.892,1.576,1.4,1.041,1.035,1.344,3.629,1.059,5.74a37.716,37.716,0,0,1-1.57,5.83c-.809,2.736-1.344,5.812-2.481,8.12s-3.2,3.569-4.533,1.63-1.154-5.853-1.4-9.06c-.416-5.354-2.5-9.97-2.647-15.359-.119-4.36,1.053-8.429,1.784-12.563.523-2.837.553-6.282,1.315-8.834C877.09,248.654,878.3,251.539,880.165,252.05Z" transform="translate(-428.26 -170.435)"/><path class="w" d="M766.632,216.108l-5.812,4.848s-.69-.809-1.719-2.118c-4.039-5.157-13.325-18.1-6.763-20.409s11.748,10.3,13.58,15.514C766.382,215.263,766.632,216.108,766.632,216.108Z" transform="translate(-378.31 -151.202)"/><path class="w" d="M946.768,214.512c-2.421,3.635-5.812,0-5.812,0s-.434-.648-1.047-1.7c-1.993-3.373-5.9-10.85-3.313-13.812,2.974-3.385,10.344,8.167,10.57,13.586A3.224,3.224,0,0,1,946.768,214.512Z" transform="translate(-453.538 -151.301)"/><path class="w" d="M854.08,288.674s4.848,15.508,3.391,20.106,10.422,9.952,10.422,9.952h13.569s4.848-9.934,3.635-12.843-11.629-5.086-11.629-5.086-6.056,0-5.812-16.233Z" transform="translate(-420.454 -186.215)"/><path class="e" d="M772.791,226.865l-5.812,4.848s-.69-.809-1.719-2.118c2.112-.375,5.389-3.456,6.823-4.9C772.541,226.021,772.791,226.865,772.791,226.865Z" transform="translate(-384.469 -161.959)"/><path class="e" d="M949.609,224.169c-2.421,3.635-5.812,0-5.812,0s-.434-.648-1.047-1.7l.077-.244c1.57,1.124,6.454.167,7.18,0a3.224,3.224,0,0,1-.4,1.939Z" transform="translate(-456.379 -160.958)"/><path class="e" d="M879.312,421.24c-7.5,3.42-31.848-2.671-33.312-3.034a15.958,15.958,0,0,1,3.325-2.927l29.8,1.451a38.672,38.672,0,0,0,.184,4.509Z" transform="translate(-417.181 -239.172)"/><path class="x" d="M820.939,277.086s-5.812,1.939-14.05-5.574c0,0-18.44-18.173-19.63-22.533L772.983,224s-6.056,6.543-8.483,5.574l15.99,27.863s2.909,5.354,5.574,6.781c0,0,19.868,25.442,20.106,30.528s8.952,18.708,8.952,18.708,2.909,22.045-2.183,25.924c0,0,28.345,7.269,34.4,2.421,0,0-2.665-27.363,0-30.284,0,0,8.239-9.69,2.665-20.35,0,0-1.19-5.812,1.939-8.721s17.2-24.472,17.2-24.472,3.391-4.848,3.391-7.995c0,0,6.3-21.319,5.354-26.893,0,0-5.574,1.19-7.269,0,0,0-8.239,24.984-9.208,25.924S853.68,269.6,844.7,271.78s-10.416,3.147-10.416,3.147,17.441,10.9,8.964,15.746S820.939,277.086,820.939,277.086Z" transform="translate(-384.161 -161.303)"/><path class="e" d="M868.409,293.052a46.294,46.294,0,0,1-.351-6.882l-13.569,4.116a18.3,18.3,0,0,1,.851,2.784c1.552.684,3.646,2.3,5.449,2.3a12.355,12.355,0,0,0,7.62-2.32Z" transform="translate(-420.62 -186.863)"/><circle class="w" cx="12.599" cy="12.599" r="12.599" transform="translate(427.326 82.591)"/><path class="e" d="M832.2,246.5c-2.772.214-5.865,2.13-5.711,4.908.083,1.529,1.13,2.82,1.588,4.283,1.1,3.539-1.35,7.091-3.5,10.112s-4.164,7.025-2.32,10.225a25.225,25.225,0,0,0,1.7,2.219c2.278,3.075,2.249,7.227,3.26,10.921a19.16,19.16,0,0,0,22.509,13.682,11.98,11.98,0,0,1-2.528-8.1c.137-2.118.821-4.331,0-6.288-1.059-2.516-4.164-3.51-5.764-5.711s-1.493-5.253-.72-7.876,2.112-5.056,2.754-7.733a23.3,23.3,0,0,1,.595-2.314c1.118-3.176,4.461-5.021,7.733-5.812s6.71-.839,9.9-1.88,6.3-3.48,6.668-6.829c-2.689,1.077-5.181-1.731-7.775-3.022-4.271-2.118-9.143-.125-13.545.363C842.036,248.211,837.277,246.135,832.2,246.5Z" transform="translate(-407.268 -170.724)"/><path class="t" d="M831.793,245.694c-2.772.214-5.865,2.13-5.711,4.908.083,1.529,1.13,2.82,1.588,4.283,1.1,3.539-1.35,7.091-3.5,10.112s-4.164,7.025-2.32,10.225a25.216,25.216,0,0,0,1.7,2.219c2.278,3.075,2.249,7.227,3.26,10.921a19.16,19.16,0,0,0,22.509,13.682,11.98,11.98,0,0,1-2.528-8.1c.137-2.118.821-4.33,0-6.288-1.059-2.516-4.164-3.51-5.764-5.711s-1.493-5.253-.72-7.876,2.112-5.056,2.754-7.733a23.3,23.3,0,0,1,.595-2.314c1.118-3.176,4.461-5.021,7.733-5.812s6.71-.839,9.9-1.88,6.3-3.48,6.668-6.829c-2.689,1.077-5.181-1.731-7.775-3.022-4.271-2.118-9.143-.125-13.545.363C841.638,247.4,836.9,245.3,831.793,245.694Z" transform="translate(-407.102 -170.396)"/><path class="e" d="M885.65,326.3s5.044,4.5,6.038,6.49" transform="translate(-433.245 -203.122)"/><path class="e" d="M890.962,371.51s-6.3,0-9.208.726-9.934,0-9.934,0" transform="translate(-427.642 -221.439)"/><g class="g" transform="translate(380.333 61.76)"><path d="M890.744,325.956a6.058,6.058,0,0,1-1.743.666,6.662,6.662,0,0,0,4.652-.666c8.482-4.848-8.964-15.746-8.964-15.746H881.78S899.227,321.114,890.744,325.956Z" transform="translate(-812.01 -258.363)"/><path d="M953.1,223.49a2.547,2.547,0,0,0-.059-.44,28.466,28.466,0,0,1-3.016.458A13.36,13.36,0,0,0,953.1,223.49Z" transform="translate(-839.657 -223.05)"/><path d="M815.849,343.8c5.086-3.878,2.183-25.924,2.183-25.924s-8.72-13.569-8.964-18.655-20.106-30.528-20.106-30.528c-2.665-1.451-5.574-6.781-5.574-6.781s-16.477-26.893-18.9-27.863l15.99,27.863s2.909,5.354,5.574,6.781c0,0,19.868,25.442,20.106,30.528s8.958,18.672,8.958,18.672,2.909,22.045-2.183,25.924c0,0,17.423,4.467,27.869,4.063C830.334,347.512,815.849,343.8,815.849,343.8Z" transform="translate(-764.49 -227.507)"/><path d="M859.178,314.064l-.143-.184a3.836,3.836,0,0,1-.506.113C858.756,314.023,858.97,314.047,859.178,314.064Z" transform="translate(-802.59 -259.85)"/></g><g class="g" transform="translate(462.946 61.73)"><path d="M935.794,223l-.149.03c-.256,7.442-5.419,24.924-5.419,24.924,0,3.147-3.391,7.995-3.391,7.995s-14.05,21.563-17.2,24.472-1.939,8.721-1.939,8.721l.03.059c-.1-1.957.143-4.991,2.147-6.847,3.147-2.909,17.2-24.472,17.2-24.472s3.391-4.848,3.391-7.995C930.465,249.923,936.764,228.6,935.794,223Z" transform="translate(-905.029 -223)"/><path d="M903.37,359.144c.363,2.058.119-.119.244,1.939,0,0,5.948-6.978,4.325-15.6C908.426,353.189,903.37,359.144,903.37,359.144Z" transform="translate(-903.37 -272.623)"/></g><ellipse class="b" cx="254.4" cy="24.436" rx="254.4" ry="24.436" transform="translate(25.047 344.641)"/><path class="y" d="M426.788,634.051s-8.661-29.415,1.624-51.062a46.458,46.458,0,0,0,3.759-29.148,78.136,78.136,0,0,0-4.128-13.682" transform="translate(-245.955 -289.767)"/><path class="a" d="M433.075,512.394c0,3.6-6.543,14.056-6.543,14.056s-6.543-10.451-6.543-14.056a6.543,6.543,0,1,1,13.051,0Z" transform="translate(-244.575 -275.672)"/><path class="a" d="M451.176,543.6c-1.957,3.028-13.116,8.251-13.116,8.251s.2-12.319,2.159-15.347a6.543,6.543,0,1,1,10.957,7.1Z" transform="translate(-251.904 -286.918)"/><path class="a" d="M448.786,599.533c-3.218,1.624-15.466.5-15.466.5s6.395-10.535,9.613-12.159a6.543,6.543,0,1,1,5.877,11.653Z" transform="translate(-249.984 -308.721)"/><path class="a" d="M438.607,643.571c-2.9,2.141-15.187,3.111-15.187,3.111s4.521-11.463,7.424-13.61a6.543,6.543,0,0,1,7.733,10.493Z" transform="translate(-245.973 -327.025)"/><path class="a" d="M413.412,557.923c2.588,2.51,14.633,5.116,14.633,5.116s-2.974-11.962-5.538-14.479a6.543,6.543,0,1,0-9.1,9.363Z" transform="translate(-240.974 -292.284)"/><path class="a" d="M401.367,608.288c3.218,1.624,15.466.5,15.466.5s-6.371-10.535-9.589-12.129a6.543,6.543,0,0,0-5.877,11.653Z" transform="translate(-235.751 -312.455)"/><path class="a" d="M397.008,659.141c2.9,2.141,15.187,3.111,15.187,3.111s-4.521-11.463-7.424-13.61a6.543,6.543,0,1,0-7.733,10.493Z" transform="translate(-234.009 -333.053)"/><path class="b" d="M433.075,512.394c0,3.6-6.543,14.056-6.543,14.056s-6.543-10.451-6.543-14.056a6.543,6.543,0,1,1,13.051,0Z" transform="translate(-244.575 -275.672)"/><path class="b" d="M451.176,543.6c-1.957,3.028-13.116,8.251-13.116,8.251s.2-12.319,2.159-15.347a6.543,6.543,0,1,1,10.957,7.1Z" transform="translate(-251.904 -286.918)"/><path class="b" d="M448.786,599.533c-3.218,1.624-15.466.5-15.466.5s6.395-10.535,9.613-12.159a6.543,6.543,0,1,1,5.877,11.653Z" transform="translate(-249.984 -308.721)"/><path class="b" d="M438.607,643.571c-2.9,2.141-15.187,3.111-15.187,3.111s4.521-11.463,7.424-13.61a6.543,6.543,0,0,1,7.733,10.493Z" transform="translate(-245.973 -327.025)"/><path class="b" d="M413.412,557.923c2.588,2.51,14.633,5.116,14.633,5.116s-2.974-11.962-5.538-14.479a6.543,6.543,0,1,0-9.1,9.363Z" transform="translate(-240.974 -292.284)"/><path class="b" d="M401.367,608.288c3.218,1.624,15.466.5,15.466.5s-6.371-10.535-9.589-12.129a6.543,6.543,0,0,0-5.877,11.653Z" transform="translate(-235.751 -312.455)"/><path class="b" d="M397.008,659.141c2.9,2.141,15.187,3.111,15.187,3.111s-4.521-11.463-7.424-13.61a6.543,6.543,0,1,0-7.733,10.493Z" transform="translate(-234.009 -333.053)"/><path class="y" d="M721.428,634.761s-8.661-29.415,1.624-51.062a46.457,46.457,0,0,0,3.76-29.148,78.119,78.119,0,0,0-4.128-13.682" transform="translate(-365.329 -290.055)"/><path class="a" d="M727.707,513.752c0,3.6-6.543,14.056-6.543,14.056s-6.543-10.452-6.543-14.056a6.543,6.543,0,0,1,13.051,0Z" transform="translate(-363.952 -276.613)"/><path class="a" d="M745.826,544.3c-1.957,3.028-13.117,8.25-13.117,8.25s.2-12.319,2.159-15.347a6.543,6.543,0,1,1,10.957,7.1Z" transform="translate(-371.281 -287.202)"/><path class="a" d="M743.466,600.225c-3.218,1.624-15.466.5-15.466.5s6.395-10.535,9.613-12.159a6.543,6.543,0,1,1,5.853,11.659Z" transform="translate(-369.373 -308.996)"/><path class="a" d="M733.247,644.271c-2.9,2.142-15.187,3.111-15.187,3.111s4.521-11.463,7.424-13.61a6.543,6.543,0,0,1,7.733,10.493Z" transform="translate(-365.346 -327.308)"/><path class="a" d="M708.072,558.623c2.588,2.51,14.633,5.116,14.633,5.116s-2.974-11.962-5.538-14.479a6.543,6.543,0,1,0-9.1,9.363Z" transform="translate(-360.355 -292.568)"/><path class="a" d="M695.991,608.968c3.218,1.624,15.466.5,15.466.5s-6.395-10.535-9.613-12.159a6.543,6.543,0,0,0-5.877,11.653Z" transform="translate(-355.108 -312.718)"/><path class="a" d="M692.3,660.311c2.9,2.141,15.187,3.111,15.187,3.111s-4.521-11.463-7.424-13.61a6.543,6.543,0,0,0-7.733,10.493Z" transform="translate(-354.025 -333.807)"/><path class="b" d="M727.707,513.752c0,3.6-6.543,14.056-6.543,14.056s-6.543-10.452-6.543-14.056a6.543,6.543,0,0,1,13.051,0Z" transform="translate(-363.952 -276.613)"/><path class="b" d="M745.826,544.3c-1.957,3.028-13.117,8.25-13.117,8.25s.2-12.319,2.159-15.347a6.543,6.543,0,1,1,10.957,7.1Z" transform="translate(-371.281 -287.202)"/><path class="b" d="M743.466,600.225c-3.218,1.624-15.466.5-15.466.5s6.395-10.535,9.613-12.159a6.543,6.543,0,1,1,5.853,11.659Z" transform="translate(-369.373 -308.996)"/><path class="b" d="M733.247,644.271c-2.9,2.142-15.187,3.111-15.187,3.111s4.521-11.463,7.424-13.61a6.543,6.543,0,0,1,7.733,10.493Z" transform="translate(-365.346 -327.308)"/><path class="b" d="M708.072,558.623c2.588,2.51,14.633,5.116,14.633,5.116s-2.974-11.962-5.538-14.479a6.543,6.543,0,1,0-9.1,9.363Z" transform="translate(-360.355 -292.568)"/><path class="b" d="M695.991,608.968c3.218,1.624,15.466.5,15.466.5s-6.395-10.535-9.613-12.159a6.543,6.543,0,0,0-5.877,11.653Z" transform="translate(-355.108 -312.718)"/><path class="b" d="M692.3,660.311c2.9,2.141,15.187,3.111,15.187,3.111s-4.521-11.463-7.424-13.61a6.543,6.543,0,0,0-7.733,10.493Z" transform="translate(-354.025 -333.807)"/><path class="z" d="M768.941,130.987h-3.736a2.617,2.617,0,1,0,0-5.229h-30.29a2.617,2.617,0,0,0,0,5.229h3.736a2.617,2.617,0,0,0,0,5.229h-5.229a2.617,2.617,0,1,0,0,5.229h30.266a2.617,2.617,0,1,0,0-5.229h5.253a2.617,2.617,0,0,0,0-5.229Z" transform="translate(-370.459 -121.871)"/><path class="z" d="M480.951,157.478h-2.843a1.993,1.993,0,1,0,0-3.98H455.075a1.993,1.993,0,0,0,0,3.98h2.843a1.993,1.993,0,1,0,0,3.98h-3.98a1.993,1.993,0,1,0,0,3.98h23.033a1.993,1.993,0,1,0,0-3.98h3.98a1.993,1.993,0,0,0,0-3.98Z" transform="translate(-257.486 -133.11)"/><path class="aa" d="M174.655,634s10.41,20.433,1.927,31.61.773,41.639.773,41.639" transform="translate(-144.516 -327.787)"/><path class="a" d="M177.062,618.4a12.04,12.04,0,0,1-2.891,7.138,10.258,10.258,0,0,1,0-14.276A12.04,12.04,0,0,1,177.062,618.4Z" transform="translate(-143.818 -318.574)"/><path class="aa" d="M181.271,634s-10.41,20.433-1.927,31.61-.773,41.639-.773,41.639" transform="translate(-145.737 -327.787)"/><path class="a" d="M179.67,618.4a12.04,12.04,0,0,0,2.891,7.138,10.258,10.258,0,0,0,0-14.276A12.04,12.04,0,0,0,179.67,618.4Z" transform="translate(-147.217 -318.574)"/><path class="e" d="M179.67,618.4a12.04,12.04,0,0,0,2.891,7.138,10.258,10.258,0,0,0,0-14.276A12.04,12.04,0,0,0,179.67,618.4Z" transform="translate(-147.217 -318.574)"/><path class="aa" d="M190.875,634s10.41,20.433,1.927,31.61.773,41.639.773,41.639" transform="translate(-151.088 -327.787)"/><path class="a" d="M193.232,618.4a12.04,12.04,0,0,1-2.891,7.138,10.258,10.258,0,0,1,0-14.276A12.04,12.04,0,0,1,193.232,618.4Z" transform="translate(-150.369 -318.574)"/><path class="a" d="M189.651,645.918a12.019,12.019,0,0,1-7.031,3.135,10.242,10.242,0,0,1,9.892-10.273A12.145,12.145,0,0,1,189.651,645.918Z" transform="translate(-148.413 -329.723)"/><path class="a" d="M190.111,669.618a12.019,12.019,0,0,1-7.031,3.135,10.242,10.242,0,0,1,9.892-10.273A12.01,12.01,0,0,1,190.111,669.618Z" transform="translate(-148.599 -339.325)"/><path class="a" d="M165.328,685.132a12.012,12.012,0,0,1,2.492,7.281,10.245,10.245,0,0,1-9.351-10.773A12.015,12.015,0,0,1,165.328,685.132Z" transform="translate(-138.628 -347.088)"/><path class="a" d="M168.863,635.9a12.016,12.016,0,0,1,4.348,6.353,10.24,10.24,0,0,1-11.891-7.882A11.894,11.894,0,0,1,168.863,635.9Z" transform="translate(-139.783 -327.897)"/><path class="e" d="M168.863,635.9a12.016,12.016,0,0,1,4.348,6.353,10.24,10.24,0,0,1-11.891-7.882A11.894,11.894,0,0,1,168.863,635.9Z" transform="translate(-139.783 -327.897)"/><path class="aa" d="M197.471,634s-10.41,20.433-1.927,31.61-.773,41.639-.773,41.639" transform="translate(-152.3 -327.787)"/><path class="a" d="M195.87,618.4a12.04,12.04,0,0,0,2.891,7.138,10.258,10.258,0,0,0,0-14.276A12.04,12.04,0,0,0,195.87,618.4Z" transform="translate(-153.781 -318.574)"/><path class="e" d="M195.87,618.4a12.04,12.04,0,0,0,2.891,7.138,10.258,10.258,0,0,0,0-14.276A12.04,12.04,0,0,0,195.87,618.4Z" transform="translate(-153.781 -318.574)"/><path class="a" d="M195.244,649.212a12.182,12.182,0,0,0-2.974,7.138,12,12,0,0,0,7.067-3.052,12.182,12.182,0,0,0,2.974-7.138A12,12,0,0,0,195.244,649.212Z" transform="translate(-152.322 -332.713)"/><path class="e" d="M195.244,649.212a12.182,12.182,0,0,0-2.974,7.138,12,12,0,0,0,7.067-3.052,12.182,12.182,0,0,0,2.974-7.138A12,12,0,0,0,195.244,649.212Z" transform="translate(-152.322 -332.713)"/><path class="a" d="M204.354,682.022a12.182,12.182,0,0,0-2.974,7.138,12,12,0,0,0,7.067-3.052,12.182,12.182,0,0,0,2.974-7.138A11.963,11.963,0,0,0,204.354,682.022Z" transform="translate(-156.013 -346.006)"/><path class="aa" d="M193,670s6.264-9.875,15.062-10.112" transform="translate(-152.618 -338.276)"/><path class="aa" d="M174.512,659.972s-6.264-9.875-15.062-10.112" transform="translate(-139.025 -334.212)"/><path class="aa" d="M183.4,683.672s6.264-9.874,15.062-10.112" transform="translate(-148.729 -343.814)"/><circle class="a" cx="1.624" cy="1.624" r="1.624" transform="translate(53.516 319.937)"/><circle class="a" cx="1.624" cy="1.624" r="1.624" transform="translate(18.956 314.107)"/><path class="aa" d="M180.892,689.112S174.628,679.238,165.83,679" transform="translate(-141.61 -346.018)"/><circle class="a" cx="1.624" cy="1.624" r="1.624" transform="translate(22.751 331.453)"/><circle class="a" cx="1.624" cy="1.624" r="1.624" transform="translate(48.228 328.205)"/><path class="ab" d="M209,727.047s-15.1-3.022-19.13-7.049-22.14-11.07-24.157-6.038-27.179,22.146-10.065,25.168,40.265,4.027,45.3,2.011S209,727.047,209,727.047Z" transform="translate(-135.083 -359.475)"/><path class="ac" d="M155.655,747.285c17.114,3.022,40.265,4.027,45.3,2.011,3.831-1.535,6.5-8.923,7.549-12.325l.506.107s-3.022,12.081-8.054,14.092-28.184,1.005-45.3-2.011c-4.937-.874-6.353-2.921-5.818-5.508C150.254,745.316,151.979,746.636,155.655,747.285Z" transform="translate(-135.088 -369.505)"/><path class="a" d="M1010.59,641.78s4.985,6.543-2.3,16.358-13.295,18.149-10.862,24.288c0,0,10.993-18.28,19.939-18.536S1020.434,652.767,1010.59,641.78Z" transform="translate(-478.308 -330.939)"/><path class="e" d="M1010.782,641.78a8.071,8.071,0,0,1,1.017,2.046c8.732,10.255,13.378,19.826,4.991,20.07-7.816.226-17.191,14.2-19.44,17.733a7.583,7.583,0,0,0,.268.8s10.993-18.28,19.939-18.536S1020.626,652.767,1010.782,641.78Z" transform="translate(-478.5 -330.939)"/><path class="ad" d="M1034.7,654.747c0,2.3-.256,4.164-.595,4.164s-.595-1.862-.595-4.164.321-1.19.636-1.19S1034.7,652.457,1034.7,654.747Z" transform="translate(-493.15 -335.601)"/><path class="ad" d="M1038.183,659.28c-2.017,1.1-3.771,1.785-3.92,1.481s1.356-1.4,3.373-2.492,1.219-.3,1.374,0S1040.194,658.18,1038.183,659.28Z" transform="translate(-493.451 -337.392)"/><path class="a" d="M968.05,641.78s-4.985,6.543,2.3,16.358,13.295,18.149,10.862,24.288c0,0-10.993-18.28-19.939-18.536S958.205,652.767,968.05,641.78Z" transform="translate(-462.097 -330.939)"/><path class="e" d="M968.05,641.78a8.078,8.078,0,0,0-1.017,2.046c-8.732,10.255-13.378,19.826-4.991,20.07,7.816.226,17.191,14.2,19.44,17.733a7.569,7.569,0,0,1-.268.8s-10.993-18.28-19.939-18.536S958.205,652.767,968.05,641.78Z" transform="translate(-462.097 -330.939)"/><path class="ad" d="M960.09,654.747c0,2.3.256,4.164.595,4.164s.595-1.862.595-4.164-.321-1.19-.637-1.19S960.09,652.457,960.09,654.747Z" transform="translate(-463.404 -335.601)"/><path class="ad" d="M953.9,659.28c2.017,1.1,3.771,1.785,3.92,1.481s-1.356-1.4-3.373-2.492-1.219-.3-1.374,0S951.886,658.18,953.9,659.28Z" transform="translate(-460.399 -337.392)"/><path class="ab" d="M962.76,703.543s13.937-.428,18.137-3.42,21.415-6.543,22.479-1.785,20.945,23.859,5.211,23.984-36.56-2.451-40.753-5S962.76,703.543,962.76,703.543Z" transform="translate(-464.486 -352.912)"/><path class="ac" d="M1008.867,725.794c-15.734.125-36.56-2.451-40.753-5-3.194-1.945-4.467-8.923-4.89-12.141h-.464s.88,11.243,5.074,13.795,25.019,5.134,40.753,5c4.545-.036,6.109-1.654,6.026-4.045C1013.983,724.86,1012.275,725.764,1008.867,725.794Z" transform="translate(-464.486 -358.031)"/><path class="z" d="M277.067,190.317h-3.736a2.617,2.617,0,1,0,0-5.229H243.065a2.617,2.617,0,0,0,0,5.229H246.8a2.617,2.617,0,0,0,0,5.229h-5.229a2.617,2.617,0,0,0,0,5.229h30.266a2.617,2.617,0,1,0,0-5.229h5.229a2.617,2.617,0,0,0,0-5.229Z" transform="translate(-171.287 -145.909)"/></g></svg>