<svg xmlns="http://www.w3.org/2000/svg" width="638" height="599.483" viewBox="0 0 638 599.483"><defs><style>.a{fill:#f2f2f2;}.b{fill:none;stroke:#3f3d56;stroke-miterlimit:10;}.c{fill:#57b894;}.d{fill:#656380;}.e{opacity:0.2;}.f{fill:#862124;}.g{fill:#a0616a;}.h{fill:#575a89;}.i{fill:#3f3d56;}.j{opacity:0.1;}</style></defs><g transform="translate(-89.104)"><path class="a" d="M321.941,628.881s270.508-225.763,426.3,0" transform="translate(-184.857 -164.652)"/><ellipse class="a" cx="125.288" cy="19.525" rx="125.288" ry="19.525" transform="translate(455.688 560.432)"/><ellipse class="b" cx="125.288" cy="19.525" rx="125.288" ry="19.525" transform="translate(476.027 553.11)"/><path class="c" d="M956.14,531.209a12.634,12.634,0,1,0,1.682-24.229l.316,6.5-3.076-5.573a12.585,12.585,0,0,0-6.485,7.116,12.389,12.389,0,0,0-.727,3.417A12.631,12.631,0,0,0,956.14,531.209Z" transform="translate(-301.546 -160.58)"/><path class="b" d="M976.213,604.139c-1.086-5.53,3.62-10.433,8.268-13.619s10.08-6.318,11.666-11.726c2.279-7.772-4.51-14.89-9.795-21.028a76.06,76.06,0,0,1-10.03-14.907,20.52,20.52,0,0,1-2.4-6.778c-.417-3.445.69-6.873,1.805-10.159q5.572-16.421,11.915-32.567" transform="translate(-306.396 -158.092)"/><path class="b" d="M956.779,529.151a12.634,12.634,0,1,0,1.682-24.229l.316,6.5-3.076-5.573a12.586,12.586,0,0,0-6.485,7.116,12.39,12.39,0,0,0-.727,3.417A12.631,12.631,0,0,0,956.779,529.151Z" transform="translate(-301.665 -160.196)"/><path class="c" d="M974.686,488.687a12.619,12.619,0,0,1,9.093-8.011l1.04,6.182,1.928-6.492a12.632,12.632,0,1,1-12.062,8.322Z" transform="translate(-306.414 -155.67)"/><path class="b" d="M975.539,485.943a12.619,12.619,0,0,1,9.093-8.011l1.04,6.182,1.928-6.492a12.632,12.632,0,1,1-12.062,8.322Z" transform="translate(-306.573 -155.158)"/><path class="c" d="M984.586,567.063a12.632,12.632,0,0,0,11.181-22.473l-1.482,4.989-1.051-6.255-.032-.012a12.633,12.633,0,1,0-8.616,23.751Z" transform="translate(-306.848 -167.264)"/><path class="b" d="M985.324,564.284a12.632,12.632,0,0,0,11.181-22.474l-1.482,4.989-1.051-6.255a.217.217,0,0,0-.032-.012,12.633,12.633,0,0,0-8.616,23.751Z" transform="translate(-306.986 -166.746)"/><path class="c" d="M970.283,595.073a12.627,12.627,0,1,0,2.435-9.893l5.629,8.472-7.691-4.5a12.515,12.515,0,0,0-.372,5.917Z" transform="translate(-305.698 -174.294)"/><path class="b" d="M970.923,593.015a12.627,12.627,0,1,0,2.435-9.893l5.629,8.472-7.691-4.5A12.515,12.515,0,0,0,970.923,593.015Z" transform="translate(-305.817 -173.911)"/><path class="d" d="M955.2,636.431s11.148-4.369,14.508-6.761,17.149-5.249,17.982-1.412,16.754,19.083,4.167,19.185-29.245,2.065-32.6.022S955.2,636.431,955.2,636.431Z" transform="translate(-302.922 -182.893)"/><path class="e" d="M992.078,648.406c-12.586.1-29.245,2.065-32.6.022-2.554-1.556-3.571-7.137-3.912-9.713l-.372.014s.706,8.991,4.059,11.034,20.012.079,32.6-.022c3.633-.029,4.888-1.322,4.819-3.236C996.17,647.662,994.787,648.384,992.078,648.406Z" transform="translate(-302.921 -185.193)"/><rect class="f" width="48.814" height="128.542" rx="11.851" transform="translate(129.356 336.093)"/><rect class="f" width="48.814" height="205.83" rx="11.851" transform="translate(222.102 258.805)"/><rect class="f" width="48.814" height="259.525" rx="11.851" transform="translate(314.847 205.11)"/><rect class="f" width="48.814" height="310.78" rx="11.851" transform="translate(407.593 153.856)"/><rect class="f" width="48.814" height="400.271" rx="11.851" transform="translate(500.339 64.364)"/><rect class="b" width="48.814" height="128.542" rx="11.851" transform="translate(135.864 329.585)"/><rect class="b" width="48.814" height="205.83" rx="11.851" transform="translate(228.61 252.297)"/><rect class="b" width="48.814" height="259.525" rx="11.851" transform="translate(321.356 198.602)"/><rect class="b" width="48.814" height="310.78" rx="11.851" transform="translate(414.102 147.347)"/><rect class="b" width="48.814" height="400.271" rx="11.851" transform="translate(506.847 57.856)"/><line class="b" x1="611.371" transform="translate(89.104 465.042)"/><path class="g" d="M958.051,556.951s7.656,27.563-2.042,31.646-6.635-30.625-6.635-30.625Z" transform="translate(-301.75 -169.949)"/><path class="h" d="M869.585,773.976s-7.146-.51-9.7,1.021a6.16,6.16,0,0,1-5.1.51s-11.229-1.021-7.146,4.594,8.166,7.657,8.166,10.208,16.844,2.552,17.354,0,1.021-15.823,0-16.333S869.585,773.976,869.585,773.976Z" transform="translate(-282.701 -210.368)"/><path class="h" d="M897.079,773.976s7.146-.51,9.7,1.021a6.159,6.159,0,0,0,5.1.51s11.229-1.021,7.146,4.594-8.167,7.656-8.167,10.208-16.844,2.552-17.354,0-1.021-15.823,0-16.333S897.079,773.976,897.079,773.976Z" transform="translate(-291.31 -210.369)"/><path class="i" d="M848.6,548.7s-3.573,80.646-1.531,84.73,9.188,72.99,8.167,77.073-6.125,20.927,0,23.479,19.4,0,19.4,0,3.573-20.417,2.042-31.136-2.042-55.636-2.042-55.636l10.208-46.959,3.573,44.406s1.021,60.74-6.125,72.99S884.841,735,884.841,735s19.4,2.552,21.438,2.042-1.531-20.417,0-29.094,5.1-57.167,8.167-68.907,20.417-77.073,7.656-90.344S848.6,548.7,848.6,548.7Z" transform="translate(-282.645 -167.31)"/><circle class="g" cx="17.865" cy="17.865" r="17.865" transform="translate(585.353 182.835)"/><path class="g" d="M878.584,337.641s3.063,24.5,1.531,25.011,27.052,0,27.052,0-5.615-14.8,0-26.542Z" transform="translate(-288.638 -128.775)"/><path class="a" d="M878.584,361.212s12.44-12.25,27.147,0l.952,3.652L899,364.785H878.584Z" transform="translate(-288.638 -132.44)"/><path class="h" d="M930.784,518.754c-1.179.235-4.068.714-7.835,1.286-12.541,1.894-34.765,4.762-35.551,2.8-1.021-2.552-4.594-11.74-7.146-7.656s-1.021,7.656-11.74,8.167c-7.294.347-17.9-.725-23.765-2.409-2.756-.791-4.471-1.715-4.308-2.7.51-3.062,6.125-61.25,6.125-66.865s2.042-32.667,2.042-32.667l-14.669-28.864-1.154-2.271s1.531-5.615,6.125-6.635,26.542-13.781,26.542-13.781,4.594-7.146,13.271-6.635,10.719-3.063,22.458,6.635c0,0,14.292,6.125,19.4,9.188s10.719,3.063,11.229,8.167c.1,1.026-.454,3-1.409,5.5-3.5,9.147-12.332,25.332-13.715,27.854l-.189.337s-.265,9.177.015,19.922v.026c.276,10.305,1.052,22.05,3.047,28.543C923.639,479.961,935.889,517.733,930.784,518.754Z" transform="translate(-280.099 -133.282)"/><path class="i" d="M912.666,313.686a12.169,12.169,0,0,0-2.019-4.512,24.376,24.376,0,0,0-3.639-10.5,11.015,11.015,0,0,0-3.26-3.763,9.625,9.625,0,0,0-5.129-1.279c-.326-.005-.911.093-1.439.117-.337-.1-.678-.2-1.019-.285-.2-.443-.594-1.735-.7-1.648L893.967,293c-.629-.109-1.262-.195-1.9-.262l-.694-1.978a13.542,13.542,0,0,0-.983,1.848q-.948-.046-1.9-.033l-1.265-1.215a1.784,1.784,0,0,1-1.4,1.367c-.582.06-1.162.138-1.74.231h-.141c-3.115-.078-6.468-.217-9.073,1.493a8.941,8.941,0,0,0-2.888,3.278c-.319.217-.639.432-.949.662a10.372,10.372,0,0,0-2.672,2.649,11.231,11.231,0,0,0-1.183,2.865,27.468,27.468,0,0,0-1.361,9.383,13.927,13.927,0,0,0,3.424,8.69c1.336,1.436,3.035,2.5,4.373,3.93,2.755,2.952,3.271,7.07,5.628,10.194,2.492,3.3,7.041,5.479,11.036,6.1a18.435,18.435,0,0,0,13.733-3.425,8.5,8.5,0,0,0,2.338-2.452c1.387-2.4.8-5.413,1.314-8.135C908.639,323.092,913.509,318.81,912.666,313.686Z" transform="translate(-286.257 -120.32)"/><path class="g" d="M837.592,558.833s7.656,27.563-2.042,31.646-6.635-30.625-6.635-30.625Z" transform="translate(-279.292 -170.299)"/><path class="j" d="M847.845,465.523s-3.348,49.694-2.833,61.669c-2.756-.791-4.471-1.715-4.308-2.7.51-3.062,6.125-61.25,6.125-66.865s2.042-32.667,2.042-32.667L834.2,396.1c.235-1.429.378-2.271.378-2.271l7.4,15.568,10.464,2.807Z" transform="translate(-280.363 -139.536)"/><path class="h" d="M834.2,390.065l-3.573,3.063s-4.594,27.052-4.083,33.688S815.822,534,824.5,534s18.375-1.531,16.844-5.1,2.549-64.078,2.549-64.078l4.6-53.318Z" transform="translate(-277.938 -138.834)"/><path class="j" d="M949.623,395.211c-3.5,9.147-12.332,25.332-13.715,27.854.041-6.528.066-11.148.066-11.148l10.719-21.948,2.3-1.786S949.236,390.883,949.623,395.211Z" transform="translate(-299.325 -138.483)"/><path class="j" d="M949.874,536.6c-1.179.235-4.068.715-7.835,1.286-1.955-14.455-7.182-56.024-6.85-59.939.163-1.929.3-11.464.408-21.953.276,10.305,1.052,22.05,3.047,28.543C942.729,497.8,954.979,535.576,949.874,536.6Z" transform="translate(-299.188 -151.126)"/><path class="h" d="M943.215,385.673l7.656,2.042s5.1,56.656,5.615,66.354,6.635,69.417,5.615,71.969-16.844,6.125-17.354,3.573-7.93-60.139-7.538-64.778-2.16-52.618-2.16-52.618Z" transform="translate(-299.165 -138.015)"/><path class="b" d="M196.5,282.415l92.746-77.288L382.8,152.246l92.746-51.254L568.3,11.5" transform="translate(-36.636 -2.051)"/><circle class="a" cx="8.949" cy="8.949" r="8.949" transform="translate(148.475 275.483)"/><circle class="a" cx="8.949" cy="8.949" r="8.949" transform="translate(241.22 198.195)"/><circle class="a" cx="8.949" cy="8.949" r="8.949" transform="translate(334.78 145.314)"/><circle class="a" cx="8.949" cy="8.949" r="8.949" transform="translate(427.525 94.059)"/><circle class="a" cx="8.949" cy="8.949" r="8.949" transform="translate(520.271 4.568)"/><circle class="b" cx="8.949" cy="8.949" r="8.949" transform="translate(150.915 271.415)"/><circle class="b" cx="8.949" cy="8.949" r="8.949" transform="translate(243.661 194.127)"/><circle class="b" cx="8.949" cy="8.949" r="8.949" transform="translate(337.22 141.246)"/><circle class="b" cx="8.949" cy="8.949" r="8.949" transform="translate(429.966 89.992)"/><circle class="b" cx="8.949" cy="8.949" r="8.949" transform="translate(522.712 0.5)"/></g></svg>