<svg xmlns="http://www.w3.org/2000/svg" width="525" height="322.92" viewBox="0 0 525 322.92"><defs><style>.a,.d{fill:#8b181b;}.a,.e{opacity:0.1;}.b,.h{opacity:0.2;}.c{fill:#3f3d56;}.f{fill:#f1c0c0;}.g{fill:#be6f72;}.i{fill:#fed253;}.j{fill:#fbbebe;}</style></defs><g transform="translate(0.02 0)"><path class="a" d="M536.07,295.163a107.585,107.585,0,0,1-3.151,25.959q-1.061,4.292-2.465,8.406a99.275,99.275,0,0,1-3.976,9.949q-1.137,2.46-2.4,4.823a64.883,64.883,0,0,1-5.425,26.071,67.212,67.212,0,0,1-32.619,33.608,68.612,68.612,0,0,1-29.12,6.686H110.74a87.221,87.221,0,0,1-43.869-11.727l-.205-.116q-2.848-1.667-5.554-3.53a87.106,87.106,0,0,1-11.4-9.4,84.819,84.819,0,0,1-12.529-15.525,82.844,82.844,0,0,1-12.743-44.23A104.305,104.305,0,0,1,11.07,274.49c0-24.07,7.827-46.026,20.686-62.648a88.073,88.073,0,0,1,8.785-9.775,81.756,81.756,0,0,1,10.047-8.224A78.177,78.177,0,0,1,59.5,188.5c1.288-.655,2.581-1.275,3.9-1.85,1.154-.513,2.322-.99,3.5-1.44q2.126-.807,4.306-1.484t4.3-1.186q3.12-.762,6.347-1.239c1.783-.263,3.566-.446,5.349-.584,1.417-.107,2.848-.165,4.288-.183h.78c1.587,0,3.165.062,4.729.169.165-.33.343-.664.508-.99.624-1.19,1.27-2.376,1.921-3.535a.112.112,0,0,1,0-.031c.111-.205.223-.406.339-.6.526-.949,1.074-1.89,1.636-2.821.259-.446.513-.865.776-1.284a3.414,3.414,0,0,1,.183-.3q.4-.669.816-1.337,2.064-3.3,4.292-6.481l.379-.544c.232-.33.446-.651.7-.981.615-.86,1.248-1.725,1.885-2.572.446-.606.891-1.208,1.373-1.783q1.738-2.229,3.566-4.457t3.8-4.4c.178-.2.357-.4.544-.593l1.9-2.077h0c.094-.1.174-.187.263-.276h0c.227-.245.446-.49.691-.727,1.021-1.083,2.068-2.144,3.12-3.2a169.915,169.915,0,0,1,17.072-14.874c.236-.187.477-.365.713-.544,1.132-.851,2.282-1.694,3.432-2.523a180.66,180.66,0,0,1,19.795-12.347c.472-.272.954-.526,1.44-.776a188.986,188.986,0,0,1,18.939-8.719c3.526-1.4,7.132-2.706,10.76-3.9,2.416-.793,4.841-1.547,7.3-2.255q5.759-1.658,11.6-2.973a206.528,206.528,0,0,1,34.874-4.751q5.349-.272,10.818-.281a207.267,207.267,0,0,1,52.151,6.6,1.881,1.881,0,0,0,1.618.842h1.5c.651.178,1.3.357,1.948.544q5.451,1.569,10.747,3.428l.892.321a191.862,191.862,0,0,1,25.367,11.143,183.057,183.057,0,0,1,21.239,13.122q1.565,1.123,3.084,2.264,1.845-1.181,3.753-2.264a73.822,73.822,0,0,1,15.547-6.628,70.916,70.916,0,0,1,34.874-1.364A77.167,77.167,0,0,1,474.225,137.8a91.173,91.173,0,0,1,11.718,14.878c.245.383.49.771.727,1.163a98.069,98.069,0,0,1,7.462,14.874c.076.192.152.37.218.557a103,103,0,0,1,4.591,14.865c.053.258.116.513.169.771a107.049,107.049,0,0,1,2.193,14.874,2.886,2.886,0,0,0,.036.548q.281,3.882.285,7.845c0,2.362-.08,4.707-.227,7.034,0,.254-.036.517-.058.78-.04.673-.1,1.337-.156,2.015a84.589,84.589,0,0,1,9.53,8.99q1.948,2.126,3.771,4.413a93.884,93.884,0,0,1,9.717,14.874A104.384,104.384,0,0,1,536.07,295.163Z" transform="translate(-11.09 -87.76)"/><path class="a" d="M554.837,772.926c0,3.044-10.488,5.9-28.79,8.349H179.874a87.221,87.221,0,0,1-43.869-11.727l-.205-.116c5.26-1.917,14.754-3.7,27.675-5.318h0l.579-.071c5.794-.709,12.271-1.382,19.349-2.019a4.4,4.4,0,0,0,.539-.049h0q8.424-.749,17.923-1.4c.2,0,.4-.036.6-.045q3.664-.263,7.479-.5h0l.981-.062c18.52-1.15,39.572-2.068,62.4-2.674h.027q4.8-.133,9.695-.236,5.447-.129,11.027-.227c2.839-.062,5.714-.107,8.6-.152h.067c13.011-.2,26.454-.294,40.2-.294,33.992,0,66.12.62,94.589,1.734h.08c4.377.169,8.674.357,12.864.548l3.566.169q7.091.339,13.818.727h0C520.587,762.558,554.837,767.43,554.837,772.926Z" transform="translate(-80.224 -458.355)"/><g class="b" transform="translate(276.944 176.058)"><path class="c" d="M679.525,743.85a8.49,8.49,0,0,1-.165,1.431q-4.654-.74-9.361-1.337v-.383a7.526,7.526,0,0,1,1.114-3.78,4.147,4.147,0,0,1,7.546.232A7.52,7.52,0,0,1,679.525,743.85Z" transform="translate(-653.259 -623.93)"/><ellipse class="c" cx="6.245" cy="4.769" rx="6.245" ry="4.769" transform="matrix(0.032, -1, 1, 0.032, 16.793, 118.246)"/><ellipse class="c" cx="6.245" cy="4.769" rx="6.245" ry="4.769" transform="matrix(0.032, -1, 1, 0.032, 17.036, 110.615)"/><ellipse class="c" cx="6.245" cy="4.769" rx="6.245" ry="4.769" transform="matrix(0.032, -1, 1, 0.032, 17.275, 102.984)"/><ellipse class="c" cx="6.245" cy="4.769" rx="6.245" ry="4.769" transform="matrix(0.032, -1, 1, 0.032, 17.513, 95.353)"/><path class="d" d="M638.694,519.209A22.149,22.149,0,0,1,637,516.535l12.6-1.663-13.559-.325a22.9,22.9,0,0,1,.138-18.115l17.883,10.007-16.381-12.855A22.857,22.857,0,1,1,674.6,520.328a22.654,22.654,0,0,1,2.474,4.248l-16.532,7.934,17.531-5.273a22.884,22.884,0,0,1-4.377,21.355,22.857,22.857,0,1,1-35.908-1.132,22.857,22.857,0,0,1,.891-28.25Z" transform="translate(-632.44 -482.747)"/><path class="e" d="M679.046,598.669a22.732,22.732,0,0,1-5.349,13.969,22.857,22.857,0,1,1-35.908-1.132C634.861,607.526,679.126,596.106,679.046,598.669Z" transform="translate(-632.44 -546.793)"/></g><g class="b" transform="translate(209.193 176.058)"><path class="c" d="M527.525,743.85a8.466,8.466,0,0,1-.165,1.431q-4.653-.74-9.36-1.337v-.383a7.523,7.523,0,0,1,1.114-3.78,4.147,4.147,0,0,1,7.546.232A7.52,7.52,0,0,1,527.525,743.85Z" transform="translate(-501.259 -623.93)"/><ellipse class="c" cx="6.245" cy="4.769" rx="6.245" ry="4.769" transform="matrix(0.032, -1, 1, 0.032, 16.788, 118.248)"/><ellipse class="c" cx="6.245" cy="4.769" rx="6.245" ry="4.769" transform="matrix(0.032, -1, 1, 0.032, 17.031, 110.617)"/><ellipse class="c" cx="6.245" cy="4.769" rx="6.245" ry="4.769" transform="matrix(0.032, -1, 1, 0.032, 17.269, 102.986)"/><ellipse class="c" cx="6.245" cy="4.769" rx="6.245" ry="4.769" transform="matrix(0.032, -1, 1, 0.032, 17.508, 95.355)"/><path class="d" d="M486.694,519.209A22.126,22.126,0,0,1,485,516.535l12.6-1.663-13.559-.325a22.9,22.9,0,0,1,.138-18.115l17.883,10.007-16.381-12.855A22.857,22.857,0,1,1,522.6,520.328a22.647,22.647,0,0,1,2.474,4.248l-16.532,7.934,17.531-5.273a22.884,22.884,0,0,1-4.377,21.355,22.857,22.857,0,1,1-35.908-1.132,22.857,22.857,0,0,1,.891-28.25Z" transform="translate(-480.44 -482.747)"/><path class="e" d="M527.046,598.669a22.732,22.732,0,0,1-5.349,13.969,22.857,22.857,0,1,1-35.908-1.132C482.861,607.526,527.126,596.106,527.046,598.669Z" transform="translate(-480.44 -546.793)"/></g><g class="b" transform="translate(369.989 70.071)"><path class="c" d="M931.723,747.406a16.608,16.608,0,0,1-.325,2.71q-8.959-1.43-18.048-2.558v-.735a14.487,14.487,0,0,1,2.148-7.279c1.783-2.795,4.457-4.547,7.412-4.458s5.527,2.01,7.132,4.9a14.5,14.5,0,0,1,1.68,7.417Z" transform="translate(-881.184 -516.622)"/><ellipse class="c" cx="12.026" cy="9.187" rx="12.026" ry="9.187" transform="matrix(0.032, -1, 1, 0.032, 32.282, 227.551)"/><ellipse class="c" cx="12.026" cy="9.187" rx="12.026" ry="9.187" transform="matrix(0.032, -1, 1, 0.032, 32.745, 212.859)"/><ellipse class="c" cx="12.026" cy="9.187" rx="12.026" ry="9.187" transform="matrix(0.032, -1, 1, 0.032, 33.213, 198.168)"/><ellipse class="c" cx="12.031" cy="9.191" rx="12.031" ry="9.191" transform="matrix(0.03, -1, 1, 0.03, 33.162, 182.841)"/><path class="d" d="M853.191,315.081a44.253,44.253,0,0,1-3.258-5.139l24.248-3.2-26.1-.628a44.082,44.082,0,0,1,.259-34.874l34.433,19.26-31.531-24.747a44,44,0,1,1,71.081,51.509,44,44,0,0,1,4.765,8.179l-31.83,15.284,33.746-10.163a44.016,44.016,0,0,1-8.393,41.074,44,44,0,1,1-69.133-2.18,44.016,44.016,0,0,1,1.712-54.379Z" transform="translate(-841.186 -244.965)"/><path class="e" d="M930.9,467.942a43.832,43.832,0,0,1-10.252,26.9,44,44,0,1,1-69.133-2.18C845.841,484.987,931.061,463.008,930.9,467.942Z" transform="translate(-841.208 -368.158)"/></g><path class="f" d="M157.82,320.136l4.676-.013h6.592l8.335-135.4L259.968,46.974l-3.588-3.851V33.37L167.109,181.527Z" transform="translate(-87.486 -18.496)"/><path class="e" d="M169.43,332.25h6.093l8.335-135.4L266.4,59.1l-3.588-3.851L177.672,194.782Z" transform="translate(-93.921 -30.624)"/><path class="f" d="M126.91,667.487l213.884,16.367.183.013,206.993-12.73.156-.009v-8.741L320.045,658.2l-190.287-.183h-1.391l-.152.981Z" transform="translate(-70.353 -364.72)"/><path class="e" d="M126.91,667.487l213.884,16.367.183.013,206.993-12.73.156-.17v-8.4h-.183l-207.149,6.918L129.758,658.02h-.031l-.374.245-1.137.735Z" transform="translate(-70.353 -364.72)"/><path class="e" d="M126.91,667.792,340.794,684.16V669.793L129.353,658.57l-1.137.735Z" transform="translate(-70.353 -365.025)"/><path class="f" d="M378.88,43.067l94.294,101.208L470.259,322.3l8.01.967.134.018h8.01l.958-171.366L663.939,210.9l2.977,105.014,6.445.722,2.184.245-5.055-113.265-184.577-64.8L384.706,33.6H378.88Z" transform="translate(-210.012 -18.624)"/><path class="e" d="M620.65,291.7l.726,3.276,176.568,58.979,2.978,105.014,6.445.722-5.055-107.921Z" transform="translate(-344.018 -161.68)"/><path class="e" d="M378.88,43.067l94.294,101.208L470.259,322.3l8.01.967,2.184-184.818L378.88,33.6Z" transform="translate(-210.012 -18.624)"/><path class="f" d="M621.42,437.612l64.76,12.752.022,0,113.425,22.345,5.193-2.082-.018-.366-.339-7.243L621.487,426.05Z" transform="translate(-344.445 -236.146)"/><path class="e" d="M766.76,480.61l113.425,22.345,5.193-2.082-.018-.365Z" transform="translate(-425.002 -266.387)"/><path class="f" d="M776.49,350.56l1.752,96.43.9,49.472,7.974-.267,5.019-.169-1.56-144.069-3.459-1.15-.758-.245Z" transform="translate(-430.395 -194.305)"/><path class="e" d="M776.65,350.51v.022l1.68,96.429.9,49.472,7.974-.267V350.51Z" transform="translate(-430.484 -194.277)"/><path class="c" d="M491,485.936a10.168,10.168,0,0,1,1.337.869,8.844,8.844,0,0,1,1.337,1.466c1.912,2.474,3.677,5.349,3.49,8.469a3.446,3.446,0,0,1-.994,2.451,4.455,4.455,0,0,1-2.955.7,6.291,6.291,0,0,1-3.276-.579c-.972-.579-1.783-1.707-2.933-1.68a1.5,1.5,0,0,1-.49,0c-.4-.129-.477-.651-.735-.981-.446-.593-1.386-.446-2.086-.187a3.024,3.024,0,0,1-2.166.348,2.251,2.251,0,0,1-.94-.94c-1.654-2.674-2.006-5.888-2.318-8.995-.192-1.89-1.654-8.335,2.38-6.869a33.451,33.451,0,0,1,5.072,2.866Z" transform="translate(-269.817 -305.054)"/><path class="c" d="M497.39,491.981a1.988,1.988,0,0,0,2.447-.1,3.686,3.686,0,0,0,1.19-2.309c.446-.138.673.446.958.8.5.606,1.515.6,1.97,1.244.317.446.245,1.065.468,1.569.29.651,1.007.99,1.5,1.516a5.16,5.16,0,0,1,.981,1.957l.731,2.193a10.842,10.842,0,0,1,.669,2.839,3.678,3.678,0,0,1-.847,2.715c-.981,1.056-2.59,1.168-4.012,1.137a5.166,5.166,0,0,1-1.409-.165,4,4,0,0,1-2.4-2.942,37.163,37.163,0,0,1-.495-3.931,15.409,15.409,0,0,0-1.114-3.735c-.392-.927-1.471-2.309-1.453-3.294C496.891,491.478,497.123,491.772,497.39,491.981Z" transform="translate(-280.187 -310.462)"/><path class="g" d="M494.439,477.725a7.358,7.358,0,0,1-.361-1.957,8.518,8.518,0,0,1,1.226-3.789l-5.095.691a2.256,2.256,0,0,0-1.649.722,1.783,1.783,0,0,0,0,1.645,8.4,8.4,0,0,1,.606,1.591,7.948,7.948,0,0,0,.165,1.431,3.032,3.032,0,0,0,.655.923,30.9,30.9,0,0,1,3.637,5.4c-.031-.054,3.071-2.456,2.946-3.24-.071-.446-.967-.981-1.252-1.409A7.168,7.168,0,0,1,494.439,477.725Z" transform="translate(-275.636 -300.721)"/><path class="f" d="M473.838,358.04v4.391l-75.182,14.664-3.9,2.362H381.3v-2.474l73.867-17.847Z" transform="translate(-211.354 -198.45)"/><path class="e" d="M473.838,367.89l-75.182,14.665-3.9,2.362H381.3l74.415-15.926Z" transform="translate(-211.354 -203.91)"/><path class="d" d="M449.01,722.788a5.826,5.826,0,0,0-7.087-1.507,1.868,1.868,0,0,0-.651.508c-.446.624-.16,1.484-.12,2.255.1,1.881-1.4,3.41-2.741,4.725a6.484,6.484,0,0,0-1.783,2.416,2.264,2.264,0,0,0,.789,2.674,3.287,3.287,0,0,0,1.221.339,13.176,13.176,0,0,0,4.324.12,4.684,4.684,0,0,0,3.432-2.389,2.517,2.517,0,0,1,.575-.949c.784-.62,1.988.107,2.879-.334.735-.365.767-.941.776-1.7A9.834,9.834,0,0,0,449.01,722.788Z" transform="translate(-246.886 -438.563)"/><path class="d" d="M476.581,718.619a14.676,14.676,0,0,1,.7,4.56,4.4,4.4,0,0,1-.415,2.6,3.551,3.551,0,0,1-2.322,1.337,5.325,5.325,0,0,1-5.211-1.453,5.5,5.5,0,0,1-.94-4.136c.143-1.2.446-2.6-.415-3.454-.223-.227-.513-.388-.718-.633a2.124,2.124,0,0,1-.134-2.033,8.828,8.828,0,0,0,.7-2.01c.036-.33,6.035.232,6.588.5.753.37.637.989.865,1.738C475.591,716.68,476.2,717.62,476.581,718.619Z" transform="translate(-263.76 -434.474)"/><path class="c" d="M455.075,579.867a4.952,4.952,0,0,1,1.814,3.651c.5,3.811-.379,7.662-.446,11.509-.062,5.389,1.5,10.876.165,16.1-.8,3.12-.12,6.686-.869,9.837-.223.936-.633,1.819-.847,2.755a12.018,12.018,0,0,0,.651,6.133,6.336,6.336,0,0,1,.379,1.662,5.982,5.982,0,0,1-.651,2.514l-2.674,6.325c-.3.709-1.475.825-2.229.918-1.417.169-3,.29-4.128-.588s-1.4-2.349-1.573-3.722a57.069,57.069,0,0,1-.446-7.947,6.546,6.546,0,0,0-.183-2.064,18.082,18.082,0,0,1-.932-2.229c-.187-1.043.343-2.068.539-3.12a9.4,9.4,0,0,0-.045-2.893q-.261-2.14-.6-4.27a18.923,18.923,0,0,1,.446-5.928A16.342,16.342,0,0,0,443,602.88a15.507,15.507,0,0,1-.557,4.457c-.236.709-.575,1.386-.78,2.108-.914,3.241,1.034,6.642.758,10-.129,1.569-.744,3.12-.571,4.667a15.752,15.752,0,0,0,1.007,3.25,4.212,4.212,0,0,1,0,3.321c-1.449,2.737-.365,6.459.932,9.267a12.521,12.521,0,0,1,.686,1.542c.383,1.266.062,2.625.165,3.945a2.487,2.487,0,0,1-2.09-.629c-.2-.2-.357-.446-.548-.66a5.44,5.44,0,0,0-1.863-1.163,2.447,2.447,0,0,0-1.337-.308,2.675,2.675,0,0,0-1.27.789,12.433,12.433,0,0,1-1.4,1.065,1.657,1.657,0,0,1-.713.317.629.629,0,0,1-.655-.334.8.8,0,0,1-.049-.232,35.272,35.272,0,0,1-.263-4.056c0-2.331-2.79-3.936-3.142-6.24-.281-1.859.241-3.753.067-5.625a27.366,27.366,0,0,1-.334-2.871c0-.624.143-1.235.192-1.854a13.865,13.865,0,0,0-.031-2.064l-.138-2.153a18.6,18.6,0,0,0-1.119-6.24,21.206,21.206,0,0,1-1.738-7.167c-.089-1.56-.031-3.12-.209-4.685a23.058,23.058,0,0,1-.414-4.234c.085-1.1.446-2.157.53-3.254.174-2.108-.628-4.159-1.257-6.178s-1.092-4.257-.267-6.2a2.037,2.037,0,0,1,.571-.829,2.487,2.487,0,0,1,1.052-.392,81.616,81.616,0,0,1,23.276-1.484A7.731,7.731,0,0,1,455.075,579.867Z" transform="translate(-241.153 -359.756)"/><circle class="g" cx="7.141" cy="7.141" r="7.141" transform="translate(181.477 158.489)"/><path class="g" d="M427.755,470.658a2.549,2.549,0,0,1,0,1.244,2.816,2.816,0,0,1-.468.784A20.142,20.142,0,0,1,425,475.173a4.142,4.142,0,0,0,2.135,2.108,12.4,12.4,0,0,0,2.946.842,4.154,4.154,0,0,0,1.551.107,4.112,4.112,0,0,0,1.337-.606l3.967-2.376a7.919,7.919,0,0,0,1.649-1.19,4.061,4.061,0,0,0,1.15-2.79.767.767,0,0,0-.143-.526.936.936,0,0,0-.544-.227,4.834,4.834,0,0,1-3.12-2.723,14.422,14.422,0,0,1-1.083-4.132l-4.23,2.229c-.628.334-1.252.669-1.9.958-.414.187-1.253.343-1.547.722C426.6,468.269,427.608,469.816,427.755,470.658Z" transform="translate(-240.518 -296.11)"/><path class="c" d="M423.215,480.923a4.7,4.7,0,0,0-1.368,1.85,4.82,4.82,0,0,0,.25,2.715,80.981,80.981,0,0,1,2.674,11.5c.374,2.674.513,5.389.7,8.094.374,5.518.918,14.317,1.645,19.8,2.674.12,5.282-.66,7.934-.945,4.956-.526,10.06.677,14.914-.446-1.177-4.649-2.353-12.587-3.53-17.232a32.887,32.887,0,0,1-1.079-5.594c-.1-1.359-.04-2.723-.022-4.092.04-2.674-.107-5.349-.254-8.023A50.9,50.9,0,0,0,444,479.251a1.729,1.729,0,0,0-.517-1.021,2.093,2.093,0,0,0-1.556-.138A6.767,6.767,0,0,1,437.3,477c-.588-.4-1.377-.891-1.925-.446a1.916,1.916,0,0,0-.446.949,4.747,4.747,0,0,1-2.79,2.75,13.966,13.966,0,0,1-3.949.811,1.939,1.939,0,0,1-1.226-.138c-.633-.388-.678-1.783-1.475-1.877C424.784,478.966,423.688,480.473,423.215,480.923Z" transform="translate(-238.707 -303.156)"/><path class="d" d="M423.924,492.175c-1.645-1.573-2.367-3.856-3.566-5.795a12.9,12.9,0,0,0-3.08-3.388,9.187,9.187,0,0,1-1.676-1.422c-.424-.522-.744-1.217-1.386-1.417a1.676,1.676,0,0,0-1.5.414,14.778,14.778,0,0,0-1.114,1.186c-1.89,1.957-5.211,2.229-6.708,4.493a3.682,3.682,0,0,0-.8,1.672,12.953,12.953,0,0,0,2.38,9.316,3.164,3.164,0,0,0,1.649,1.337,5.161,5.161,0,0,0,.321,2.452,65.567,65.567,0,0,0,3.035,8.268,20.012,20.012,0,0,0-.6,3.2c-.312,2.723-.022,5.487-.316,8.215-.241,2.229-.891,4.4-.914,6.633,0,.357.031.78.339.963a1.025,1.025,0,0,0,.531.111l5.482.165a44.5,44.5,0,0,0,9.53-.4,3.97,3.97,0,0,0,1.2-.379c1.061-.593,1.413-1.93,1.582-3.12a27.192,27.192,0,0,0,.263-4.662c.664,2.1,1.453,4.27,3.459,5.179a7.76,7.76,0,0,0,3.437.415,64.72,64.72,0,0,0,7.484-.771.985.985,0,0,0,1.092-1.146l.027-2.434c.054-4.943-1.172-9.668-1.649-14.589a31.706,31.706,0,0,0-.517-4.64c-.156-.637-.383-1.261-.522-1.9a13.621,13.621,0,0,1-.223-1.9l-.348-4.9c-.165-2.269-.4-4.457-.575-6.722a32.537,32.537,0,0,0-.954-6.534c-.388-1.337-1.195-2.853-2.59-3.018a5.337,5.337,0,0,0-2.175.468,8.789,8.789,0,0,1-5.349-.022,7.533,7.533,0,0,0-1.667-.446,1.636,1.636,0,0,0-1.524.633,2.286,2.286,0,0,0-.236,1.123A59.455,59.455,0,0,1,423.924,492.175Z" transform="translate(-228.87 -303.524)"/><path class="c" d="M417.247,503.152a27.062,27.062,0,0,0-6.811-5.75,5.44,5.44,0,0,0-3.383-.749,2.533,2.533,0,0,0-2.175,2.38,15.381,15.381,0,0,0,.615,2.082,21.871,21.871,0,0,0,.178,2.434,4.119,4.119,0,0,0,.891,1.368l3.156,3.74a20.314,20.314,0,0,0,4.395,4.221,6.607,6.607,0,0,0,5.839.816,7.176,7.176,0,0,0,3.2-2.937c.785-1.248,1.337-2.612,2.073-3.9a19.366,19.366,0,0,1,4.457-5.407,4.952,4.952,0,0,1-2.674-1.337,4.42,4.42,0,0,1-.424-.767l-.722-1.56a1.783,1.783,0,0,0-1.337.5,11.23,11.23,0,0,1-.994,1.012c-.629.472-1.48.6-2.05,1.141a5.428,5.428,0,0,0-.6.749,5,5,0,0,1-3.637,1.961Z" transform="translate(-229.364 -314.367)"/><path class="g" d="M455,474.633c1.547-2.821,1.475-6.2,1.917-9.392a4.288,4.288,0,0,1,.851-2.331c.891-1.007,2.465-1.021,3.811-.891.4.045.892.232.869.629a.8.8,0,0,1-.2.379,10.6,10.6,0,0,0-2.2,5.848c.7.486,1.783-.513,2.456,0,.446.374.241,1.114-.027,1.649q-.932,1.859-1.921,3.691a11.85,11.85,0,0,1-2.037,2.937c-.566.544-1.23.972-1.805,1.507-1.337,1.253-2.144,3.022-3.526,4.243a.722.722,0,0,1-.446.227.748.748,0,0,1-.468-.209,6.757,6.757,0,0,1-1.685-2.037c-.526-.972-.446-1.257.383-1.943A14.733,14.733,0,0,0,455,474.633Z" transform="translate(-254.517 -295.169)"/><path class="d" d="M416.435,499.588c.267.165.6.352.891.214a.927.927,0,0,0,.3-.29,10.491,10.491,0,0,0,1.266-2.2.845.845,0,0,0,.094-.356c0-.285-.254-.495-.49-.66a18.17,18.17,0,0,0-4.052-1.926,8.36,8.36,0,0,0-3.655-.722,3.485,3.485,0,0,0-2.438,1.239c-.891,1.145.6,1.493,1.538,1.908C412.054,497.778,414.4,498.348,416.435,499.588Z" transform="translate(-231.138 -312.719)"/><path class="e" d="M423.671,518.971a.655.655,0,0,0,.187.562c.129-.633-.04-1.3.094-1.939.2-.958,1.128-1.68,1.208-2.643C423.453,514.617,423.685,517.937,423.671,518.971Z" transform="translate(-239.778 -324.526)"/><path class="h" d="M565.692,358.04v4.391l-18.123,1.1-.548-4.395Z" transform="translate(-303.207 -198.45)"/><path class="c" d="M417.152,448.616c1.132-.923.477-2.857,1.244-4.1a3.98,3.98,0,0,1,1.939-1.337,8.822,8.822,0,0,1,2.831-.784,3.285,3.285,0,0,1,2.674.985c.29.33.486.731.758,1.074a2.9,2.9,0,0,0,2.808.972c.593-.134,1.208-.584,1.168-1.19a1.68,1.68,0,0,0-.535-.954l-1.275-1.413c-1.449-1.6-3.058-3.307-5.184-3.708a8.892,8.892,0,0,0-4.422.593c-.575.192-1.221.477-1.382,1.061-.107.4.053.838-.04,1.244-.183.807-1.217,1.079-1.7,1.756s-.334,1.48-.473,2.229a19.5,19.5,0,0,0-.588,2.255c-.031.468.205,1.337.731,1.507S416.826,448.059,417.152,448.616Z" transform="translate(-234.961 -281.926)"/><path class="i" d="M429.669,439.046a13.374,13.374,0,0,0-2.371-5.42,9.5,9.5,0,0,0-4.221-3.352,6.045,6.045,0,0,0-5.255.415A7.632,7.632,0,0,0,415.2,434c-1.154,2.487-1.582,5.527-.241,7.916.535-.651,1.453-.357,2.264-.593a23.605,23.605,0,0,0,2.844-1.391C422.983,438.645,426.549,439.688,429.669,439.046Z" transform="translate(-234.49 -277.375)"/><path class="e" d="M417.365,447.161a2.723,2.723,0,0,1,.4-2.3.29.29,0,0,1,.236-.107.307.307,0,0,1,.183.16,9.983,9.983,0,0,1,.838,1.64,1.7,1.7,0,0,0-1.783.691" transform="translate(-236.217 -285.628)"/><path class="e" d="M440.63,442.325l-.16-1.591a.728.728,0,0,1,.031-.392.5.5,0,0,1,.651-.178,1.337,1.337,0,0,1,.521.522,9.361,9.361,0,0,1,.918,1.814,5.392,5.392,0,0,0-2.171.027" transform="translate(-249.065 -283.056)"/><path class="e" d="M414.844,502.21v3.637l-3.071.2H395.62V502.21Z" transform="translate(-219.291 -278.359)"/><path class="f" d="M351.336,423.676v3.842H332.112L281.04,363.542V360.52h10.706Z" transform="translate(-155.783 -199.825)"/><path class="e" d="M351.336,423.676v3.842H332.112L281.04,363.542V360.52h10.706Z" transform="translate(-155.783 -199.825)"/><path class="e" d="M351.336,423.676v3.842H332.112L281.04,363.542V360.52l51.348,63.156Z" transform="translate(-155.783 -199.825)"/><path class="d" d="M300.528,730.079a1.337,1.337,0,0,1-1.168,1.573,7.945,7.945,0,0,0-3.432,1.783c-.878.949-1.052,2.71,0,3.481a3.383,3.383,0,0,0,1.783.486,12.079,12.079,0,0,0,5.955-.745c1.31-.606,2.545-1.64,3.985-1.547.744.044,1.538.392,2.2.053s.851-1.284.856-2.073a15.347,15.347,0,0,0-.735-4.854,19.471,19.471,0,0,0-3.24-.446l-3.437-.446c-.651-.085-2.055-.575-2.567-.031S300.528,729.433,300.528,730.079Z" transform="translate(-168.576 -442.106)"/><path class="d" d="M353.012,700.639a10.77,10.77,0,0,0,.7,2.336,5.438,5.438,0,0,0,2.255,3.089,4.026,4.026,0,0,0,3.441-.165,2.836,2.836,0,0,0,1.146-.869,3.45,3.45,0,0,0,.446-2,10.933,10.933,0,0,0-.891-5.041c-.678-1.337-1.859-2.487-1.877-3.967l-4.061.784a1.161,1.161,0,0,0-.6.236,1.03,1.03,0,0,0-.259.486A13.269,13.269,0,0,0,353.012,700.639Z" transform="translate(-200.552 -423.791)"/><path class="d" d="M244.275,604.716a6.635,6.635,0,0,0,.651,4.212,3.26,3.26,0,0,0,3.691,1.565.54.54,0,0,0,.334-.254.629.629,0,0,0-.058-.446,6.579,6.579,0,0,1,.138-4.957c.089-.205.281-.446.49-.365a.445.445,0,0,1,.2.205,2.331,2.331,0,0,1,.312,1.23,4.573,4.573,0,0,0-.036,1.181c.085.383.495.744.851.579a.892.892,0,0,0,.406-.575c.994-2.875.544-6.017.089-9.026a.472.472,0,0,0-.53-.495c-2.1-.209-3.254-.713-4.457,1.244A12.218,12.218,0,0,0,244.275,604.716Z" transform="translate(-140.306 -370.213)"/><path class="c" d="M297.943,595.868a27.333,27.333,0,0,0-.918,12.846l.468,3.86c.16,1.3.316,2.6.544,3.887a10.318,10.318,0,0,1,.236,2.019,10.812,10.812,0,0,1-.316,1.984,23.176,23.176,0,0,0-.468,4.145c-.049,2.229.227,4.457.4,6.686a74.456,74.456,0,0,1-.156,13.336,5,5,0,0,0,.731,3.436,4.423,4.423,0,0,1,.646,1.061c.334,1.021-.446,2.042-.646,3.089a3.12,3.12,0,0,0,2.594,3.566c3.566.423,7.23.232,10.443,1.863.339-.99-.4-2.113-.062-3.12.214-.624.8-1.029,1.2-1.556a4.528,4.528,0,0,0,.767-2.719,9.935,9.935,0,0,0-.66-3.686,7.972,7.972,0,0,1-.892-3,3.79,3.79,0,0,0-.027-1.538,2.4,2.4,0,0,0-.575-.718,9.062,9.062,0,0,1-2.331-5.282,24.329,24.329,0,0,1,.187-5.857,9.949,9.949,0,0,1,1.685-5.233,33.578,33.578,0,0,1,.94-13.038c.116-.392.3-.847.7-.941a1,1,0,0,1,.856.339,5.843,5.843,0,0,1,1.337,2.514,5.482,5.482,0,0,1,.419,3.044c-.107.446-.321.838-.446,1.266a3.753,3.753,0,0,0,.134,2.616,2.516,2.516,0,0,1,.321.985,2.726,2.726,0,0,1-.267.856,3.94,3.94,0,0,0,.37,3.187,11.536,11.536,0,0,0,2.082,2.554,9.36,9.36,0,0,0,.29,5.153.651.651,0,0,1,.058.495c-.08.169-.285.232-.446.352-.446.366-.169,1.056.129,1.533a35.141,35.141,0,0,0,2.706,3.753c.891,1.066.811,3.12,2.139,3.5a4.014,4.014,0,0,0,1.694,0c1.31-.2,2.772-.579,3.414-1.739a4.677,4.677,0,0,1,.78-1.413c.41-.357.941-.419,1.168-.847s-.027-.99.049-1.484.508-.891.646-1.413c.33-1.2-1.074-2.193-1.266-3.423-.276-1.783,1.97-3.12,1.877-4.9-.2-3.873-.321-7.765-.522-11.638a83.916,83.916,0,0,1-.107-10.426c.156-2.162.446-4.426-.348-6.437-1.141-2.835-4.288-4.426-7.332-4.729s-6.08.419-9.1.891A57.493,57.493,0,0,1,297.943,595.868Z" transform="translate(-169.378 -368.679)"/><circle class="j" cx="7.141" cy="7.141" r="7.141" transform="translate(130.472 170.305)"/><path class="j" d="M309.636,499.283a3.044,3.044,0,0,1-2.911,1.841,3.59,3.59,0,0,0,1.07,2.991,12.694,12.694,0,0,0,12.151,4.168,6,6,0,0,0,2.394-1,5.308,5.308,0,0,0,1.828-3.165,15.732,15.732,0,0,0,.174-3.722.963.963,0,0,0-.2-.686.981.981,0,0,0-.624-.205,10.822,10.822,0,0,1-4.4-.932c-1.324-.74-2.264-2.411-1.627-3.784a15.986,15.986,0,0,1-3.049.361c-1.074.152-2.148.321-3.218.517a5.848,5.848,0,0,0-1.511.285c-.646.334-.406.169-.254.776A3.687,3.687,0,0,1,309.636,499.283Z" transform="translate(-174.929 -313.364)"/><path class="c" d="M282.769,508.147a11.823,11.823,0,0,1-2.857-.316,4.012,4.012,0,0,1-2.345-1.565c-.33-.5-.544-1.128-1.07-1.409-.86-.446-1.841.308-2.527,1a9.183,9.183,0,0,1-2.148,1.729c-.954.5-2.068.682-2.969,1.275a7.46,7.46,0,0,0-1.783,1.926l-6.316,8.6c-2.536,3.459-4.743,7.172-7,10.823-1.957,3.16-2.982,6.8-4.457,10.207a1.141,1.141,0,0,0-.138.687c.053.232.334.419.53.285-.664.66-.08,1.783-.236,2.71a3.325,3.325,0,0,1-1.061,1.663,8.381,8.381,0,0,1,2.942.138,9.014,9.014,0,0,1,2.781,1.337c.539-.085.49-1.043.891-1.4.241-.21.6-.183.914-.245,1.19-.232,1.663-1.662,2.576-2.469.762-.673,1.841-.891,2.648-1.525,1.31-1.03,1.591-2.862,2.278-4.381.584-1.288,1.5-2.411,2.015-3.731a16.076,16.076,0,0,1,.972-2.572,7.364,7.364,0,0,1,3.566-2.563,5.906,5.906,0,0,1,2.714-.727,25.208,25.208,0,0,0,.138,6.138c.156.713.374,1.408.562,2.117a39.875,39.875,0,0,1,1.092,9.806,29.832,29.832,0,0,1,6.24-.749c1.654-.049,3.3.165,4.957.134,1.961-.036,3.9-.414,5.861-.548a10.95,10.95,0,0,1,5.745.891,54.586,54.586,0,0,1,.236-8.469l.472-4.43a27.232,27.232,0,0,1,.593-3.824c.258-1.016.633-2,.918-3.009,1-3.566.82-7.372.628-11.085a13.973,13.973,0,0,0-1.7-5.482,14.835,14.835,0,0,0-1.07-1.819,10.533,10.533,0,0,0-9.209-4.324,1.865,1.865,0,0,0-.66.143,2.2,2.2,0,0,0-.842,1A10.92,10.92,0,0,1,282.769,508.147Z" transform="translate(-142.629 -317.887)"/><path class="c" d="M303.042,477.512c.2-.446.74-.611,1.07-.967.633-.677.348-1.761.446-2.674a3.841,3.841,0,0,1,2.541-2.933,8.209,8.209,0,0,1,4.012-.254,3.881,3.881,0,0,1,1.81.6c.232.169.446.388.664.544a1.783,1.783,0,0,0,2.425-.566c-1.578-1.9-3.325-3.9-5.723-4.488a11.736,11.736,0,0,0-2.5-.236,8.122,8.122,0,0,0-3.281.383,5.469,5.469,0,0,0-2.879,3.325,16.166,16.166,0,0,0-.7,4.457,16.78,16.78,0,0,0,0,3.031,8.381,8.381,0,0,0,1.489,3.82,1.155,1.155,0,0,0,.446.415C304.892,482.861,302.877,477.882,303.042,477.512Z" transform="translate(-171.709 -297.7)"/><path class="i" d="M313.93,464.468c-.245-2.1-1.743-3.833-3.334-5.229a12.292,12.292,0,0,0-4.48-2.7,5.985,5.985,0,0,0-5.055.615,7.766,7.766,0,0,0-2.46,3.383,10.649,10.649,0,0,0-1.074,4.9,5.286,5.286,0,0,0,2.394,4.243,4.5,4.5,0,0,1,2.318-1.493,113.473,113.473,0,0,1,11.691-3.726Z" transform="translate(-169.862 -292.006)"/><path class="e" d="M303.4,472.72c.143,0,.236.147.308.267a11.3,11.3,0,0,1,.932,1.783c-.521.111-1.417.236-1.676-.223C302.822,474.315,302.987,472.7,303.4,472.72Z" transform="translate(-172.849 -301.131)"/><path class="e" d="M326.5,467.723c-.107.1-.232-.107-.232-.259v-1.729a.254.254,0,0,1,.031-.138.209.209,0,0,1,.147-.071c.361-.04.66.267.891.562a9.407,9.407,0,0,1,.914,1.52l-1.885-.058" transform="translate(-185.795 -297.142)"/><path class="c" d="M361.824,520.463a11.653,11.653,0,0,1,1.31-1.074,19.761,19.761,0,0,1,4.114-1.676,5.429,5.429,0,0,0,3.334-2.759,6.553,6.553,0,0,0,.258-2.674,2.674,2.674,0,0,0-.2-1.1,2.188,2.188,0,0,0-.7-.767c-1.881-1.391-4.4-1.5-6.739-1.359a42.243,42.243,0,0,0-14.892,3.717,1.293,1.293,0,0,0-.624.446,1.275,1.275,0,0,0-.12.62,10.253,10.253,0,0,0,.5,3.882c.615,1.587,1.881,2.866,2.411,4.484.241.726.321,1.5.53,2.229a3.12,3.12,0,0,0,1.253,1.863c1.761,1.052,3.423-.361,4.645-1.458Z" transform="translate(-197.587 -321.243)"/><path class="d" d="M307.988,522.1l-2.26-4.93a17.245,17.245,0,0,1-.856-2.108c-.259-.86-.383-1.752-.624-2.616-.793-2.879-2.795-5.278-3.771-8.1a1.537,1.537,0,0,0-.366-.682,1.19,1.19,0,0,0-.994-.178c-1.364.236-2.429,1.275-3.677,1.863-.579.267-1.2.446-1.783.753a2.229,2.229,0,0,0-1.195,1.422,3.477,3.477,0,0,0,.486,2,22.6,22.6,0,0,1,1.542,8.79c.04,2.015-.062,4.176-1.252,5.794-2.287,3.12-.825,7.7.031,11.478.1.446.223.927.294,1.4a12.869,12.869,0,0,1,.1,1.783,13.952,13.952,0,0,1-.949,5.879,6.58,6.58,0,0,0,2.674.758q3.882.495,7.8.7a8.5,8.5,0,0,0,2.447-.125,4.457,4.457,0,0,0,3.294-4.368,5.51,5.51,0,0,0,1.3,3.432,5.185,5.185,0,0,0,3.419,1.052,63.572,63.572,0,0,0,10.3-.29,1.781,1.781,0,0,0,.633-.147c.66-.33.7-1.239.642-1.97-.1-1.368-.2-2.737-.366-4.1a16.755,16.755,0,0,1-.214-2.621,15.065,15.065,0,0,1,.446-2.674,30.334,30.334,0,0,0,.869-8.469,14.29,14.29,0,0,1-.085-2.091c.116-1.573.945-3.071.789-4.636-.446-4.6-.807-9.32-2.091-13.76a3.566,3.566,0,0,0-1.217-2.1c-.891-.6-2.144-.285-3.165-.664a7.921,7.921,0,0,1-1.36-.807,6.241,6.241,0,0,0-3.071-.945,2.607,2.607,0,0,0-2.229.811,3.236,3.236,0,0,0-.446,1.217c-.646,2.719-1.4,5.407-2.162,8.094l-.727,2.576-1.948,6.918C308.055,521.178,308.184,521.405,307.988,522.1Z" transform="translate(-166.809 -316.708)"/><path class="f" d="M331.749,400.25l43.116,45.309V449.4H355.64l-32.4-42.286" transform="translate(-179.173 -221.846)"/><path class="e" d="M331.749,400.25l43.116,45.309V449.4H355.64l-32.4-42.286" transform="translate(-179.173 -221.846)"/><path class="e" d="M323.926,414.31l.138.049,31.852,38.993h18.948v3.842H355.64l-32.4-42.286Z" transform="translate(-179.173 -229.639)"/><path class="d" d="M342.213,501.894c-1.56.682-3.294,1.556-3.762,3.2a1.6,1.6,0,0,0,1.578,2.144,5.349,5.349,0,0,0,2.144-.392l9.2-3.04c.25-.08.535-.2.6-.446a.767.767,0,0,0-.089-.446c-.285-.7-.566-2.117-1.163-2.6-.49-.392-1.462-.254-2.055-.245A16.664,16.664,0,0,0,342.213,501.894Z" transform="translate(-192.498 -316.269)"/><path class="c" d="M362.966,503.006a14.807,14.807,0,0,1,4.569.709,8.14,8.14,0,0,1,3.784,2.585,2.837,2.837,0,0,1,.6,1.168c.089.446,1.542.713,1.221,1.016.976-.156.745.3,1.734.294a3.276,3.276,0,0,0,2.652-1.052,3.446,3.446,0,0,0,.522-2.18,3.716,3.716,0,0,0-.294-1.542,4.554,4.554,0,0,0-2.416-1.872l-7.961-3.642a5.285,5.285,0,0,0-1.471-.522,5.5,5.5,0,0,0-1.3.031l-3.606.414a5.407,5.407,0,0,1,2.465,4.756" transform="translate(-205.045 -315.113)"/></g></svg>