<svg xmlns="http://www.w3.org/2000/svg" xmlns:xlink="http://www.w3.org/1999/xlink" width="638" height="390.713" viewBox="0 0 638 390.713"><defs><style>.a{opacity:0.5;}.b{fill:url(#a);}.c,.k{fill:#fff;}.d{fill:#862124;}.e{fill:url(#b);}.f{fill:#fda57d;}.g,.i{opacity:0.05;}.h{fill:#ff0;}.j{fill:#4d8af0;}.k{opacity:0.1;}.l{fill:#e0e0e0;}.m{fill:url(#d);}.n{fill:#4d4545;}.o{fill:#235067;}.p{fill:url(#f);}.q{fill:#3ad29f;}</style><linearGradient id="a" x1="0.5" y1="1" x2="0.5" gradientUnits="objectBoundingBox"><stop offset="0" stop-color="gray" stop-opacity="0.251"/><stop offset="0.54" stop-color="gray" stop-opacity="0.122"/><stop offset="1" stop-color="gray" stop-opacity="0.102"/></linearGradient><linearGradient id="b" x1="0" y1="0.5" x2="1" y2="0.5" xlink:href="#a"/><linearGradient id="d" x1="0" y1="0.5" x2="1" y2="0.5" xlink:href="#a"/><linearGradient id="f" x1="0" y1="0.5" x2="1" y2="0.5" xlink:href="#a"/></defs><g class="a" transform="translate(380.677)"><rect class="b" width="257.323" height="252.151"/></g><rect class="c" width="254.74" height="248.271" transform="translate(381.969 1.94)"/><g class="a" transform="translate(407.832 22.555)"><rect class="d" width="203.014" height="157.603"/></g><g class="a" transform="translate(468.676 40.608)"><path class="e" d="M932.948,278.042a23.793,23.793,0,0,0-7.076-16.511c-3.986-3.915-9.346-8.409-15.155-11.127h-.035a25.652,25.652,0,0,0-7.807-2.359V238.4a21.643,21.643,0,0,0,4.829-6.268h0v.772s9.252-9.346,9.04-20.314c.136-6.587-3.031-13.834-13.651-20.049-24.66-14.388-34.107,6.534-35.905,11.375a3.241,3.241,0,0,0-.259.737l-.071.224h0a2.577,2.577,0,0,0,0,.684h0v.071h0a2.832,2.832,0,0,0,0,.366c0,1.616,1.374,3.1,3.7,4.316a21.57,21.57,0,0,0,10.756,32.35v6.192l-.478-.9s-3.3,1.975-7.548,5.006h0c-7.123,5.077-16.936,13.12-18.41,19.766-2.359,10.614,0,55.536,0,55.536l79.052,1.179Zm-24.395-46.791Zm-.79.867Zm.059-.065.029-.029Zm.118-.124Zm-40.982-25.946Zm.106.348v.035Zm.147.348v.047Zm.189.342.035.059Zm.23.336.047.065Zm.271.33.065.071Zm.313.324.077.077Zm2.677,1.769.083.041h0Zm-2.323-1.468.094.083Zm.389.313.112.083Zm.43.3.13.088Zm.466.295.153.088Zm.5.283.171.094Z" transform="translate(-853.832 -187.566)"/></g><rect class="f" width="20.987" height="30.781" transform="translate(496.501 91.736)"/><path class="g" d="M902.2,279.648c2.193.778,3.137,1.4,5.6,1.4a20.888,20.888,0,0,0,14-5.38l0-.216H902.2Z" transform="translate(-405.003 -183.018)"/><circle class="f" cx="20.987" cy="20.987" r="20.987" transform="translate(482.508 55.359)"/><circle class="h" transform="translate(484.608 70.048)"/><path class="h" d="M880.84,237.49" transform="translate(-396.238 -167.442)"/><ellipse cx="18.758" cy="7.129" rx="18.758" ry="7.129" transform="translate(482.426 52.629)"/><path d="M899.658,210.679l17.254,10.5v12.973s22.508-22.75-4.5-38.5S877.15,207.66,877.15,207.66,884.651,213.681,899.658,210.679Z" transform="translate(-394.724 -148.291)"/><ellipse class="f" cx="2.099" cy="3.497" rx="2.099" ry="3.497" transform="translate(520.884 72.849)"/><g class="i" transform="translate(482.467 60.07)"><path d="M916.941,233.39,905.454,226.4a44.055,44.055,0,0,1-9.494.985c-10.083,0-18.28-3.025-18.734-6.817v.065h0a2.76,2.76,0,0,0,0,.354c0,3.939,8.4,7.129,18.758,7.129a44.056,44.056,0,0,0,9.523-.985l11.481,6.988Z" transform="translate(-877.22 -220.57)"/><path d="M944.58,251.117v.749s8.993-9.093,8.786-19.766C953.154,242.443,944.58,251.117,944.58,251.117Z" transform="translate(-904.86 -225.301)"/></g><path class="j" d="M881.936,290.45s-22.962,13.775-25.256,24.106,0,54.038,0,54.038l76.917,1.15-.979-50.016a23.157,23.157,0,0,0-6.9-16.069c-5.743-5.643-14.429-12.536-23.121-13.209l-10.331,19.518Z" transform="translate(-385.907 -189.173)"/><path class="g" d="M880.219,330.1s-6,31.506-.749,41.277" transform="translate(-394.792 -205.443)"/><path class="g" d="M956,330.1s6,31.506.749,41.277" transform="translate(-427.078 -205.443)"/><path class="c" d="M841.02,171.737l21.8-.307-14.294,36.318Z" transform="translate(-345.091 -70.342)"/><path class="c" d="M841.02,168.14v2.247h21.759l.041-2.247Z" transform="translate(-345.091 -68.992)"/><rect width="3.001" height="3.001" transform="translate(504.934 99.148)"/><path class="j" d="M837.889,171.95l-4.5,4.505,9.753,16.617Z" transform="translate(-341.96 -70.555)"/><path class="j" d="M871.421,174.5l3.756,3.75-11.257,15Z" transform="translate(-354.487 -71.602)"/><path class="k" d="M837.889,171.95l-4.5,4.505,9.753,16.617Z" transform="translate(-341.96 -70.555)"/><path class="k" d="M871.421,174.5l3.756,3.75-11.257,15Z" transform="translate(-354.487 -71.602)"/><path d="M850.48,170.68l-12,50.594,7.5,11.251,9.753-11.251Z" transform="translate(-344.048 -70.034)"/><rect class="l" width="179.262" height="8.255" transform="translate(422.179 202.294)"/><rect class="l" width="122.063" height="8.255" transform="translate(450.778 218.805)"/><g class="a" transform="translate(0 67.53)"><rect class="b" width="257.323" height="252.151"/></g><rect class="c" width="254.74" height="248.271" transform="translate(1.291 69.47)"/><g class="a" transform="translate(27.155 90.085)"><rect class="d" width="203.014" height="157.603"/></g><g class="a" transform="translate(89.861 100.567)"><path class="m" d="M297.371,406.948h3.279l-1.026-10.5h-.112c.625-6.416,1.563-34.844-29-46.172l-2.73-1.8-.206.183v-7.672a21.97,21.97,0,0,0,4.924-6.345h0v.784a38.612,38.612,0,0,0,6.6-9.771,38.566,38.566,0,0,1-5.85,8.2v-.071c3.839-4.381,19.536-24.719-5.478-39.314-28.175-16.434-33.494,11.139-33.494,11.139l2.247,3.007s-5.454,10.921-5.454,16.075a21.9,21.9,0,0,0,14.594,20.639v6.545c-2.034.743-30.309,11.682-30.309,44.568l-3.939,10.5,1.315.59h0v29.254H277.01s3.939-31.164,2.624-41.661l3.939,2.624v9.187h.873v.23h-.254l.254.849v28.116h12.9v-28.1l.147-.849h-.147Zm-72.919,2.406h0l.094-2.406Z" transform="translate(-211.42 -289.246)"/></g><rect class="f" width="20.987" height="30.781" transform="translate(124.545 153.039)"/><path class="g" d="M271.43,383.608c2.194.778,3.137,1.4,5.6,1.4a20.884,20.884,0,0,0,14-5.381l0-.215H271.43Z" transform="translate(-146.183 -225.676)"/><circle class="f" cx="20.987" cy="20.987" r="20.987" transform="translate(110.558 116.662)"/><circle class="h" transform="translate(112.658 131.35)"/><path class="h" d="M250.07,341.45" transform="translate(-137.418 -210.1)"/><path class="n" d="M271.183,317.91l17.254,6.752v12.973s22.526-22.72-4.5-38.488c-24.283-14.152-28.682,2.9-31.736,6.174a.79.79,0,0,0,.041,1.12C255.245,309.265,257.81,320.587,271.183,317.91Z" transform="translate(-138.206 -190.469)"/><rect class="f" width="12.366" height="30.811" transform="translate(161.73 216.488)"/><path class="c" d="M272.85,351.326v8.8H289.2l-1-10.06Z" transform="translate(-111.957 -143.642)"/><path class="f" d="M157.68,367.13v31.442h10.06l1.168-29.136Z" transform="translate(-64.7 -150.642)"/><path class="o" d="M257.454,403.316l-7.3-8.8S221,404.572,221,437.269l8.8,10.06-1.256,31.441h51.561s3.774-32.7,2.518-42.757l3.774,2.518h15.09s5.8-35.215-30.663-46.531Z" transform="translate(-125.49 -230.842)"/><path class="c" d="M159.318,350.07l-3.768,10.06,12.348,5.661.224-5.661Z" transform="translate(-63.826 -143.642)"/><path class="g" d="M202.62,281.607l4.941,11.056,7.058-5.8L207.8,278.83Z" transform="translate(-83.14 -114.411)"/><path class="c" d="M202.62,280.337l4.941,11.051,7.058-5.8L207.8,277.56Z" transform="translate(-83.14 -113.89)"/><path class="g" d="M238.293,273.37l4.5,3-12.749,12L225.58,284.5Z" transform="translate(-92.561 -112.17)"/><path class="c" d="M238.293,272.1l4.5,3L230.044,287.1l-4.464-3.874Z" transform="translate(-92.561 -111.649)"/><path class="g" d="M237.47,462.327a44.815,44.815,0,0,1,9-27.007" transform="translate(-132.248 -248.617)"/><path class="g" d="M263.68,346.565V342.06l4.5,3-3-.749Z" transform="translate(-108.194 -140.355)"/><path class="g" d="M273.86,367.51l.242.808h12.366l.142-.808Z" transform="translate(-112.371 -150.798)"/><path class="g" d="M157.68,368.11v.861l11.027,4.735-.283-.7Z" transform="translate(-64.7 -151.044)"/><path class="g" d="M294.806,337.538a36.965,36.965,0,0,1-5.6,7.854V332.4l-17.254-6.752c-12.932,2.589-14.972-7.813-18.6-11.145a.8.8,0,0,0-1.12.047h0a.79.79,0,0,0,.041,1.12c3.007,2.819,5.567,14.152,18.946,11.463l17.254,6.752v12.973a37.009,37.009,0,0,0,6.333-9.323Z" transform="translate(-138.218 -198.958)"/><ellipse class="f" cx="2.099" cy="3.497" rx="2.099" ry="3.497" transform="translate(148.929 134.151)"/><rect class="l" width="179.262" height="8.255" transform="translate(34.761 266.569)"/><rect class="l" width="122.063" height="8.255" transform="translate(63.361 283.08)"/><g class="a" transform="translate(191.615 138.562)"><rect class="b" width="257.323" height="252.151"/></g><rect class="c" width="254.74" height="248.271" transform="translate(192.907 140.502)"/><g class="a" transform="translate(218.77 161.123)"><rect class="d" width="203.014" height="157.603"/></g><g class="a" transform="translate(275.65 162.491)"><path class="p" d="M589.007,491.273l.59-.442.843-.625h0l39.367-29.242-13.533-54.126v-.177c.112-1.651.743-14.429-6.162-12.124-6.746,2.247-4.246,11.687-3.762,13.291l.077.236,8.609,45.517-27.361,15.957-3.8-.425a34.142,34.142,0,0,0,6.551-20.456c0-16.983-11.564-30.752-25.834-30.752s-25.834,13.769-25.834,30.752c0,12.719,6.486,23.64,15.738,28.3l-9.795,4.9v.053c-2.807-.59-13.456-.413-9.14,38.671a41.23,41.23,0,0,1-6.374,27.007l-2.7,3.756,67.429.413h.206S584.579,536.46,589.007,491.273Z" transform="translate(-526.49 -394.26)"/></g><path class="q" d="M546.664,543.158s-13.916-6.009-9.859,35.286a48.748,48.748,0,0,1-7.589,31.353l-.855,1.315H541.3l9.741-10.319Z" transform="translate(-251.607 -292.74)"/><path class="q" d="M656.262,418.1v-.171l-9.73,1.144.071.236,8.438,44.615L626.1,480.807l1.179,21.706,42.2-31.353Z" transform="translate(-291.712 -241.481)"/><ellipse class="h" cx="25.321" cy="30.144" rx="25.321" ry="30.144" transform="translate(288.587 187.47)"/><rect class="f" width="18.085" height="26.53" transform="translate(308.483 227.863)"/><path class="q" d="M574.223,533.776l-4.823-7.235-14.471,7.235v11.97a24.594,24.594,0,0,0-.973,19.919c-1.179,15.674-4.375,36.218-4.375,36.218l53.607.4s-9.647-15.467-4.824-61.285L597.185,521.7l-10.85-1.179Z" transform="translate(-260.314 -283.576)"/><path class="g" d="M571.19,403.81l1.209,1.2,1.2,19.017-1.4,1.044Z" transform="translate(-234.373 -165.693)"/><path class="g" d="M583.19,509.744c1.887.666,2.707,1.179,4.824,1.179a18,18,0,0,0,12.061-4.637l0-.187H583.19Z" transform="translate(-274.105 -277.66)"/><circle class="f" cx="18.085" cy="18.085" r="18.085" transform="translate(296.424 196.515)"/><ellipse class="f" cx="1.81" cy="3.013" rx="1.81" ry="3.013" transform="translate(330.791 211.588)"/><circle class="h" transform="translate(298.235 209.176)"/><path class="h" d="M564.78,473.43" transform="translate(-266.551 -264.254)"/><path class="g" d="M506.285,354.33v.849h31.046v.849H505.86Z" transform="translate(-207.566 -145.39)"/><rect class="h" width="31.353" height="15.674" transform="translate(298.235 194.705)"/><path class="f" d="M663.853,397.581c-6.61,2.205-4.163,11.457-3.691,13.032l9.73-1.144C670.021,407.847,670.64,395.323,663.853,397.581Z" transform="translate(-305.347 -233.02)"/><g class="i" transform="translate(289.042 236.908)"><path d="M550.491,606.073s3.172-20.544,4.375-36.218a24.726,24.726,0,0,1,1-19.919v-11.97l13.5-6.752-.324-.484-14.465,7.235v11.97a24.709,24.709,0,0,0-1,19.919c-1.179,15.674-4.375,36.218-4.375,36.218l53.607.4h0Z" transform="translate(-549.2 -524.674)"/><path d="M533.808,415.022l11.941-13.132-1.173-.13L533.26,414.2Z" transform="translate(-507.851 -401.76)"/></g><path class="g" d="M516.46,411.143l9.264,21.334,16.983-29.136-4.694-.6-11.64,11.634L521.2,408.56Z" transform="translate(-211.916 -165.254)"/><path class="c" d="M516.46,410.043l9.264,21.34,16.983-29.136-4.694-.607-11.64,11.64-5.172-5.82Z" transform="translate(-211.916 -164.803)"/><rect class="l" width="179.262" height="8.255" transform="translate(231.124 335.561)"/><rect class="l" width="122.063" height="8.255" transform="translate(259.723 352.072)"/></svg>