<svg xmlns="http://www.w3.org/2000/svg" xmlns:xlink="http://www.w3.org/1999/xlink" width="638" height="575.542" viewBox="0 0 638 575.542"><defs><style>.a{fill:url(#a);}.b{fill:#862124;}.c{fill:url(#b);}.d{fill:#e0e0e0;}.e{fill:url(#c);}.f,.h{fill:#fff;}.g{fill:url(#d);}.h{stroke:#fff;stroke-miterlimit:10;}.i{fill:url(#e);}.j{fill:#69f0ae;}.k{opacity:0.2;}</style><linearGradient id="a" x1="0.825" y1="1.045" x2="0.825" y2="0.098" gradientUnits="objectBoundingBox"><stop offset="0" stop-color="gray" stop-opacity="0.251"/><stop offset="0.54" stop-color="gray" stop-opacity="0.122"/><stop offset="1" stop-color="gray" stop-opacity="0.102"/></linearGradient><linearGradient id="b" x1="0.776" y1="1.061" x2="0.776" y2="0.169" xlink:href="#a"/><linearGradient id="c" x1="0.5" y1="1" x2="0.5" y2="0" xlink:href="#a"/><linearGradient id="d" x1="-0.381" y1="1.434" x2="-0.34" y2="2.438" gradientUnits="objectBoundingBox"><stop offset="0" stop-opacity="0.122"/><stop offset="0.55" stop-opacity="0.09"/><stop offset="1" stop-opacity="0.02"/></linearGradient><linearGradient id="e" x1="0.5" y1="1" x2="0.5" y2="0" xlink:href="#a"/></defs><g transform="translate(0.03)"><path class="a" d="M675.92,591.271,309.95,561.26,350.283,62.28l365.97,30.01Z" transform="translate(-78.283 -15.728)"/><path class="b" d="M673.381,586.554,317.27,557.344,356.519,71.81l356.111,29.2Z" transform="translate(-80.132 -18.135)"/><path class="c" d="M668.35,491.64,307.761,561.408,214,69.768,574.589,0Z" transform="translate(-54.052)"/><path class="d" d="M664.3,488.515,313.425,556.407,222.19,78,573.062,10.12Z" transform="translate(-56.12 -2.556)"/><rect class="e" width="367.181" height="500.632" transform="translate(203.533 37.134)"/><rect class="f" width="357.292" height="487.141" transform="translate(208.481 43.876)"/><path class="g" d="M613.248,217.053c.389,32.6,26.946,58.705,59.311,58.3a59.1,59.1,0,0,0,18.47-114.824l.179,15.2A19.98,19.98,0,0,1,671.6,196.012h0a19.972,19.972,0,0,1-20.084-19.748l-.179-15.2a59.049,59.049,0,0,0-38.09,55.992Z" transform="translate(-284.367 -89.125)"/><path class="b" d="M730.486,207.889c0-32.6-26.236-59.049-58.608-59.049s-58.608,26.43-58.608,59.049a59.049,59.049,0,0,0,38.763,55.559v-15.2a19.972,19.972,0,0,1,19.845-19.987h0a19.972,19.972,0,0,1,19.845,19.987v15.211a59.049,59.049,0,0,0,38.763-55.566Z" transform="translate(-284.374 -86.173)"/><ellipse class="h" cx="22.528" cy="22.693" rx="22.528" ry="22.693" transform="translate(365.013 90.906)"/><path class="h" d="M684.975,255.09h0a19.972,19.972,0,0,0-19.845,19.987v15.211a58.429,58.429,0,0,0,39.69,0V275.077A19.972,19.972,0,0,0,684.975,255.09Z" transform="translate(-297.471 -113.006)"/><path class="h" d="M660.506,202.233a22.148,22.148,0,0,1-2.4-11.436,15.308,15.308,0,0,1,4.993-10.352c3.281-2.818,7.729-3.812,12.027-4.156s8.656-.135,12.886-.979A26.908,26.908,0,0,0,705.2,163.56a36.9,36.9,0,0,1-.1,9.986c-.635,3.259-2.31,6.5-5.135,8.222,3.423-1.592,3.05,2.145,2.31,4.38,1.7,2.063,5.815,2.407,6.025,5.075a16.933,16.933,0,0,1-.86,7.886c-1.031,2.459.075,6.8-2.571,6.989" transform="translate(-295.687 -89.891)"/><path class="f" d="M715.81,187.26s15.7,1.383,4.53,24.883" transform="translate(-310.27 -95.876)"/><rect class="i" width="48.532" height="48.884" transform="translate(241.952 429.041)"/><rect class="b" width="40.161" height="40.452" transform="translate(246.13 433.256)"/><rect class="j" width="117.142" height="8.431" transform="translate(328.971 226.764)"/><rect class="d" width="197.471" height="8.431" transform="translate(328.971 238.566)"/><rect class="d" width="197.471" height="8.431" transform="translate(328.971 250.361)"/><rect class="j" width="117.142" height="8.431" transform="translate(328.971 332.118)"/><rect class="d" width="197.471" height="8.431" transform="translate(328.971 343.913)"/><rect class="d" width="197.471" height="8.431" transform="translate(328.971 355.715)"/><rect class="b" width="117.142" height="8.431" transform="translate(328.971 437.465)"/><rect class="d" width="197.471" height="8.431" transform="translate(328.971 449.267)"/><rect class="d" width="197.471" height="8.431" transform="translate(328.971 461.069)"/><path class="i" d="M346.807,546.6H319.465c-2.781-38.18-34.383-68.3-73-68.3-40.445,0-73.251,33.023-73.251,73.759s32.783,73.759,73.251,73.759a73.3,73.3,0,0,0,71.756-59.191h28.56a10.016,10.016,0,0,0,0-20.032Z" transform="translate(-173.24 -169.376)"/><path class="f" d="M250.149,485.65c-37.433,0-67.779,30.564-67.779,68.265s30.347,68.265,67.779,68.265,67.779-30.564,67.779-68.265S287.582,485.65,250.149,485.65Zm0,126.425c-31.887,0-57.734-26.034-57.734-58.152s25.847-58.152,57.734-58.152a58.15,58.15,0,0,1,0,116.3Z" transform="translate(-175.553 -171.232)"/><path class="f" d="M182.66,505.22H214.6a8.222,8.222,0,0,1,8.222,8.222v2.078a8.222,8.222,0,0,1-8.222,8.222H182.66Z" transform="translate(-46.137 -127.589)"/><ellipse class="b" cx="58.571" cy="58.997" rx="58.571" ry="58.997" transform="translate(16.033 323.687)"/><path class="k" d="M279.648,547.158c-4.567,2.392-6.772,8.969-3.737,13.17,1.211,1.667,2.99,2.773,4.537,4.148s2.855,3.3,2.586,5.344a7.475,7.475,0,0,1-1.682,3.371c-3.072,4.066-6.862,7.93-7.856,12.938-.9,4.545.747,9.3,3.423,13.073a11.472,11.472,0,0,0,6.039,4.821,10.027,10.027,0,0,0,8.222-1.951,28.728,28.728,0,0,0,5.89-6.4l4.074-5.412c1.114-1.495,2.242-3.087,2.362-4.941.142-3.184-2.84-5.569-3.857-8.581-1.884-5.591,3.311-11.369,2.616-17.236C301.2,550.641,287.519,543.009,279.648,547.158Z" transform="translate(-198.504 -186.472)"/></g></svg>