<svg xmlns="http://www.w3.org/2000/svg" width="638" height="564.328" viewBox="0 0 638 564.328"><defs><style>.a{fill:#862124;}.b{fill:#2f2e41;}.c{fill:#3f3d56;}.d{fill:#f2f2f2;}.e{fill:#ffb8b8;}</style></defs><path class="a" d="M522.183,581.389,93.241,431.031,215.21,83.078,657.148,219.4Z" transform="translate(-19.148 -17.061)"/><rect class="b" width="514.924" height="1.589" transform="translate(66.658 562.304)"/><path class="b" d="M819.173,746.944l-1.747-.9c22.684-43.853,10.554-100.8-3.615-140.854a431.7,431.7,0,0,0-36.633-77.315l1.661-1.05a433.906,433.906,0,0,1,36.824,77.708C829.963,644.949,842.178,702.468,819.173,746.944Z" transform="translate(-317.386 -183.433)"/><rect class="b" width="70.933" height="1.965" transform="translate(505.858 413.517) rotate(-79.645)"/><rect class="b" width="1.966" height="96.651" transform="matrix(0.732, -0.681, 0.681, 0.732, 432.388, 404.528)"/><rect class="b" width="57.006" height="1.966" transform="matrix(0.586, -0.81, 0.81, 0.586, 518.798, 527.115)"/><circle class="c" cx="9.827" cy="9.827" r="9.827" transform="translate(407.556 381.257)"/><circle class="c" cx="9.827" cy="9.827" r="9.827" transform="translate(450.795 391.085)"/><circle class="d" cx="9.827" cy="9.827" r="9.827" transform="translate(431.141 429.411)"/><circle class="c" cx="9.827" cy="9.827" r="9.827" transform="translate(553.981 453.978)"/><circle class="d" cx="9.827" cy="9.827" r="9.827" transform="translate(521.551 464.788)"/><circle class="c" cx="9.827" cy="9.827" r="9.827" transform="translate(544.154 496.235)"/><circle class="c" cx="9.827" cy="9.827" r="9.827" transform="translate(440.969 317.381)"/><path class="b" d="M844.162,591.977l-1.385-1.395c35.051-34.771,40.992-92.693,39.8-135.162a431.7,431.7,0,0,0-11.127-84.828l1.9-.489a433.91,433.91,0,0,1,11.188,85.261C885.745,498.221,879.711,556.711,844.162,591.977Z" transform="translate(-330.858 -151.248)"/><rect class="b" width="70.933" height="1.965" transform="translate(563.229 299.223) rotate(-61.766)"/><rect class="b" width="1.966" height="96.651" transform="translate(496.064 268.116) rotate(-25.06)"/><rect class="b" width="57.006" height="1.966" transform="translate(540.672 411.309) rotate(-36.258)"/><circle class="d" cx="9.827" cy="9.827" r="9.827" transform="translate(601.262 201.761)"/><circle class="c" cx="9.827" cy="9.827" r="9.827" transform="translate(476.088 240.889)"/><circle class="c" cx="9.827" cy="9.827" r="9.827" transform="translate(514.222 263.517)"/><circle class="d" cx="9.827" cy="9.827" r="9.827" transform="translate(483.75 293.958)"/><circle class="c" cx="9.827" cy="9.827" r="9.827" transform="translate(593.114 355.053)"/><circle class="c" cx="9.827" cy="9.827" r="9.827" transform="translate(558.932 355.384)"/><circle class="c" cx="9.827" cy="9.827" r="9.827" transform="translate(570.787 392.252)"/><circle class="c" cx="9.827" cy="9.827" r="9.827" transform="translate(527.497 190.356)"/><path class="b" d="M480.784,196.838a19.784,19.784,0,0,1-2.458-26.674c-.4.373-.788.761-1.161,1.174a19.786,19.786,0,0,0,29.353,26.54c.373-.412.72-.839,1.051-1.272A19.784,19.784,0,0,1,480.784,196.838Z" transform="translate(-254.725 -110.188)"/><circle class="b" cx="40.75" cy="40.75" r="40.75" transform="translate(183.455 9.893)"/><path class="b" d="M341.327,789.8s-10.835,10.835,0,10.835,21.2-7.066,21.2-7.066Z" transform="translate(-226.889 -237.44)"/><path class="b" d="M540.78,779.025s-3,15.027,6.014,9.013,13.712-17.645,13.712-17.645Z" transform="translate(-268.74 -233.454)"/><path class="e" d="M375.832,338.644l-7.066,16.488-43.341,57.474s-29.679,32.035-13.191,33.919,27.324-29.679,27.324-29.679l50.879-50.407,5.653-23.084Z" transform="translate(-220.879 -144.788)"/><path class="b" d="M412.86,254.46l-6.829,1.912s-26.619,47.082-23.793,56.975,15.546,22.142,21.2,21.2S412.86,254.46,412.86,254.46Z" transform="translate(-236.236 -127.499)"/><path class="e" d="M444.325,188.169s7.066,29.208,1.884,34.861-16.488,9.893-16.488,9.893l1.884,52.763s21.67-7.538,22.613-8.48,20.257-31.564,20.257-31.564l18.844-17.9s-28.737-13.662-20.257-37.217S444.325,188.169,444.325,188.169Z" transform="translate(-246.03 -112.086)"/><circle class="e" cx="24.497" cy="24.497" r="24.497" transform="translate(191.228 37.923)"/><path class="b" d="M411.382,242.571s-17.431,4.711-18.373,11.306,0,20.257-1.413,23.084-5.653,7.066-3.769,24.968.942,28.737.942,28.737-95.632,337.306-61.713,347.2,83.855-.942,83.384-7.538-8.951-137.09-8.951-137.09S450.954,706.6,512.2,666.088s47.581-48.052,41.928-50.879S463.2,478.12,463.674,453.152s-.942-103.171-11.306-114.948c0,0,10.835-35.8,16.017-40.514s17.9-48.994,17.9-48.994-8.009-10.835-14.6-10.835-12.72,2.355-20.257,9.422-35.333,41.457-35.333,41.457S407.142,249.167,411.382,242.571Z" transform="translate(-223.452 -124.09)"/><ellipse class="b" cx="20.728" cy="14.133" rx="20.728" ry="14.133" transform="translate(194.761 26.381)"/><circle class="b" cx="19.786" cy="19.786" r="19.786" transform="translate(231.036 0)"/><path class="b" d="M526.874,132.686a19.783,19.783,0,0,1-19.712-18.134c-.045.541-.074,1.09-.074,1.646a19.786,19.786,0,0,0,39.572,0c0-.556-.029-1.1-.074-1.649A19.784,19.784,0,0,1,526.874,132.686Z" transform="translate(-261.919 -98.766)"/><rect class="c" width="97.441" height="97.441" transform="translate(0 199.455)"/><path class="d" d="M240.5,397.041s12.327-1.761,16.436-12.914,7.631-20.545,14.675-18.784,2.935,24.067,2.935,24.067,14.675-1.761,15.262,3.522c.486,4.374.167,21.222.043,26.89a11.615,11.615,0,0,1-2.024,6.422,8.468,8.468,0,0,1-8.585,3.669,68.524,68.524,0,0,0-9.818-.513,29.932,29.932,0,0,1-16.6-4.769h0l-12.327-.587Z" transform="translate(-207.171 -150.227)"/><rect class="a" width="25.241" height="42.85" transform="translate(14.544 238.596)"/><path class="c" d="M269.616,373.24a8.774,8.774,0,0,1-2.5-.36l.167-.562a8.313,8.313,0,0,0,10.538-6.414l.577.109a8.873,8.873,0,0,1-8.778,7.227Z" transform="translate(-212.636 -150.386)"/><rect class="c" width="97.441" height="97.441" transform="translate(252.81 321.529)"/><path class="d" d="M558.645,553.805s12.327,1.761,16.436,12.914,7.631,20.545,14.675,18.784,2.935-24.067,2.935-24.067,14.675,1.761,15.262-3.522c.486-4.374.167-21.222.043-26.89a11.615,11.615,0,0,0-2.024-6.422,8.468,8.468,0,0,0-8.585-3.669,68.527,68.527,0,0,1-9.818.514,29.932,29.932,0,0,0-16.6,4.769h0l-12.327.587Z" transform="translate(-272.507 -182.195)"/><rect class="a" width="25.241" height="42.85" transform="translate(267.354 336.978)"/><path class="c" d="M587.762,592.488a8.776,8.776,0,0,0-2.5.36l.167.562a8.313,8.313,0,0,1,10.538,6.414l.577-.109A8.873,8.873,0,0,0,587.762,592.488Z" transform="translate(-277.972 -196.918)"/><path class="e" d="M525.619,333.309l-2.356,26.382,4.711,79.144s10.835,40.043-5.653,39.1-10.364-41.928-10.364-41.928l-7.538-91.864Z" transform="translate(-261.371 -143.692)"/><path class="b" d="M510.131,243.2l12.249,6.6s16.488,57.474,7.066,68.309-28.737,15.075-29.679,10.835-4.24-35.8-4.24-35.8Z" transform="translate(-259.545 -125.186)"/></svg>