<!DOCTYPE svg PUBLIC "-//W3C//DTD SVG 20010904//EN" "http://www.w3.org/TR/2001/REC-SVG-20010904/DTD/svg10.dtd">
<svg version="1.0" xmlns="http://www.w3.org/2000/svg" width="1600px" height="328px" viewBox="0 0 16000 3280" preserveAspectRatio="xMidYMid meet">
<g id="layer101" fill="#8b181b" stroke="none">
 <path d="M1593 2990 c-348 -44 -688 -233 -907 -504 -220 -272 -319 -550 -319 -896 0 -170 18 -288 69 -440 69 -207 164 -365 312 -521 149 -157 285 -252 480 -335 343 -147 717 -149 1078 -7 304 120 572 365 727 665 164 319 196 720 86 1063 -34 108 -34 106 -11 99 9 -3 2 7 -16 23 -18 15 -32 33 -32 38 0 6 -20 45 -44 87 l-44 77 37 -15 c224 -94 374 -155 377 -152 9 10 -299 222 -501 346 -55 33 -131 88 -168 122 -189 168 -416 281 -672 335 -94 20 -346 28 -452 15z m-118 -1736 c-47 -7 -113 -8 -108 -1 2 4 32 6 66 6 34 -1 53 -3 42 -5z"/>
 <path d="M6567 2793 c-23 -83 -87 -326 -87 -332 0 -5 14 -11 31 -15 68 -13 157 -66 209 -123 47 -51 52 -61 47 -92 -4 -34 -38 -127 -303 -834 -57 -153 -104 -283 -104 -288 0 -5 95 -9 228 -9 l228 0 51 218 c28 119 66 283 84 365 18 81 36 147 39 147 4 0 82 -417 123 -662 l11 -68 219 0 c203 0 218 1 213 18 -218 711 -268 867 -328 1016 -98 247 -184 392 -296 497 -77 73 -134 110 -225 143 -94 35 -133 40 -140 19z"/>
 <path d="M9245 2770 c-58 -8 -232 -54 -243 -65 -2 -2 13 -75 34 -163 l38 -160 27 13 c43 23 164 53 238 61 125 12 231 -39 272 -131 10 -22 21 -72 25 -110 l7 -70 -39 37 c-59 56 -124 81 -224 86 -250 12 -428 -165 -471 -468 -21 -141 9 -326 70 -448 47 -93 138 -185 229 -230 75 -36 78 -37 191 -37 110 0 119 2 170 30 29 16 65 44 78 62 28 37 43 35 43 -5 0 -15 3 -37 6 -49 6 -23 8 -23 183 -23 l176 0 -3 357 c-5 732 -8 833 -26 907 -51 206 -178 334 -383 387 -91 23 -292 33 -398 19z m344 -854 l36 -36 3 -183 c2 -163 1 -186 -16 -217 -70 -130 -227 -88 -274 74 -15 54 -16 210 0 262 41 138 164 187 251 100z"/>
 <path d="M3990 2303 c-131 -10 -323 -55 -354 -83 -6 -7 38 -255 60 -330 3 -14 19 -11 104 17 174 59 342 66 425 20 51 -29 67 -60 61 -117 -6 -64 -55 -104 -216 -175 -330 -146 -463 -327 -420 -572 34 -200 184 -345 411 -400 89 -21 313 -24 404 -5 76 17 185 53 185 63 0 8 -55 241 -70 300 l-10 36 -82 -30 c-74 -27 -96 -30 -203 -31 -135 -1 -173 12 -208 72 -42 72 0 122 163 199 237 111 261 126 335 198 85 83 121 153 137 264 21 141 -28 295 -126 393 -112 114 -256 168 -481 181 -38 2 -90 2 -115 0z"/>
 <path d="M8085 2304 c-140 -23 -246 -73 -331 -158 -112 -112 -164 -256 -164 -450 0 -64 7 -138 16 -176 51 -217 206 -375 417 -425 73 -17 234 -19 309 -4 153 32 295 142 362 281 54 115 61 147 60 318 0 143 -2 161 -28 235 -62 179 -174 291 -350 350 -76 25 -222 40 -291 29z m162 -320 c61 -38 102 -220 83 -368 -14 -112 -29 -154 -71 -198 -31 -33 -42 -38 -82 -38 -38 0 -51 6 -80 33 -66 62 -97 214 -77 372 16 123 61 201 125 218 27 7 75 -2 102 -19z"/>
 <path d="M10420 2301 c-109 -35 -169 -119 -170 -235 0 -78 16 -128 57 -175 70 -83 190 -106 289 -56 84 44 123 112 124 221 0 109 -40 183 -124 226 -43 22 -136 32 -176 19z"/>
 <path d="M11553 2300 c-165 -17 -317 -76 -428 -167 -201 -164 -298 -471 -251 -792 33 -224 124 -395 274 -514 114 -91 219 -139 367 -168 86 -17 308 -17 390 0 75 15 145 40 145 51 0 9 -71 324 -74 327 -1 1 -28 -8 -61 -20 -89 -31 -277 -31 -357 1 -111 45 -198 149 -234 282 -22 80 -24 251 -5 330 29 116 108 227 191 270 99 51 239 64 375 35 38 -8 75 -15 81 -15 6 0 18 52 28 118 10 64 21 138 25 164 l8 47 -46 15 c-102 32 -297 49 -428 36z"/>
 <path d="M12576 2294 c-217 -43 -376 -198 -431 -419 -23 -92 -23 -256 0 -355 45 -196 171 -340 353 -408 83 -30 266 -42 363 -23 222 44 379 209 425 448 29 155 10 333 -50 460 -110 231 -380 353 -660 297z m175 -294 c76 -21 119 -133 119 -310 0 -204 -54 -310 -158 -310 -38 0 -50 5 -82 38 -46 46 -69 114 -77 233 -7 102 9 204 42 269 27 53 42 68 82 80 38 11 33 11 74 0z"/>
 <path d="M4900 1721 c0 -307 -3 -573 -6 -590 l-6 -31 180 0 181 0 6 58 c3 31 8 76 11 100 l5 43 26 -50 c25 -52 94 -120 148 -149 18 -9 65 -17 118 -20 l87 -4 0 198 0 199 -92 0 c-83 0 -98 3 -138 27 -28 16 -55 43 -70 70 l-25 43 -3 333 -3 332 -210 0 -209 0 0 -559z"/>
 <path d="M5800 1690 l0 -590 210 0 210 0 0 590 0 590 -210 0 -210 0 0 -590z"/>
 <path d="M13490 1767 c0 -283 -3 -548 -6 -590 l-7 -77 181 0 181 0 7 70 7 70 53 -50 c77 -73 148 -103 256 -108 49 -3 109 1 135 7 63 16 133 64 169 117 l29 42 57 -54 c32 -30 83 -67 115 -82 53 -24 69 -27 173 -27 106 0 120 2 172 28 66 32 117 88 154 165 49 104 54 154 54 595 l0 407 -204 0 -205 0 -3 -382 c-3 -342 -5 -386 -20 -415 -25 -44 -55 -63 -103 -63 -51 0 -82 22 -106 74 -17 38 -19 71 -19 414 l0 372 -205 0 -205 0 0 -369 c0 -391 -2 -414 -48 -463 -46 -50 -134 -34 -175 31 -22 35 -22 43 -25 419 l-3 382 -204 0 -205 0 0 -513z"/>
 <path d="M5931 969 c-68 -27 -114 -87 -127 -166 -16 -99 56 -201 157 -222 58 -13 107 -7 159 19 68 35 100 92 100 183 0 82 -33 137 -104 172 -53 26 -138 33 -185 14z"/>
 </g>
<g id="layer102" fill="#b06164" stroke="none">
 <path d="M1724 2782 c-100 -49 -162 -139 -206 -300 -18 -65 -22 -117 -27 -329 l-6 -253 -309 182 -309 182 -73 -79 c-41 -43 -74 -79 -74 -81 0 -1 99 -61 220 -134 121 -73 218 -136 215 -140 -9 -14 -142 -100 -155 -100 -7 0 -77 37 -157 81 l-145 82 -75 -75 -74 -75 98 -58 c54 -32 114 -69 134 -81 l36 -23 -47 -50 c-69 -73 -85 -112 -85 -201 0 -63 4 -82 27 -120 80 -136 224 -191 362 -140 119 45 186 139 194 272 4 69 2 83 -23 133 -14 30 -48 78 -75 105 l-48 50 69 50 c39 28 77 54 85 57 7 3 59 -20 114 -52 l100 -56 0 -189 0 -189 -62 -3 -62 -3 -74 -95 -73 -95 120 -3 c67 -1 121 -5 121 -8 0 -3 -18 -37 -40 -77 -53 -98 -71 -152 -72 -217 -2 -143 135 -253 294 -236 155 16 262 123 418 419 l62 117 111 0 112 1 50 75 c28 41 58 88 68 105 l19 29 -141 0 -141 0 0 581 c0 319 -4 579 -8 577 -5 -1 -57 -34 -115 -73 l-107 -70 0 -461 c0 -254 -3 -482 -6 -508 l-7 -46 -118 0 -119 0 0 580 c0 625 0 627 52 672 31 26 60 32 142 25 83 -7 185 -33 351 -89 235 -80 681 -256 798 -315 27 -13 51 -22 53 -20 15 15 -403 289 -751 492 -283 166 -357 196 -490 202 -83 4 -94 2 -151 -25z m-732 -1323 c76 -61 120 -175 82 -213 -52 -53 -194 57 -194 150 0 32 41 94 62 94 6 0 28 -14 50 -31z m988 -417 c0 -21 -121 -198 -165 -243 -74 -74 -156 -88 -225 -39 -70 50 -76 124 -19 231 l32 59 188 0 c104 0 189 -4 189 -8z"/>
 </g>
<g id="layer103" fill="#d0a2a3" stroke="none">
 <path d="M1722 2779 c-97 -48 -162 -143 -204 -297 -18 -65 -22 -118 -27 -330 l-6 -253 -260 153 c-143 84 -281 165 -306 180 l-46 27 -77 -78 -78 -78 227 -135 226 -135 -79 -51 c-43 -29 -84 -52 -91 -52 -7 0 -78 37 -158 81 l-145 81 -75 -74 -74 -75 98 -58 c54 -32 114 -69 134 -81 l37 -23 -45 -47 c-67 -70 -97 -141 -91 -218 6 -71 24 -110 75 -167 79 -88 207 -120 314 -80 119 45 188 142 197 277 4 65 2 80 -23 129 -14 30 -48 78 -75 105 l-49 50 32 23 c92 67 122 87 133 87 7 0 54 -24 106 -54 l93 -54 3 -190 2 -191 -62 -3 -63 -3 -72 -95 -73 -95 124 -3 124 -3 -39 -67 c-80 -137 -101 -250 -60 -331 84 -164 315 -186 472 -44 51 46 141 181 220 328 l61 115 111 1 112 0 68 102 67 102 -140 3 -140 3 0 580 c0 324 -4 579 -9 577 -4 -1 -56 -34 -115 -73 l-106 -70 0 -507 0 -508 -125 0 -125 0 0 583 c0 550 1 584 19 624 29 62 64 77 170 70 104 -6 251 -48 518 -145 203 -75 556 -218 636 -259 27 -13 51 -22 54 -20 14 14 -448 316 -762 497 -287 166 -373 200 -499 200 -61 0 -83 -5 -134 -31z m-719 -1329 c86 -76 116 -193 54 -214 -64 -23 -177 79 -177 160 0 34 41 94 64 94 7 0 34 -18 59 -40z m977 -405 c0 -28 -119 -204 -172 -255 -68 -65 -153 -76 -218 -30 -69 49 -76 115 -24 219 l35 71 190 0 c104 0 189 -2 189 -5z"/>
 </g>
<g id="layer104" fill="#ffffff" stroke="none">
 <path d="M1723 2780 c-98 -50 -161 -141 -204 -296 -18 -68 -22 -113 -26 -331 -3 -139 -7 -253 -8 -253 -3 0 -522 304 -581 340 l-30 19 -78 -78 -77 -78 226 -135 226 -135 -86 -56 -85 -55 -152 85 -151 85 -74 -74 -73 -73 82 -49 c46 -28 107 -65 136 -83 l53 -34 -46 -46 c-70 -69 -89 -114 -90 -203 0 -64 4 -82 27 -121 77 -130 228 -189 359 -140 119 45 188 142 197 277 4 65 1 80 -22 128 -14 29 -49 76 -76 104 l-50 51 52 39 c29 21 67 48 83 59 l31 21 99 -57 100 -57 3 -192 2 -192 -59 0 -60 0 -75 -97 -76 -98 124 -3 124 -3 -39 -67 c-105 -182 -105 -314 2 -405 107 -92 269 -85 393 17 57 47 142 168 226 324 l72 132 108 0 109 0 65 94 c36 52 66 97 66 100 0 3 -61 6 -135 6 l-135 0 -2 585 -3 585 -112 -72 -113 -73 0 -512 0 -513 -125 0 -125 0 0 593 c0 559 1 594 19 627 54 102 185 96 542 -26 222 -75 657 -248 783 -310 27 -14 51 -23 53 -21 11 12 -326 236 -598 399 -413 247 -501 288 -644 295 -86 5 -93 3 -152 -27z m-720 -1330 c79 -70 115 -184 66 -211 -68 -36 -189 67 -189 160 0 31 42 91 64 91 7 0 34 -18 59 -40z m977 -410 c0 -21 -110 -187 -155 -233 -50 -53 -97 -77 -147 -77 -72 0 -148 70 -148 135 0 41 21 102 52 149 l23 36 188 0 c119 0 187 -4 187 -10z"/>
 </g>

</svg>