<svg height="496pt" viewBox="0 -80 496 496" width="496pt" xmlns="http://www.w3.org/2000/svg"><path d="m392 256c-13.230469 0-24 10.769531-24 24s10.769531 24 24 24 24-10.769531 24-24-10.769531-24-24-24zm0 32c-4.414062 0-8-3.585938-8-8s3.585938-8 8-8 8 3.585938 8 8-3.585938 8-8 8zm0 0"/><path d="m104 256c-13.230469 0-24 10.769531-24 24s10.769531 24 24 24 24-10.769531 24-24-10.769531-24-24-24zm0 32c-4.414062 0-8-3.585938-8-8s3.585938-8 8-8 8 3.585938 8 8-3.585938 8-8 8zm0 0"/><path d="m440 32h-33.761719l-3.453125-13.824219c-2.664062-10.695312-12.25-18.175781-23.28125-18.175781h-215.007812c-11.03125 0-20.609375 7.480469-23.28125 18.175781l-3.453125 13.824219h-17c-37.347657 0-70.730469 23.679688-83.066407 58.929688l-35.457031 101.292968c-1.476562 4.273438-2.238281 8.714844-2.238281 13.21875v42.558594c0 22.054688 17.945312 40 40 40h8.640625c3.902344 27.089844 27.207031 48 55.359375 48s51.457031-20.910156 55.359375-48h177.28125c3.902344 27.089844 27.207031 48 55.359375 48s51.457031-20.910156 55.359375-48h8.640625c22.054688 0 40-17.945312 40-40v-160c0-30.878906-25.128906-56-56-56zm-328 192.640625v-48.640625h80v96h-32.640625c-3.527344-24.472656-22.886719-43.832031-47.359375-47.359375zm80-144.640625v80h-76.902344l26.664063-80zm96 48h-80v-48h80zm-80 16h32v128h-32zm48 0h32v128h-32zm48-64h48v80h-48zm64 0h48v80h-48zm64 0h47.191406c.527344 2.585938.808594 5.265625.808594 8v72h-48zm-275.273438-57.9375c.898438-3.566406 4.089844-6.0625 7.769532-6.0625h215.015625c3.679687 0 6.863281 2.496094 7.769531 6.0625l2.480469 9.9375h-235.523438zm283.273438 25.9375c13.015625 0 24.488281 6.34375 31.792969 16h-395.953125c12.496094-10.015625 28.160156-16 44.914062-16zm-387.191406 48.207031c2.046875-5.863281 4.96875-11.207031 8.328125-16.207031h63.765625l-26.671875 80h-67.75zm-36.808594 109.234375c0-1.808594.28125-3.578125.679688-5.328125 8.367187.558594 15.320312 11.222657 15.320312 23.886719 0 13.007812-7.328125 24-16 24zm5.65625 57.847656c14.945312-3.359374 26.34375-19.65625 26.34375-39.289062 0-19.558594-11.3125-35.824219-26.175781-39.265625l3.054687-8.734375h71.121094v16h-32v16h32v16.640625c-24.472656 3.527344-43.832031 22.886719-47.359375 47.359375h-8.640625c-7.398438 0-13.945312-3.433594-18.34375-8.710938zm82.34375 56.710938c-22.054688 0-40-17.945312-40-40s17.945312-40 40-40 40 17.945312 40 40-17.945312 40-40 40zm288 0c-22.054688 0-40-17.945312-40-40s17.945312-40 40-40 40 17.945312 40 40-17.945312 40-40 40zm64-48h-8.640625c-3.902344-27.089844-27.207031-48-55.359375-48s-51.457031 20.910156-55.359375 48h-32.640625v-96h176v16h-8c-13.230469 0-24 10.769531-24 24v16c0 13.230469 10.769531 24 24 24h6.527344c-3.3125 9.289062-12.113282 16-22.527344 16zm16-32c-4.414062 0-8-3.585938-8-8v-16c0-4.414062 3.585938-8 8-8h8v32zm0 0"/><path d="m320 192h16v16h-16zm0 0"/><path d="m352 192h16v16h-16zm0 0"/><path d="m384 192h16v16h-16zm0 0"/><path d="m160 192h16v16h-16zm0 0"/><path d="m128 192h16v16h-16zm0 0"/></svg>