<svg viewBox="-15 0 511 512" xmlns="http://www.w3.org/2000/svg"><path d="m476.792969 396.640625-91.492188-160.261719c-7.027343-12.308594-20.195312-19.957031-34.371093-19.957031h-219.269532c-14.171875 0-27.34375 7.648437-34.371094 19.957031l-91.484374 160.246094c-7.105469 12.394531-7.070313 27.167969.089843 39.527344 7.160157 12.359375 19.960938 19.738281 34.246094 19.738281h65.390625v48.59375c0 4.152344 3.363281 7.515625 7.515625 7.515625 4.148437 0 7.511719-3.363281 7.511719-7.515625v-48.59375h25.050781v16.53125c0 4.152344 3.363281 7.515625 7.515625 7.515625h176.34375c4.152344 0 7.515625-3.363281 7.515625-7.515625v-16.53125h24.988281l-.386718 48.535156c-.03125 4.148438 3.304687 7.539063 7.453124 7.574219h.0625c4.121094 0 7.480469-3.324219 7.515626-7.453125l.382812-48.65625h65.453125c14.28125 0 27.082031-7.378906 34.242187-19.738281 7.160157-12.359375 7.195313-27.136719.097657-39.511719zm-172.226563-165.1875-5.746094 34.484375-41.285156 10.320312 28.003906-44.804687zm-63.269531 42.429687-26.519531-42.429687h53.039062zm-44.246094-42.429687 28.003907 44.804687-41.28125-10.320312-5.746094-34.484375zm-84.003906 209.40625c-4.699219 0-8.519531-3.820313-8.519531-8.515625v-48.09375c0-4.695312 3.820312-8.515625 8.519531-8.515625h32.5625v17.058594c-.167969-.011719-.332031-.027344-.5-.027344h-16.03125c-4.152344 0-7.515625 3.367187-7.515625 7.515625 0 4.152344 3.363281 7.515625 7.515625 7.515625h16.03125c.167969 0 .332031-.015625.5-.027344v9.070313c-.167969-.011719-.332031-.027344-.5-.027344h-16.03125c-4.152344 0-7.515625 3.367188-7.515625 7.515625 0 4.152344 3.363281 7.515625 7.515625 7.515625h16.03125c.167969 0 .332031-.015625.5-.023438v9.039063zm47.589844-25.046875h89.175781v17.03125h-89.175781zm161.316406 49.09375h-161.316406v-17.03125h96.691406c4.148437 0 7.515625-3.363281 7.515625-7.515625v-32.0625c0-4.148437-3.367188-7.515625-7.515625-7.515625h-96.691406v-81.15625h57.113281v32.5625c0 4.152344 3.363281 7.515625 7.515625 7.515625h32.0625c4.148437 0 7.515625-3.363281 7.515625-7.515625v-32.5625h57.109375zm-89.171875-145.28125h17.03125v25.046875h-17.03125zm104.203125 112.21875h16.53125c4.152344 0 7.515625-3.363281 7.515625-7.515625 0-4.148437-3.363281-7.515625-7.515625-7.515625h-16.53125v-9.015625h16.53125c4.152344 0 7.515625-3.363281 7.515625-7.515625 0-4.148438-3.363281-7.515625-7.515625-7.515625h-16.53125v-17.03125h32.5625c4.695313 0 8.515625 3.820313 8.515625 8.515625v48.09375c0 4.695312-3.820312 8.515625-8.515625 8.515625h-32.5625zm126.707031-3.222656c-4.441406 7.664062-12.378906 12.238281-21.238281 12.238281h-50.960937c1.027343-2.640625 1.597656-5.511719 1.597656-8.515625v-40.578125h16.535156c4.148438 0 7.511719-3.363281 7.511719-7.515625 0-4.148438-3.363281-7.515625-7.511719-7.515625h-17.769531c-2.367188-7.007813-7.949219-12.550781-14.988281-14.859375.121093-.539062.195312-1.09375.195312-1.671875v-48.09375c0-4.148437-3.363281-7.515625-7.515625-7.515625s-7.515625 3.367188-7.515625 7.515625v48.09375c0 .167969.015625.335937.027344.5h-25.074219v-48.59375c0-4.148437-3.363281-7.515625-7.515625-7.515625h-176.34375c-4.152344 0-7.515625 3.367188-7.515625 7.515625v48.59375h-25.050781v-48.59375c0-4.148437-3.363282-7.515625-7.511719-7.515625-4.152344 0-7.515625 3.367188-7.515625 7.515625v49.832031c-6.945312 2.347656-12.449219 7.847656-14.796875 14.792969h-17.765625c-4.152344 0-7.515625 3.367187-7.515625 7.515625 0 4.152344 3.363281 7.515625 7.515625 7.515625h16.53125v40.578125c0 3.003906.570312 5.875 1.601562 8.515625h-50.960937c-8.859375 0-16.800781-4.574219-21.242187-12.238281-4.441407-7.667969-4.460938-16.832032-.046876-24.53125l91.492188-160.257813c4.359375-7.636719 12.527344-12.378906 21.316406-12.378906h31.128906l6.96875 41.816406c.492188 2.949219 2.6875 5.328125 5.589844 6.054688l64.125 16.03125c1.183594.300781 2.460938.300781 3.648438 0l64.125-16.03125c2.902344-.726563 5.097656-3.105469 5.585937-6.054688l6.96875-41.816406h31.128907c8.792968 0 16.960937 4.742187 21.320312 12.375l91.496094 160.273437c4.40625 7.6875 4.386718 16.851563-.054688 24.519532zm0 0"/><path d="m161.140625 151.296875c.671875 0 1.34375-.039063 2.015625-.097656 7.207031 36.558593 39.496094 64.222656 78.140625 64.222656 38.640625 0 70.929687-27.660156 78.140625-64.21875.667969.058594 1.339844.09375 2.015625.09375 12.984375 0 23.546875-10.5625 23.546875-23.546875 0-11.066406-7.675781-20.367188-17.980469-22.875 2.125-.78125 4.074219-1.597656 5.808594-2.46875 2.546875-1.269531 4.15625-3.871094 4.15625-6.71875v-40.078125c0-30.664063-24.949219-55.609375-55.609375-55.609375h-80.15625c-30.664062 0-55.609375 24.945312-55.609375 55.609375v40.078125c0 2.847656 1.609375 5.449219 4.152344 6.71875 1.734375.867188 3.683593 1.6875 5.8125 2.46875-10.308594 2.507812-17.980469 11.808594-17.980469 22.875 0 12.984375 10.5625 23.546875 23.546875 23.546875zm80.15625 49.09375c-35.636719 0-64.628906-28.992187-64.628906-64.625v-25.496094c18.316406 3.3125 41.46875 4.96875 64.628906 4.96875 23.15625 0 46.3125-1.65625 64.625-4.96875v25.496094c0 35.632813-28.992187 64.625-64.625 64.625zm88.671875-72.640625c0 4.695312-3.820312 8.515625-8.515625 8.515625-.171875 0-.34375-.015625-.511719-.027344 0-.15625.011719-.3125.011719-.472656v-16.5c.164063-.011719.332031-.03125.5-.03125 4.695313 0 8.515625 3.820313 8.515625 8.515625zm-169.332031-72.140625c0-22.375 18.207031-40.578125 40.582031-40.578125h80.15625c22.375 0 40.578125 18.203125 40.578125 40.578125v16.53125h-24.546875c-4.152344 0-7.515625 3.363281-7.515625 7.515625 0 4.148438 3.363281 7.515625 7.515625 7.515625h24.546875v3.59375c-33.40625 12.660156-127.90625 12.660156-161.316406 0v-3.59375h101.03125c4.152343 0 7.515625-3.367187 7.515625-7.515625 0-4.152344-3.363282-7.515625-7.515625-7.515625h-101.03125zm.503906 63.625c.167969 0 .332031.023437.5.035156v16.496094c0 .15625.011719.308594.011719.464844-.171875.007812-.339844.035156-.511719.035156-4.699219 0-8.519531-3.820313-8.519531-8.515625s3.820312-8.515625 8.519531-8.515625zm0 0"/><path d="m281.375 128.25c0 4.152344-3.363281 7.515625-7.515625 7.515625-4.148437 0-7.515625-3.363281-7.515625-7.515625 0-4.148438 3.367188-7.515625 7.515625-7.515625 4.152344 0 7.515625 3.367187 7.515625 7.515625zm0 0"/><path d="m216.246094 128.25c0 4.152344-3.363282 7.515625-7.511719 7.515625-4.152344 0-7.515625-3.363281-7.515625-7.515625 0-4.148438 3.363281-7.515625 7.515625-7.515625 4.148437 0 7.511719 3.367187 7.511719 7.515625zm0 0"/><path d="m257.328125 160.3125h-32.0625c-4.152344 0-7.515625 3.363281-7.515625 7.515625 0 4.148437 3.363281 7.515625 7.515625 7.515625h32.0625c4.148437 0 7.515625-3.367188 7.515625-7.515625 0-4.152344-3.367188-7.515625-7.515625-7.515625zm0 0"/><path d="m272.859375 55.609375v-24.046875c0-4.152344-3.367187-7.515625-7.515625-7.515625h-48.09375c-4.152344 0-7.515625 3.363281-7.515625 7.515625v24.046875c0 4.148437 3.363281 7.515625 7.515625 7.515625h48.09375c4.148438 0 7.515625-3.367188 7.515625-7.515625zm-15.03125-7.515625h-33.0625v-9.015625h33.0625zm0 0"/><path d="m209.234375 376.734375h-32.0625c-4.152344 0-7.515625 3.367187-7.515625 7.515625 0 4.152344 3.363281 7.515625 7.515625 7.515625h32.0625c4.148437 0 7.515625-3.363281 7.515625-7.515625 0-4.148438-3.367188-7.515625-7.515625-7.515625zm0 0"/><path d="m257.328125 376.734375h-16.03125c-4.152344 0-7.515625 3.367187-7.515625 7.515625 0 4.152344 3.363281 7.515625 7.515625 7.515625h16.03125c4.148437 0 7.515625-3.363281 7.515625-7.515625 0-4.148438-3.367188-7.515625-7.515625-7.515625zm0 0"/></svg>