<?xml version="1.0" encoding="utf-8"?>
<!-- Generator: Adobe Illustrator 22.1.0, SVG Export Plug-In . SVG Version: 6.00 Build 0)  -->
<svg version="1.1" id="Capa_1" xmlns="http://www.w3.org/2000/svg" xmlns:xlink="http://www.w3.org/1999/xlink" x="0px" y="0px"
	 viewBox="0 0 432 432" style="enable-background:new 0 0 432 432;" xml:space="preserve">
<style type="text/css">
	.st0{stroke:#000000;stroke-width:2;stroke-miterlimit:10;}
</style>
<g>
	<path d="M46.3,353.9c-1,0-2-0.2-3-0.6c-4.1-1.7-6.1-6.3-4.4-10.4L61,288.5c9.5-23.4,26.3-54.3,63.3-55.8c0.3,0,0.6-0.1,0.9-0.1h33
		c0.3,0,0.6,0,0.9,0.1c37,1.5,53.8,32.4,63.3,55.8l2.8,7l59.3-54.8c3.2-3,8.3-2.8,11.3,0.4c3,3.2,2.8,8.3-0.4,11.3l-67.8,62.7
		c-1.9,1.8-4.6,2.5-7.2,1.9c-2.6-0.6-4.7-2.4-5.7-4.8l-7.2-17.7c-11.4-28.2-24.6-42.2-43.1-45.2l-4.7,22.5l6.3,56.6
		c0.3,2.7-0.8,5.4-2.9,7.1l-14,11.3c-1.4,1.1-3.2,1.8-5,1.8h-5c-1.8,0-3.6-0.6-5-1.8l-14-11.3c-2.1-1.7-3.2-4.4-2.9-7.1l6.3-56.6
		l-4.7-22.5c-18.5,3.1-31.7,17.1-43.1,45.2l-22.1,54.4C52.4,352,49.4,353.9,46.3,353.9z M133.7,325.7l8.1,6.5l8.1-6.5l-5.2-46.4
		h-5.8L133.7,325.7z M138.2,263.3h7.1l3.1-14.7h-13.3L138.2,263.3z M385.7,328.4H264.1c-4.4,0-8-3.6-8-8s3.6-8,8-8h113.6V82H60.6
		v168.3c0,4.4-3.6,8-8,8s-8-3.6-8-8V74c0-4.4,3.6-8,8-8h333.1c4.4,0,8,3.6,8,8v246.3C393.7,324.8,390.1,328.4,385.7,328.4z
		 M181.3,290.5c-4.4,0-8-3.6-8-8v-1.1c0-4.4,3.6-8,8-8s8,3.6,8,8v1.1C189.3,286.9,185.7,290.5,181.3,290.5z M141.7,218
		c-24.3,0-44-19.7-44-44s19.7-44,44-44c2.9,0,5.8,0.3,8.5,0.8c0.2,0,0.3,0.1,0.5,0.1c20,4.2,35,21.9,35,43.1
		C185.7,198.2,166,218,141.7,218z M127.4,149.8c-8.2,4.9-13.7,13.9-13.7,24.1c0,15.4,12.6,28,28,28s28-12.6,28-28
		c0-11.7-7.2-21.7-17.4-25.9c-3.7,4.8-8.3,8.9-13.6,11.8c-3.9,2.2-8.7,0.8-10.9-3.1C126.6,154.6,126.5,152,127.4,149.8z
		 M342.3,164.5h-41.1c-4.4,0-8-3.6-8-8s3.6-8,8-8h41.1c4.4,0,8,3.6,8,8S346.8,164.5,342.3,164.5z M264.1,164.5h-15.3
		c-4.4,0-8-3.6-8-8s3.6-8,8-8h15.3c4.4,0,8,3.6,8,8S268.5,164.5,264.1,164.5z M342.3,131.1h-82.1c-4.4,0-8-3.6-8-8s3.6-8,8-8h82.1
		c4.4,0,8,3.6,8,8S346.8,131.1,342.3,131.1z M260.2,45.7h-82.1c-4.4,0-8-3.6-8-8s3.6-8,8-8h82.1c4.4,0,8,3.6,8,8
		S264.6,45.7,260.2,45.7z"/>
	<g>
		<path d="M240,354.9c-8.4,0-15.1-6.8-15.1-15.1c0-8.4,6.8-15.1,15.1-15.1c1,0,2,0.1,2.9,0.3c0.1,0,0.1,0,0.2,0
			c6.9,1.4,12,7.5,12,14.8C255.1,348.1,248.3,354.9,240,354.9z"/>
		<g>
			<path class="st0" d="M246.1,365.6h-14c-6.4,1.1-10.9,5.9-14.8,15.6l-7.6,18.7c-0.4,1.1-1.5,1.7-2.6,1.7c-0.3,0-0.7-0.1-1-0.2
				c-1.4-0.6-2.1-2.2-1.5-3.6l7.6-18.7c3.3-8.1,9.1-18.7,21.8-19.2c0.1,0,0.2,0,0.3,0h11.4c0.1,0,0.2,0,0.3,0"/>
			<path class="st0" d="M235.8,359.9c0.1,0,0.2,0,0.3,0h11.4c0.1,0,0.2,0,0.3,0c12.7,0.5,18.5,11.2,21.8,19.2l7.6,18.7
				c0.6,1.4-0.1,3-1.5,3.6c-0.3,0.1-0.7,0.2-1,0.2c-1.1,0-2.1-0.6-2.6-1.7l-7.6-18.7c-3.9-9.7-8.5-14.5-14.8-15.6h-14"/>
		</g>
	</g>
	<g>
		<path d="M198.2,355.5c-8.4,0-15.1-6.8-15.1-15.1s6.8-15.1,15.1-15.1c1,0,2,0.1,2.9,0.3c0.1,0,0.1,0,0.2,0c6.9,1.4,12,7.5,12,14.8
			C213.4,348.7,206.6,355.5,198.2,355.5z"/>
		<g>
			<path class="st0" d="M204.4,366.2h-14c-6.4,1.1-10.9,5.9-14.8,15.6l-7.6,18.7c-0.4,1.1-1.5,1.7-2.6,1.7c-0.3,0-0.7-0.1-1-0.2
				c-1.4-0.6-2.1-2.2-1.5-3.6l7.6-18.7c3.3-8.1,9.1-18.7,21.8-19.2c0.1,0,0.2,0,0.3,0H204c0.1,0,0.2,0,0.3,0"/>
			<path class="st0" d="M194,360.5c0.1,0,0.2,0,0.3,0h11.4c0.1,0,0.2,0,0.3,0c12.7,0.5,18.5,11.2,21.8,19.2l7.6,18.7
				c0.6,1.4-0.1,3-1.5,3.6c-0.3,0.1-0.7,0.2-1,0.2c-1.1,0-2.1-0.6-2.6-1.7l-7.6-18.7c-3.9-9.7-8.5-14.5-14.8-15.6h-14"/>
		</g>
	</g>
</g>
</svg>
