<?xml version="1.0" encoding="utf-8"?>
<!-- Generator: Adobe Illustrator 22.1.0, SVG Export Plug-In . SVG Version: 6.00 Build 0)  -->
<svg version="1.1" id="Layer_1" xmlns="http://www.w3.org/2000/svg" xmlns:xlink="http://www.w3.org/1999/xlink" x="0px" y="0px"
	 viewBox="0 0 64 64" style="enable-background:new 0 0 64 64;" xml:space="preserve">
<g>
	<path d="M48,62v-7h-8v-2h8v-5h2v14H48z M41.3,24.9l-0.7-1.9c-1.6,0.6-3.3,0.8-5,0.8H34v2h1.6C37.6,25.9,39.5,25.6,41.3,24.9z
		 M14,16v4h6c0.6,0,1,0.4,1,1v17.4c0.2-0.1,0.4-0.1,0.6-0.2l6.3-1.3l3.2-2.4v-3.2c-1.7-1.2-3-3.1-3.5-5.1c-0.3-1-0.4-2.1-0.5-3.2h0
		c-2.2,0-4-1.8-4-4c0-1.8,1.2-3.4,2.9-3.9c-0.2-0.8-0.2-1.6,0.1-2.3V9c0-3.9,3.1-7,7-7h8c3.9,0,7,3.1,7,7v3.8
		c0.3,0.7,0.3,1.6,0.1,2.3c2.1,0.6,3.4,2.8,2.8,4.9C50.4,21.8,48.8,23,47,23h0c-0.1,1.1-0.2,2.1-0.5,3.2c-0.5,1.9-1.6,3.7-3.2,4.9
		c-0.1,0.1-0.2,0.1-0.3,0.2v3.2l3.2,2.1l4.8,0.7c3.4,0.5,6,3.5,6,6.9V62h-2V44.2c0-2.5-1.8-4.6-4.3-5L48.9,39l0,0l-2.2-0.3L46,47.1
		c0,0.6-0.5,1-1.1,0.9c-0.1,0-0.3-0.1-0.4-0.1l-4.4-2.5L38,51.2V62h-2V51.2l-2.1-5.8l-4.4,2.5c-0.5,0.3-1.1,0.1-1.4-0.4
		c-0.1-0.1-0.1-0.3-0.1-0.4L27.3,39l-2.1,0.5l0,0L22,40.2c-0.3,0.1-0.7,0.2-1,0.3v8.7c0,1.4-0.8,2.7-2,3.5v2.5l5.2-7.7
		c0.3-0.5,0.9-0.6,1.4-0.3c0.3,0.2,0.4,0.5,0.4,0.8v5h8v2h-8v7h-2V51.3l-5.7,8.4c-0.6,0.9-1.5,1.6-2.5,2h0c-0.2,0.1-0.3,0.1-0.4,0.1
		c-0.1,0-0.3,0.1-0.4,0.1h0h0C14.6,62,14.3,62,14,62c-0.1,0-0.3,0-0.4,0c-0.1,0-0.3,0-0.4-0.1c-0.2,0-0.4-0.1-0.6-0.1
		c-1.9-0.5-3.3-2.2-3.5-4.1C9,57.4,9,57.2,9,57V43c0-0.1,0-0.2,0.1-0.4C9,42.4,9,42.2,9,42v-6c0-1.1,0.6-2.1,1.6-2.6l-1.2-0.6
		C7.9,32.1,7,30.6,7,29V15c0-3.3,2.7-6,6-6h2c3.3,0,6,2.7,6,6c0,0.6-0.4,1-1,1H14z M37,48l1.4-4h-2.9L37,48z M44.7,38l-2.1-1.4
		l-1.9,6.8l3.4,2L44.7,38z M43.9,16.1c1.1,0.2,2.2-0.6,2.3-1.7c0-0.1,0-0.3,0-0.5H27.8c-0.1,1.1,0.8,2.1,1.9,2.2c0.2,0,0.3,0,0.5,0
		l2.7-0.5c2.7-0.5,5.5-0.5,8.2,0L43.9,16.1z M47,17v4c1.1,0,2-0.9,2-2S48.1,17,47,17z M28,12h18V9c0-2.8-2.2-5-5-5h-8
		c-2.8,0-5,2.2-5,5V12z M27,21v-4l0,0c-1.1,0-2,0.9-2,2S25.9,21,27,21L27,21z M36.3,31h1.5c3.2,0,6-2.2,6.8-5.3
		c0.3-1.2,0.5-2.5,0.5-3.7v-3.9c-0.3,0.1-0.5,0.1-0.8,0.1c-0.2,0-0.5,0-0.7-0.1L42.9,18c0.1,0.2,0.1,0.3,0.1,0.5
		c0,0.8-0.7,1.5-1.5,1.5c-0.8,0-1.5-0.7-1.5-1.5c0-0.3,0.1-0.7,0.3-0.9c-2.2-0.3-4.4-0.3-6.6,0c0.5,0.7,0.4,1.6-0.3,2.1
		s-1.6,0.4-2.1-0.3c-0.2-0.3-0.3-0.6-0.3-0.9c0-0.2,0-0.3,0.1-0.5l-0.6,0.1c-0.5,0.1-1,0.1-1.5,0V22c0,1.2,0.2,2.5,0.5,3.7
		C30.2,28.8,33,31,36.3,31z M33,32.4v2.5l2,7.1h4l2-7.1v-2.5c-1,0.4-2.1,0.6-3.3,0.6h-1.5C35.1,33,34,32.8,33,32.4z M29.3,38.3
		l0.6,7.1l3.4-2l-1.9-6.7L29.3,38.3z M9,28h4v-2H9V28z M19,36c0-0.6-0.4-1-1-1h-6c-0.6,0-1,0.4-1,1v6c0,0.6,0.4,1,1,1h6
		c0.6,0,1-0.4,1-1V36z M14.6,59.9C14.6,59.9,14.6,59.9,14.6,59.9c0.2,0,0.3-0.1,0.5-0.1l0,0c1.1-0.5,1.9-1.6,1.9-2.8v-3.8l0,0
		c-0.1,0-0.1,0-0.2,0C14.6,53,13,51.2,13,49v-4h-1c-0.3,0-0.7-0.1-1-0.2v12.1c0,0.1,0,0.3,0,0.4c0.1,1.2,1,2.2,2.1,2.5
		c0.1,0,0.2,0.1,0.3,0.1c0.1,0,0.1,0,0.2,0s0.1,0,0.2,0c0.1,0,0.1,0,0.2,0C14.2,60,14.4,60,14.6,59.9z M19,49.2v-4.4
		c-0.3,0.1-0.7,0.2-1,0.2h-3v4c0,1.1,0.8,2.1,1.9,2.2C18,51.2,18.9,50.4,19,49.2C19,49.2,19,49.2,19,49.2L19,49.2z M19,22H9v2h5
		c0.6,0,1,0.4,1,1v4c0,0.6-0.4,1-1,1H9.2c0.2,0.4,0.6,0.8,1,1l4,2H18c0.3,0,0.7,0.1,1,0.2V22z M12,20v-5c0-0.6,0.4-1,1-1h5.9
		c-0.5-1.8-2-3-3.9-3h-2c-2.2,0-4,1.8-4,4v5H12z M34,10h6V8h-6V10z"/>
</g>
</svg>
