<svg xmlns="http://www.w3.org/2000/svg" xmlns:xlink="http://www.w3.org/1999/xlink" width="638" height="612.585" viewBox="0 0 638 612.585"><defs><style>.a{fill:url(#a);}.b,.m{fill:#fff;}.c,.e{fill:#862124;}.c,.h,.l,.m{opacity:0.2;}.d{fill:url(#c);}.f{fill:#e0e0e0;}.g{fill:#f5f5f5;}.h,.i{fill:#69f0ae;}.j{fill:url(#d);}.k{fill:url(#e);}</style><linearGradient id="a" x1="0.5" y1="1" x2="0.5" gradientUnits="objectBoundingBox"><stop offset="0" stop-color="gray" stop-opacity="0.251"/><stop offset="0.54" stop-color="gray" stop-opacity="0.122"/><stop offset="1" stop-color="gray" stop-opacity="0.102"/></linearGradient><linearGradient id="c" x1="0" y1="0.5" x2="1" y2="0.5" xlink:href="#a"/><linearGradient id="d" x1="0.5" x2="0.5" xlink:href="#a"/><linearGradient id="e" x1="0.5" x2="0.5" xlink:href="#a"/></defs><rect class="a" width="539.984" height="612.586" transform="translate(98.016)"/><rect class="b" width="522.745" height="589.902" transform="translate(106.184 11.801)"/><rect class="c" width="296.763" height="188.767" transform="translate(53.543 108.907)"/><rect class="a" width="340.326" height="193.302" transform="translate(0 82.582)"/><rect class="b" width="332.158" height="160.638" transform="translate(3.633 110.719)"/><rect class="d" width="115.254" height="121.61" transform="translate(26.316 124.333)"/><rect class="e" width="108.907" height="116.165" transform="translate(29.949 127.055)"/><path class="b" d="M334.563,276.968c-.813-6.9-2.032-13.817-4.673-20.27s-6.884-12.386-12.792-16.052a14.629,14.629,0,0,0-7.071-2.438c-4.624-.163-8.9,2.958-11.281,6.925a32.291,32.291,0,0,0-2.1,4.283,9.972,9.972,0,0,0-8.274,9.135,25.422,25.422,0,0,0,3.592,48v4.332a25.512,25.512,0,0,0-19.059,24.6v11.8h50.821V335.469a25.512,25.512,0,0,0-19.042-24.6v-4.332a25.422,25.422,0,0,0,19.059-24.61v-.179l2.861,6.364c2.723,6.063,5.51,12.565,4.446,19.132C336.261,298.3,335.83,287.241,334.563,276.968Z" transform="translate(-219.747 -104.042)"/><rect class="e" width="332.158" height="24.504" transform="translate(3.633 86.215)"/><rect class="f" width="126.145" height="8.168" transform="translate(183.321 161.085)"/><rect class="g" width="126.145" height="8.168" transform="translate(183.321 195.577)"/><rect class="c" width="74.414" height="8.168" transform="translate(182.419 178.331)"/><rect class="h" width="50.821" height="8.168" transform="translate(182.419 212.816)"/><rect class="i" width="50.821" height="8.168" transform="translate(242.31 212.816)"/><rect class="f" width="438.343" height="15.426" transform="translate(150.649 341.236)"/><rect class="f" width="146.114" height="15.426" transform="translate(150.649 374.811)"/><rect class="i" width="146.114" height="15.426" transform="translate(442.878 374.811)"/><rect class="f" width="438.343" height="15.426" transform="translate(150.649 408.393)"/><rect class="f" width="438.343" height="15.426" transform="translate(150.649 441.975)"/><rect class="j" width="46.285" height="19.059" transform="translate(148.837 473.737)"/><rect class="e" width="43.563" height="15.426" transform="translate(150.649 475.55)"/><rect class="i" width="43.563" height="15.426" transform="translate(346.682 475.55)"/><rect class="i" width="43.563" height="15.426" transform="translate(545.429 475.55)"/><rect class="k" width="258.646" height="58.086" transform="translate(335.791 525.468)"/><rect class="e" width="248.666" height="44.473" transform="translate(340.326 531.816)"/><rect class="l" width="248.666" height="44.473" transform="translate(340.326 531.816)"/><rect class="a" width="164.263" height="125.243" transform="translate(430.174 74.414)"/><rect class="e" width="152.47" height="108.907" transform="translate(436.53 82.582)"/><rect class="m" width="152.47" height="108.907" transform="translate(436.53 82.582)"/></svg>