<svg xmlns="http://www.w3.org/2000/svg" width="61.705" height="60" viewBox="0 0 61.705 60"><defs><style>.a{fill:rgba(0,0,0,0.75);}.b{fill:#862124;}</style></defs><g transform="translate(0 -0.5)"><path class="a" d="M61.7,50.734a8.2,8.2,0,0,0-2.873-5.9L39.033,27.448,51.146,15.336l4.47-1.807a1.207,1.207,0,0,0,.632-.59l3.447-7.09a1.205,1.205,0,0,0-.232-1.379L55.929.935a1.2,1.2,0,0,0-1.4-.222L47.546,4.266a1.205,1.205,0,0,0-.571.622L45.169,9.355l-12.5,12.5-5.692-5A12.349,12.349,0,0,0,10.963,1.282a1.2,1.2,0,0,0-.429,1.981L15.94,8.668l-1.008,3.807-3.806,1.007L5.719,8.077a1.2,1.2,0,0,0-1.981.429A12.349,12.349,0,0,0,19.313,24.518l3.1,3.525A6.008,6.008,0,0,0,18.364,29.8l-4.637,4.637a1.206,1.206,0,0,0,1.638,1.768,1.247,1.247,0,0,0,.113-.11l4.591-4.591a3.628,3.628,0,0,1,5.115-.008l1.062,1.056L8.334,50.465a1.205,1.205,0,1,0,1.7,1.7L27.907,34.3l1.867,2.125a3.628,3.628,0,0,1-.765,4L12.5,56.937a3.806,3.806,0,0,1-4.576.671,4.22,4.22,0,0,0-4.809-4.7,3.783,3.783,0,0,1,.456-4.9l4.19-4.191a1.205,1.205,0,0,0-1.7-1.7L1.862,46.3A6.288,6.288,0,0,0,0,50.659a5.951,5.951,0,0,0,1.745,4.349l.09.091a1.2,1.2,0,0,0,1.244.288,1.824,1.824,0,0,1,2.352,2.341,1.2,1.2,0,0,0,.345,1.3A5.975,5.975,0,0,0,9.738,60.5,6.308,6.308,0,0,0,14.2,58.641L30.713,42.128a5.993,5.993,0,0,0,1.593-2.82l14.988,17.06a8.2,8.2,0,0,0,5.9,2.873c.111,0,.221.007.331.007A8.179,8.179,0,0,0,61.7,50.734ZM54.843,3.258l2.308,2.308-2.87,5.9-3.526,1.426L47.61,9.747,49.041,6.21Zm-8.65,8.481,2.569,2.57L37.218,25.854l-2.736-2.4ZM57.6,55.148a5.77,5.77,0,0,1-8.479-.347l-.014-.016L31.8,35.085a6.047,6.047,0,0,0-1.1-1.5L29,31.893,20.569,22.3a1.2,1.2,0,0,0-1.377-.314,9.937,9.937,0,0,1-13.7-10.727l4.42,4.42a1.205,1.205,0,0,0,1.161.313l5.154-1.364a1.206,1.206,0,0,0,.857-.856l1.365-5.155a1.205,1.205,0,0,0-.313-1.16l-4.42-4.42a9.936,9.936,0,0,1,10.727,13.7,1.205,1.205,0,0,0,.314,1.377l7.16,6.291.01.01,4.551,4,0,0L57.242,46.655l.016.013a5.769,5.769,0,0,1,.347,8.48Zm0,0" transform="translate(0 0)"/><path class="b" d="M438.244,412.616a1.215,1.215,0,1,0-.447,1.476A1.226,1.226,0,0,0,438.244,412.616Zm0,0" transform="translate(-383.454 -361.881)"/><path class="b" d="M270.306,244.123a1.216,1.216,0,0,0-1.715,1.724L284.424,261.6a1.216,1.216,0,1,0,1.716-1.724Zm0,0" transform="translate(-236.024 -214.063)"/><path class="b" d="M80.015,312.263a1.216,1.216,0,1,0,.152-1.535A1.228,1.228,0,0,0,80.015,312.263Zm0,0" transform="translate(-70.109 -272.543)"/></g></svg>