<svg xmlns="http://www.w3.org/2000/svg" width="51.2" height="32" viewBox="0 0 51.2 32"><defs><style>.a{fill:#862124;}.b{fill:rgba(0,0,0,0.75);}</style></defs><g transform="translate(-0.001 0)"><path class="a" d="M404.108,301.054A1.054,1.054,0,1,1,403.054,300,1.054,1.054,0,0,1,404.108,301.054Zm0,0" transform="translate(-361.888 -270.108)"/><path class="b" d="M41.2,12a10.011,10.011,0,0,0-2,.2V1a1,1,0,0,0-1-1h-6a1,1,0,1,0,0,2h5V6H36.1a8.51,8.51,0,0,0-8.5,8.5,6.477,6.477,0,0,1-1.911,4.6L20.987,5H22.6a1,1,0,0,0,0-2h-6a1,1,0,0,0,0,2h2.279L20.7,10.462l-4.172,3.961A9.892,9.892,0,0,0,10,12a10,10,0,1,0,9.95,11H21.1a8.5,8.5,0,0,0,8.5-8.5A6.508,6.508,0,0,1,36.1,8h1.1v4.834a10,10,0,0,0-.843,17.917A1,1,0,1,0,37.327,29a8,8,0,0,1-.127-13.93V19a1,1,0,0,0,.293.707l4.5,4.5a1,1,0,1,0,1.414-1.414L39.2,18.585V14.252A8,8,0,0,1,45.073,29a1,1,0,0,0,.97,1.749A10,10,0,0,0,41.2,12ZM16.444,17.261A7.948,7.948,0,0,1,17.936,21h-5.43ZM10,14a7.913,7.913,0,0,1,5.067,1.811L9.6,21H2.065A8.01,8.01,0,0,1,10,14Zm0,16a8.011,8.011,0,0,1-7.935-7h15.87A8.011,8.011,0,0,1,10,30Zm9.95-9A9.933,9.933,0,0,0,17.9,15.874L21.4,12.557l2.589,7.767A6.48,6.48,0,0,1,21.1,21Zm0,0" transform="translate(0 0)"/></g></svg>