 <svg
              version="1.1"
              xmlns="http://www.w3.org/2000/svg"
              xmlns:xlink="http://www.w3.org/1999/xlink"
              viewBox="0 0 511 511"
              width="50px"
              height="50px"
            >
              <path
                fill="#404040"
                d="M507.1,95.2l-49.4-49.4C433.3,21.4,400.7,8,365.9,8s-67.3,13.4-91.7,37.9c-3.9,3.9-3.9,10.2,0,14.1
             s10.2,3.9,14.1,0c20.6-20.6,48.2-32,77.6-32s57,11.4,77.6,32l42.3,42.3l-14.1,14.1l-26.6-26.6c0,0,0,0,0,0c0,0,0,0,0,0l-15.7-15.7
             c-16.9-16.9-39.4-26.2-63.5-26.2s-46.6,9.3-63.5,26.2L126.5,250l-14.1-14.1l112.4-112.4c3.9-3.9,3.9-10.2,0-14.1
             c-3.9-3.9-10.2-3.9-14.1,0L91.2,228.8l-77.6,77.6c-19.5,19.5-19.5,51.1,0,70.6l112.9,112.9c9.4,9.4,21.9,14.6,35.3,14.6
             c13.4,0,25.9-5.2,35.3-14.6l77.6-77.6c3.9-3.9,3.9-10.2,0-14.1l-29.3-29.3l1-0.3c3-1,5.3-3.3,6.3-6.3l3.9-11.6l11.6-3.9
             c3-1,5.3-3.3,6.3-6.3l3.9-11.6l11.6-3.9c3-1,5.3-3.3,6.3-6.3l3.9-11.6l11.6-3.9c3-1,5.3-3.3,6.3-6.3l3.9-11.6l11.6-3.9
             c3-1,5.3-3.3,6.3-6.3l3.9-11.6l11.6-3.9c3-1,5.3-3.3,6.3-6.3l3.9-11.6l11.6-3.9c3-1,5.3-3.3,6.3-6.3l3.9-11.6l11.6-3.9
             c3-1,5.3-3.3,6.3-6.3l3.9-11.6l11.6-3.9c3-1,5.3-3.3,6.3-6.3l3.9-11.6l11.6-3.9c3-1,5.3-3.3,6.3-6.3l3.9-11.6l11.6-3.9
             c3-1,5.3-3.3,6.3-6.3l1.4-4.1c2.6,0,5.2-1,7.1-2.9l28.2-28.2C511,105.5,511,99.1,507.1,95.2z M316.5,88.2
             c13.1-13.1,30.7-20.3,49.4-20.3s36.3,7.2,49.4,20.3l8.7,8.7L198.7,322.2l-58.1-58.1L316.5,88.2z M78.1,369c3.3,0.9,7,0,9.6-2.6
             c3.9-3.9,3.9-10.2,0-14.1l-3.5-3.5c0,0,0,0,0,0s0,0,0,0l-7.1-7.1l21.2-21.2l84.7,84.7l-21.2,21.2l-7.1-7.1c0,0,0,0,0,0l-3.5-3.5
             c-3.9-3.9-10.2-3.9-14.1,0c-2.6,2.6-3.5,6.3-2.6,9.6l-22.1,22.1l-56.5-56.5L78.1,369z M183,475.8c-11.7,11.7-30.7,11.7-42.3,0
             l-14.1-14.1l21.2-21.2l7.1,7.1c1.9,1.9,4.4,2.9,7.1,2.9c2.6,0,5.2-1.1,7.1-2.9l35.3-35.3c3.9-3.9,3.9-10.2,0-14.1l-98.8-98.8
             c-1.9-1.9-4.4-2.9-7.1-2.9c-2.6,0-5.2,1-7.1,2.9l-35.3,35.3c-3.9,3.9-3.9,10.2,0,14.1l7.1,7.1L41.8,377l-14.1-14.1
             c-11.7-11.7-11.7-30.7,0-42.3L98.3,250l21.2,21.2l72.2,72.2c0,0,0,0,0,0c0,0,0,0,0,0l28.1,28.2c0.1,0.1,0.2,0.2,0.2,0.2l33.5,33.5
             L183,475.8z M441.4,137.4c-3,1-5.3,3.3-6.3,6.3l-3.9,11.6l-11.6,3.9c-3,1-5.3,3.3-6.3,6.3l-3.9,11.6l-11.6,3.9c-3,1-5.3,3.3-6.3,6.3
             l-3.9,11.6l-11.6,3.9c-3,1-5.3,3.3-6.3,6.3l-3.9,11.6l-11.6,3.9c-3,1-5.3,3.3-6.3,6.3l-3.9,11.6l-11.6,3.9c-3,1-5.3,3.3-6.3,6.3
             l-3.9,11.6l-11.6,3.9c-3,1-5.3,3.3-6.3,6.3l-3.9,11.6l-11.6,3.9c-3,1-5.3,3.3-6.3,6.3l-3.9,11.6l-11.6,3.9c-3,1-5.3,3.3-6.3,6.3
             l-3.9,11.6l-11.6,3.9c-3,1-5.3,3.3-6.3,6.3l-3.9,11.6l-5.7,1.9l-16.8-16.8L438.1,111l16.8,16.8l-1.9,5.7L441.4,137.4z"
              />
              <path
                fill="#404040"
                d="M249.5,94.6c2.6,0,5.1-1,7.1-2.9l0,0c3.9-3.9,3.9-10.2,0-14.1c-3.9-3.9-10.2-3.9-14.1,0
             c-3.9,3.9-3.9,10.2,0,14.1C244.4,93.7,246.9,94.6,249.5,94.6z"
              />
              <path
                fill="#404040"
                d="M112.4,401.1c2.4,0,4.8-0.9,6.7-2.6c4.1-3.7,4.4-10,0.7-14.1l0,0c-3.7-4.1-10-4.4-14.1-0.7
             c-4.1,3.7-4.4,10-0.7,14.1C107,400,109.7,401.1,112.4,401.1z"
              />
            </svg>