<svg version="1.1"  xmlns="http://www.w3.org/2000/svg" xmlns:xlink="http://www.w3.org/1999/xlink"
	 viewBox="0 0 512 512" >
<path fill='#404040' d="M199,254.9h-13.6c-9.5,0-17.3-7.8-17.3-17.3v-13.6c0-9.6,7.8-17.3,17.3-17.3H199c9.5,0,17.3,7.8,17.3,17.3v13.6
	C216.3,247.1,208.5,254.9,199,254.9z M185.4,221.6c-1.3,0-2.4,1.1-2.4,2.4v13.6c0,1.3,1.1,2.4,2.4,2.4H199c1.3,0,2.4-1.1,2.4-2.4
	v-13.6c0-1.3-1.1-2.4-2.4-2.4H185.4z"/>
<path fill='#404040' class="st0" d="M472.7,393.5h-6v-12.9c0-8.8-6.6-16.1-15.1-17.2V246.1c8.7-2.7,15.1-10.8,15.1-20.4v-68.9
	c0-10.4-7.5-19.2-17.5-21c-6.1-33.2-23.4-63.3-49.4-85.5c-3.1-2.7-7.9-2.3-10.5,0.8c-2.7,3.1-2.3,7.9,0.8,10.5
	c22.5,19.3,37.9,45.2,43.8,73.8h-27c-12.1-46.2-54.2-79.2-102.4-79.2c-44.8,0-85.1,28.9-99.9,71h-27.5
	c15.6-56.9,67.8-97.3,127.4-97.3c20.7,0,41.3,4.9,59.6,14.3c3.7,1.9,8.2,0.4,10.1-3.3c1.9-3.7,0.4-8.2-3.3-10.1
	C350.5,20.5,327.6,15,304.6,15c-67.7,0-126.8,46.9-142.8,112.3c-9.4,0.4-17,8.2-17,17.8v13.8c-27.8,1.3-63.6,8.5-93,33
	C17.4,220.6,0,266.1,0,327v131.6c0,14.9,12.1,27.1,27.1,27.1h139.3c11.7,7.8,25.7,12.3,40.8,12.3c40.7,0,73.8-33.1,73.8-73.8
	c0-24.4-11.9-46.1-30.2-59.5l0.3-65.2c0-4.1-3.3-7.5-7.4-7.5c0,0,0,0,0,0c-4.1,0-7.5,3.3-7.5,7.4l-0.3,56.8
	c-8.8-3.7-18.5-5.8-28.7-5.8c-40.7,0-73.8,33.1-73.8,73.8c0,17.6,6.2,33.8,16.6,46.5H99.3V345.9c0-0.1,0-0.1,0-0.2
	c-2-89.3,28-145.6,91.7-172.2h33c6.7,0,12.1,5.4,12.1,12.1v79.2c0,4.1,3.3,7.5,7.5,7.5c4.1,0,7.5-3.3,7.5-7.5v-79.2
	c0-11.6-7.3-21.5-17.5-25.3V145c0-8.2-5.6-15.1-13.1-17.2c13.8-33.8,47.2-56.7,84.2-56.7c40.9,0,76.7,27.6,87.5,66.6
	c-6.9,3.5-11.7,10.7-11.7,19v68.9c0,9.6,6.4,17.7,15.1,20.4v117.2c-8.5,1.1-15.1,8.4-15.1,17.2v12.9h-7.2
	c-21.7,0-39.3,17.6-39.3,39.3V453c0,10.5,8.5,19,19,19H493c10.5,0,19-8.5,19-19v-20.3C512,411.1,494.4,393.5,472.7,393.5z
	 M207.1,365.3c32.5,0,58.9,26.4,58.9,58.9S239.6,483,207.1,483c-32.4,0-58.8-26.4-58.8-58.9S174.7,365.3,207.1,365.3z M105.3,233.1
	c-14.9,30-21.9,67.9-20.9,112.9v124.7H27.1c-6.7,0-12.1-5.4-12.1-12.1V327c0-133.5,87.3-153.4,139.4-153.4h4.4
	C135.5,188.4,117.6,208.4,105.3,233.1z M189.6,158.6C189.6,158.6,189.6,158.6,189.6,158.6h-29.9V145c0-1.5,1.3-2.8,2.8-2.8h5.2h0h0
	h42.5h0h5.6c1.5,0,2.8,1.3,2.8,2.8v13.6H189.6z M410.4,247h26.2v116.1h-26.2V247z M395.3,156.8c0-3.5,2.9-6.4,6.4-6.4h41.1h0h0h2.5
	c3.5,0,6.4,2.9,6.4,6.4v68.9c0,3.5-2.9,6.4-6.4,6.4h-43.6c-3.5,0-6.4-2.9-6.4-6.4V156.8z M395.3,380.5c0-1.3,1.1-2.5,2.5-2.5h51.5
	c1.3,0,2.5,1.2,2.5,2.5v12.9h-56.4V380.5z M497.1,453c0,2.3-1.8,4.1-4.1,4.1H352.9c-2.2,0-4.1-1.9-4.1-4.1v-20.3
	c0-13.4,10.9-24.4,24.3-24.4h99.5c13.4,0,24.3,10.9,24.3,24.4V453z"/>
<path fill='#404040' class="st0" d="M207.1,454.3c16.6,0,30.1-13.5,30.1-30.1c0-16.6-13.5-30.1-30.1-30.1S177,407.6,177,424.2
	S190.5,454.3,207.1,454.3z M207.1,409c8.4,0,15.2,6.8,15.2,15.2s-6.8,15.2-15.2,15.2s-15.2-6.8-15.2-15.2S198.8,409,207.1,409z"/>
</svg>
