<svg xmlns="http://www.w3.org/2000/svg" width="82.081" height="60" viewBox="0 0 82.081 60"><defs><style>.a{fill:rgba(0,0,0,0.75);}</style></defs><g transform="translate(0 -68.867)"><g transform="translate(0 68.867)"><g transform="translate(0 0)"><path class="a" d="M66.45,88.05H61.283L62.84,70.173c0-.032,0-.064,0-.1,0,0,0-.005,0-.008h0a1.2,1.2,0,0,0-.725-1.1l-.011-.005c-.027-.011-.055-.021-.082-.03l-.031-.011c-.023-.007-.046-.012-.069-.018l-.049-.012-.062-.01-.059-.008h-.01c-.021,0-.042,0-.063,0l-.042,0H37.034a1.2,1.2,0,0,0,0,2.4h23.3L57.937,98.746s0,0,0,.006l-.6,6.932H15.553l.7-7.214h7.955a1.2,1.2,0,0,0,0-2.4H16.485l1.476-15.229H30.622a1.2,1.2,0,1,0,0-2.4H18.194l.694-7.16H32.225a1.2,1.2,0,0,0,0-2.4H17.795a1.2,1.2,0,0,0-1.173.949l0,.012c-.006.03-.01.061-.014.091,0,.01,0,.019,0,.029v.006l-.821,8.478H1.2a1.2,1.2,0,0,0,0,2.4H15.545L14.069,96.066H9.78a1.2,1.2,0,0,0,0,2.4h4.057l-.8,8.292v0L11.79,119.587v.009c0,.017,0,.033,0,.05s0,.044,0,.066c0,0,0,0,0,0,0,.031,0,.061,0,.092,0,.01,0,.02,0,.029,0,.031.008.062.014.092,0,.009,0,.018,0,.027s.011.045.017.068.008.032.012.048l0,.013a1.2,1.2,0,0,0,.286.471l.007.007c.013.013.027.024.04.037a1.193,1.193,0,0,0,.279.191c.021.011.042.022.064.031l.02.007c.03.012.06.024.092.033l.008,0c.036.011.071.02.108.027l.014,0c.035.007.07.012.106.016h0q.059.006.117.006h5.354a9.152,9.152,0,0,0,18.146,0H55.774a9.152,9.152,0,0,0,18.147,0h5.356c.04,0,.08,0,.119-.006l.021,0c.031,0,.062-.008.093-.014l.039-.009.07-.018.046-.015.059-.022.049-.021.052-.025.048-.026.049-.03.045-.03.048-.036.039-.032c.017-.014.032-.029.048-.043l.033-.032c.017-.017.033-.035.048-.053l.025-.029c.018-.022.034-.044.05-.067l.017-.023c.02-.029.038-.059.055-.091l0-.006c.018-.033.035-.067.05-.1,0-.01.007-.021.011-.031s.019-.05.028-.076.009-.034.014-.051.011-.04.015-.06.007-.037.01-.055.006-.032.008-.049c.051-.408.993-7.962,1.413-12.847,0,0,0-.009,0-.014.121-1.408.2-2.594.2-3.32A15.648,15.648,0,0,0,66.45,88.05Zm-5.377,2.405h4.919l-.628,7.214H60.445ZM27.415,126.462a6.75,6.75,0,1,1,6.75-6.75A6.758,6.758,0,0,1,27.415,126.462Zm37.432,0a6.75,6.75,0,1,1,6.75-6.75A6.757,6.757,0,0,1,64.847,126.462Zm13.365-7.953H73.921a9.152,9.152,0,0,0-18.147,0H36.488a9.152,9.152,0,0,0-18.147,0H14.311l1.01-10.421H58.437a1.183,1.183,0,0,0,.12-.006l.022,0c.031,0,.063-.008.093-.014l.039-.01c.024-.006.048-.011.072-.018l.047-.016.06-.022.049-.022.053-.025.049-.027.049-.03.045-.031.047-.035.041-.034.045-.041.036-.036.042-.046.032-.038c.013-.017.026-.034.038-.052l.028-.04c.012-.018.023-.037.034-.056s.017-.028.024-.043.019-.038.028-.058.014-.031.021-.047.014-.038.021-.058.012-.034.017-.052.01-.038.014-.057.01-.038.013-.057.006-.038.009-.057.006-.039.008-.06c0,0,0-.006,0-.008l.6-6.918H66.45c3.684,0,5.345,1.909,7.1,3.93,1.451,1.667,3.072,3.528,5.826,3.982C79.03,111.682,78.465,116.43,78.212,118.509Zm1.374-12.935c-1.787-.364-2.886-1.62-4.218-3.15-1.666-1.913-3.7-4.248-7.6-4.683l.622-7.142a13.246,13.246,0,0,1,11.283,13.082C79.676,104.132,79.643,104.786,79.586,105.574Z" transform="translate(0 -68.867)"/></g></g><g transform="translate(23.056 115.545)"><path class="a" d="M147.838,358.524a4.33,4.33,0,1,0,4.33,4.33A4.335,4.335,0,0,0,147.838,358.524Zm0,6.3a1.968,1.968,0,1,1,1.968-1.968A1.97,1.97,0,0,1,147.838,364.822Z" transform="translate(-143.508 -358.524)"/></g><g transform="translate(60.568 115.545)"><path class="a" d="M381.326,358.524a4.33,4.33,0,1,0,4.33,4.33A4.335,4.335,0,0,0,381.326,358.524Zm0,6.3a1.968,1.968,0,1,1,1.968-1.968A1.97,1.97,0,0,1,381.326,364.822Z" transform="translate(-376.996 -358.524)"/></g><g transform="translate(4.225 88.065)"><g transform="translate(0 0)"><path class="a" d="M33.788,188.527H28.015a1.181,1.181,0,0,0,0,2.362h5.773a1.181,1.181,0,0,0,0-2.362Z" transform="translate(-26.834 -188.527)"/></g></g></g></svg>