<svg xmlns="http://www.w3.org/2000/svg" width="19.152" height="18.281" viewBox="0 0 19.152 18.281"><path d="M13.749,10.346a5.4,5.4,0,0,0-4.173,1.975A5.4,5.4,0,0,0,0,15.749c0,2.333,1.391,5.032,4.135,8.021A39.826,39.826,0,0,0,9.2,28.342l.379.285.379-.285a39.823,39.823,0,0,0,5.062-4.572c2.744-2.989,4.135-5.688,4.135-8.021A5.409,5.409,0,0,0,13.749,10.346Zm.338,12.57a38.4,38.4,0,0,1-4.511,4.126,38.406,38.406,0,0,1-4.511-4.126c-2.487-2.71-3.8-5.188-3.8-7.167a4.139,4.139,0,0,1,7.761-2l.552,1,.552-1a4.139,4.139,0,0,1,7.761,2C17.889,17.728,16.575,20.206,14.087,22.916Z" transform="translate(0 -10.346)"/></svg>