<svg id="Layer_1"  height="35px" viewBox="0 0 512 512" width="35px" 
xmlns="http://www.w3.org/2000/svg">
<path 
d="m361 60v144.81l-50 35-12.33-30.48-17.67 51.48h-50l-13.33-54.14-16.67 33.14-50-35v-144.81z" 
fill="#ff637b">
</path>
<path 
d="m361 60v144.81l-50 35-12.33-30.48-17.67 51.48h-25v-200.81z" 
fill="#e63950"></path>
<path 
d="m231 60v200.81l-30-21v-179.81z" 
fill="#f2f6fc">
</path>
<path d="m311 60v179.81l-30 21v-200.81z" fill="#dce1eb">
</path>
<path 
d="m256 242c-74.44 0-135 60.56-135 135s60.56 135 135 135 135-60.56 135-135-60.56-135-135-135z" 
fill="#fdbf00">
</path>
<path 
d="m391 377c0 74.44-60.56 135-135 135v-270c74.44 0 135 60.56 135 135z" 
fill="#ff9100">
</path>
<path 
d="m344.96 348.09-61.26-9.22-27.7-55.41-27.7 55.41-61.26 9.22 44.13 43.47-10.15 61.12 54.98-28.55 54.98 28.55-10.15-61.12z" 
fill="#ffda2d">
</path>
<path 
d="m300.83 391.56 10.15 61.12-54.98-28.55v-140.67l27.7 55.41 61.26 9.22z" 
fill="#fdbf00">
</path>
<path 
d="m91 0h330v120h-330z" 
fill="#3e5959">
</path>
<path d="m256 0h165v120h-165z" fill="#384949">
</path>
</svg>