<svg xmlns="http://www.w3.org/2000/svg" width="20" height="19" viewBox="0 0 20 19"><defs><style>.a{fill:rgba(0,0,0,0.75);}</style></defs><g transform="translate(-5 -5)"><path class="a" d="M15,5A10.165,10.165,0,0,0,7.407,8.322L5,6.869l1.107,4.715,4.963-1.051L8.353,8.893A9.225,9.225,0,0,1,19.6,7.278a8.238,8.238,0,0,1,3.7,10.222,8.971,8.971,0,0,1-9.914,5.306A8.574,8.574,0,0,1,6.111,14.5H5A9.76,9.76,0,0,0,15,24a9.76,9.76,0,0,0,10-9.5A9.76,9.76,0,0,0,15,5Z"/><path class="a" d="M25.246,29.295A7.363,7.363,0,0,0,30.617,23a7.16,7.16,0,0,0-4.167-7.048,8.174,8.174,0,0,0-8.555.91l3.361,2-5.682,1.185a6.908,6.908,0,0,0,1.787,7.414A8.116,8.116,0,0,0,25.246,29.295Zm-2.9-6.937a.367.367,0,0,1,.017-.1.492.492,0,0,1,.015-.049.78.78,0,0,1,.047-.091.517.517,0,0,1,.033-.043c.008-.01.014-.02.022-.029l.013-.011.011-.013,4.16-3.892a.583.583,0,0,1,.786,0,.5.5,0,0,1,0,.735l-3.742,3.5,3.432,2.827a.5.5,0,0,1,.05.734.583.583,0,0,1-.784.047L22.53,22.781l-.013-.013-.013-.01c-.009-.008-.015-.018-.023-.026a.524.524,0,0,1-.038-.043c-.01-.013-.018-.027-.027-.042a.507.507,0,0,1-.026-.047.761.761,0,0,1-.033-.095.479.479,0,0,1-.008-.049.367.367,0,0,1,0-.1Z" transform="translate(-7.898 -7.891)"/></g></svg>