<svg version="1.1" xmlns="http://www.w3.org/2000/svg" xmlns:xlink="http://www.w3.org/1999/xlink" 
	 viewBox="0 0 496 496" height='50px' width='50px'>
<path fill="#404040" d="M296,160c0,4.4-3.6,8-8,8s-8-3.6-8-8s3.6-8,8-8S296,155.6,296,160z"/>
<path fill="#404040" d="M216,160c0,4.4-3.6,8-8,8s-8-3.6-8-8s3.6-8,8-8S216,155.6,216,160z"/>
<path fill="#404040" d="M248,232c17.6,0,32-14.4,32-32h-16c0,8.8-7.2,16-16,16s-16-7.2-16-16h-16C216,217.6,230.4,232,248,232z"/>
<path fill="#404040" d="M416,400h16v-64.2c0-26.9-19.2-50.1-45.7-55L304,265.4V249c11.3-11.1,19.3-25.5,22.5-41.7
	c19-3.1,33.5-19.5,33.5-39.3V99.8c0-24.7-13.5-46.9-35.2-58.3l-10.9-10.9C294.2,10.8,268,0,240.2,0C182.7,0,136,46.7,136,104.2V168
	c0,19.8,14.6,36.2,33.5,39.3c3.2,16.2,11.2,30.6,22.5,41.7v16.3l-49.5,9.3l0.1,0.7L48,180.7V176c0-19.3-13.8-35.5-32-39.2V88H0v240
	h16v-56.8c9-1.8,16.7-6.8,22.4-13.5l40.4,40.4C69.3,308.3,64,321.7,64,335.8V400h16v80H32v16h432v-16h-48V400z M328,190.5v-45
	c9.3,3.3,16,12.1,16,22.5C344,178.4,337.3,187.2,328,190.5z M240.2,16c23.6,0,45.7,9.2,62.3,25.8l12.8,12.8l1.2,0.6
	c17,8.5,27.6,25.6,27.6,44.6v36.4c-4.7-3.5-10.1-6.2-16-7.4V112h-16v7.5c-9.9-1.4-19.1-5.9-26.3-13.1l-4.6-4.6l-5.5,3.6
	c-14.4,9.6-31.1,14.7-48.4,14.7H184v-8h-16v16.8c-5.9,1.2-11.3,3.9-16,7.4v-32C152,55.6,191.5,16,240.2,16z M152,168
	c0-10.4,6.7-19.2,16-22.5v45C158.7,187.2,152,178.4,152,168z M184,192v-56h43.2c18.4,0,36.2-4.8,52-14c9.4,7.7,20.8,12.4,32.9,13.6
	V192c0,35.3-28.7,64-64,64S184,227.3,184,192z M248,272c14.6,0,28.2-4,40-10.8v8.1c-4,4.9-17.4,18.7-40,18.7
	c-22.7,0-35.9-13.7-40-18.7v-8.1C219.8,268,233.4,272,248,272z M196.8,280.8c6.8,7.8,23.8,23.2,51.2,23.2s44.5-15.5,51.2-23.2
	l84.1,15.8c18.9,3.5,32.6,20.1,32.6,39.3V384h-48v-56h-16v52.4c-20.7-36-59.5-60.4-104-60.4c-17.8,0-34.6,4-49.8,10.9l-42.5-42.5
	L196.8,280.8z M176.5,432c1.1-9.9,4.2-19.1,8.9-27.4l75.3,75.3h-57.1c2.8-4.7,4.4-10.1,4.4-16C208,446.5,193.9,432.3,176.5,432z
	 M194.9,391.6c6.7-7.3,14.8-13.3,24-17.4l73.6,73.6c-2.8,4.8-4.5,10.2-4.5,16.2c0,5.9,1.7,11.3,4.4,16h-9.1L194.9,391.6z
	 M303.8,436.5L236.3,369c3.8-0.6,7.7-1,11.7-1c37,0,67.6,28.1,71.5,64C313.8,432.1,308.5,433.8,303.8,436.5z M335.6,432
	c-4.1-44.8-41.8-80-87.6-80s-83.5,35.2-87.6,80h-16c4.1-53.6,49-96,103.6-96s99.5,42.4,103.6,96H335.6z M150.7,370
	c-2.4,3.3-4.7,6.8-6.7,10.4v-17.1L150.7,370z M32,232c0,10.4-6.7,19.2-16,22.5V153.5c9.3,3.3,16,12.1,16,22.5V232z M48,232v-28.7
	l135.6,135.6c-8.3,5.3-15.9,11.6-22.6,18.7L46.3,243C47.3,239.5,48,235.8,48,232z M128,347.3V384H80v-48.2c0-9.9,3.6-19.2,10.1-26.5
	L128,347.3z M96,480v-80h32v32h-16v16h64c8.8,0,16,7.2,16,16s-7.2,16-16,16H96z M304,464c0-8.8,7.2-16,16-16h64v-16h-16v-32h32v80
	h-80C311.2,480,304,472.8,304,464z"/>
<path fill="#404040" d="M480,480h16v16h-16V480z"/>
<path fill="#404040" d="M0,480h16v16H0V480z"/>
</svg>
