<svg
              version="1.1"
              xmlns="http://www.w3.org/2000/svg"
              xmlns:xlink="http://www.w3.org/1999/xlink"
              viewBox="0 0 512 512"
              height="50px"
              width="50px"
            >
<path fill='#404040' d="M502,60h-50V30c0-16.5-13.5-30-30-30H301c-5.5,0-10,4.5-10,10s4.5,10,10,10h121c5.5,0,10,4.5,10,10v80
	c0,5.5-4.5,10-10,10H90c-5.5,0-10-4.5-10-10V30c0-5.5,4.5-10,10-10h121c5.5,0,10-4.5,10-10s-4.5-10-10-10H90C73.5,0,60,13.5,60,30
	v30H10C4.5,60,0,64.5,0,70s4.5,10,10,10h50v30c0,16.5,13.5,30,30,30h332c16.5,0,30-13.5,30-30V80h40v100H256c-5.5,0-10,4.5-10,10v86
	h-20c-16.5,0-30,13.5-30,30v20c0,13,8.4,24.2,20,28.3V482c0,16.5,13.5,30,30,30h20c16.5,0,30-13.5,30-30V354.3
	c11.6-4.1,20-15.2,20-28.3v-20c0-16.5-13.5-30-30-30h-20v-76h236c5.5,0,10-4.5,10-10V70C512,64.5,507.5,60,502,60z M266,492h-20
	c-5.5,0-10-4.5-10-10V356h40v126C276,487.5,271.5,492,266,492z M296,306v20c0,5.5-4.5,10-10,10h-60c-5.5,0-10-4.5-10-10v-20
	c0-5.5,4.5-10,10-10h60C291.5,296,296,300.5,296,306z"/>
<path fill='#404040' d="M266,10c0,5.5-4.5,10-10,10s-10-4.5-10-10s4.5-10,10-10S266,4.5,266,10z"/>
</svg>
