<svg xmlns="http://www.w3.org/2000/svg" width="16.011" height="16" viewBox="0 0 16.011 16"><defs><style>.a{fill:#862124;}</style></defs><g transform="translate(0 -0.188)"><g transform="translate(0 0.188)"><path class="a" d="M16,12.815a.774.774,0,0,1-.237.678L13.511,15.73a1.269,1.269,0,0,1-.4.288,1.646,1.646,0,0,1-.483.153l-.1.009q-.085.008-.22.009a7.814,7.814,0,0,1-1.042-.11A7.917,7.917,0,0,1,9.5,15.535a14.8,14.8,0,0,1-2.364-1.3,17.628,17.628,0,0,1-2.814-2.373A18.573,18.573,0,0,1,2.359,9.629,15.941,15.941,0,0,1,1.1,7.654,10.635,10.635,0,0,1,.393,6.01,8.723,8.723,0,0,1,.071,4.739,4.2,4.2,0,0,1,0,3.9Q.02,3.595.02,3.561a1.647,1.647,0,0,1,.153-.483,1.27,1.27,0,0,1,.288-.4L2.715.425A.747.747,0,0,1,3.257.188a.632.632,0,0,1,.39.127,1.178,1.178,0,0,1,.288.314L5.749,4.069a.825.825,0,0,1,.085.593,1.056,1.056,0,0,1-.288.542l-.831.831a.283.283,0,0,0-.059.11.418.418,0,0,0-.025.127,3.06,3.06,0,0,0,.305.814,7.468,7.468,0,0,0,.627.992,11.009,11.009,0,0,0,1.2,1.347,11.227,11.227,0,0,0,1.356,1.212,7.83,7.83,0,0,0,.992.636,2.635,2.635,0,0,0,.61.246l.212.042a.4.4,0,0,0,.11-.025.283.283,0,0,0,.11-.059l.966-.983a1.038,1.038,0,0,1,.712-.271.886.886,0,0,1,.458.1h.017l3.271,1.932A.853.853,0,0,1,16,12.815Z" transform="translate(0 -0.188)"/></g></g></svg>