<svg xmlns="http://www.w3.org/2000/svg" width="59.391" height="60" viewBox="0 0 59.391 60"><defs><style>.a{fill:rgba(0,0,0,0.75);}</style></defs><g transform="translate(-0.457 0.001)"><path class="a" d="M56.879,6.925a2.969,2.969,0,0,0-2.97,2.969h-.99A18.827,18.827,0,0,0,34.112,28.7a3.945,3.945,0,0,1-1.6,3.167,2.94,2.94,0,0,0-4.722,0,3.946,3.946,0,0,1-1.6-3.167V18.8A16.844,16.844,0,0,0,9.366,1.977H6.214a2.963,2.963,0,0,0-5.757.99V16.821a2.963,2.963,0,0,0,5.757.99H7.386a2.969,2.969,0,0,1,2.97,2.969V28.7a19.584,19.584,0,0,0,4.887,12.826,4.46,4.46,0,0,0,.672,4.365,12.749,12.749,0,0,0,7.161,4.463l4.082.906a1.838,1.838,0,0,1,.891.495,2.969,2.969,0,0,0,5.073-2.1V48.431A16.973,16.973,0,0,0,43.832,43.4,20.836,20.836,0,0,0,49.95,28.7a2.969,2.969,0,0,1,2.97-2.969h1.762a2.958,2.958,0,0,0,5.167-1.979V9.894a2.969,2.969,0,0,0-2.97-2.969ZM30.153,32.655a.989.989,0,0,1,.99.99V46.411l-1.98-.2V33.645a.99.99,0,0,1,.99-.99ZM4.416,16.821a.99.99,0,0,1-1.98,0V2.966a.99.99,0,0,1,1.98,0Zm2.97-.99H6.4V3.956h2.97A14.863,14.863,0,0,1,24.214,18.8v9.9a5.921,5.921,0,0,0,2.97,5.133v12.18a14.985,14.985,0,0,1-3.068-.643,18.178,18.178,0,0,1-5.424-3.2l3.707-.618a.989.989,0,0,0,.756-1.344l-1.591-3.973,1.974-.657-.626-1.88-2.97.99a.989.989,0,0,0-.607,1.307L20.858,39.8l-3.94.656A17.64,17.64,0,0,1,12.335,28.7V20.78a4.955,4.955,0,0,0-4.949-4.948ZM30.852,50.349a1.014,1.014,0,0,1-1.4,0,3.8,3.8,0,0,0-1.866-1.024l-4.081-.907a10.76,10.76,0,0,1-6.045-3.767,2.469,2.469,0,0,1-.524-1.267l.905.754a16.888,16.888,0,0,0,5.7,3.122,19.717,19.717,0,0,0,4.28,1.051,2.829,2.829,0,0,0,3.318.975v.362a.987.987,0,0,1-.29.7Zm22.067-26.6A4.955,4.955,0,0,0,47.97,28.7a19.109,19.109,0,0,1-5.532,13.3,14.961,14.961,0,0,1-9.316,4.469V33.829a5.921,5.921,0,0,0,2.97-5.132A16.845,16.845,0,0,1,52.919,11.873h.99V23.748Zm4.949,0a.99.99,0,0,1-1.98,0V9.894a.99.99,0,0,1,1.98,0Zm0,0" transform="translate(0)"/><path class="a" d="M220.07,438.55a2.887,2.887,0,0,0,2.041-4.929l-1.34-1.34a.992.992,0,0,0-1.4,0l-1.34,1.34a2.889,2.889,0,0,0,2.041,4.929Zm-.639-3.527.639-.639.639.639a.9.9,0,1,1-1.279,0Zm0,0" transform="translate(-189.917 -378.552)"/></g></svg>