<svg version="1.1" xmlns="http://www.w3.org/2000/svg" xmlns:xlink="http://www.w3.org/1999/xlink"
	 viewBox="0 0 484 484" height='#404040' width='#404040'>
<path   fill="#404040" d="M458,55.9c-13.2,0-24,10.7-24,24h-8c-83.7,0.1-151.6,68-151.7,151.7c0,10.1-4.8,19.6-12.9,25.6
	c-4.5-6-11.5-9.6-19-9.6c-7.5,0-14.6,3.6-19,9.6c-8.1-6-12.9-15.5-12.9-25.6v-79.8C210.4,76.8,149.7,16,74.8,16H49.4
	C45.5,5,34.2-1.6,22.8,0.3C11.3,2.3,2.9,12.3,2.9,23.9v111.8c0,11.7,8.4,21.6,19.8,23.6c11.5,2,22.7-4.6,26.6-15.6h9.5
	c13.2,0,24,10.7,24,24v63.9C83,269.7,97,306.4,122.2,335c-4.5,11.9-2.5,25.3,5.4,35.2c14.6,18.2,35,30.9,57.8,36l32.9,7.3
	c2.7,0.6,5.2,2,7.2,4c6.9,6.9,17.2,8.9,26.1,5.2c9-3.7,14.8-12.5,14.8-22.2v-9.8c32.7-2.7,63.4-17.1,86.4-40.6
	c31.5-31.4,49.3-74.1,49.4-118.6c0-13.2,10.7-24,24-24h14.2c6.6,7.4,17.1,10,26.4,6.4c9.3-3.5,15.4-12.5,15.3-22.4V79.8
	C482,66.6,471.3,55.9,458,55.9z M242.5,263.5c4.4,0,8,3.6,8,8v103l-16-1.6V271.5C234.5,267.1,238,263.5,242.5,263.5z M34.8,135.7
	c0,4.4-3.6,8-8,8c-4.4,0-8-3.6-8-8V23.9c0-4.4,3.6-8,8-8c4.4,0,8,3.6,8,8V135.7z M58.8,127.7h-8V31.9h24
	c66.1,0.1,119.7,53.7,119.8,119.8v79.8c0,17.1,9.1,32.9,24,41.4v98.3c-8.4-0.9-16.7-2.6-24.7-5.2c-16-6-30.8-14.7-43.8-25.8l29.9-5
	c2.4-0.4,4.5-1.9,5.6-4c1.2-2.1,1.3-4.6,0.5-6.9l-12.8-32.1l15.9-5.3l-5-15.2l-24,8c-2.1,0.7-3.8,2.2-4.7,4.2s-1,4.3-0.2,6.3
	l12.3,30.7l-31.8,5.3c-23.6-26-36.8-59.8-37-94.9v-63.9C98.7,145.6,80.8,127.8,58.8,127.7z M248.1,406.2c-3.2,3-8.1,3-11.3,0
	c-4.1-4.1-9.3-7-15-8.3l-32.9-7.3c-19.2-4.3-36.4-15-48.8-30.4c-2.3-2.9-3.8-6.5-4.2-10.2l7.3,6.1c13.6,11.3,29.2,19.8,46,25.2
	c11.2,4.1,22.7,7,34.5,8.5c6.1,8.4,17.1,11.6,26.8,7.9v2.9C250.4,402.7,249.6,404.8,248.1,406.2z M426.1,191.6
	c-22,0-39.9,17.9-39.9,39.9c-0.3,40.2-16.3,78.7-44.6,107.3c-20,20.6-46.6,33.3-75.1,36.1V273c14.8-8.5,24-24.3,24-41.4
	c0.1-74.9,60.8-135.7,135.7-135.7h8v95.8H426.1z M466,191.6c0,4.4-3.6,8-8,8c-4.4,0-8-3.6-8-8V79.8c0-4.4,3.6-8,8-8c4.4,0,8,3.6,8,8
	V191.6z"/>
<path  fill="#404040" d="M242.5,484c9.4,0,17.9-5.7,21.5-14.4c3.6-8.7,1.6-18.7-5-25.3l-10.8-10.8c-3.1-3.1-8.2-3.1-11.3,0L226,444.3
	c-6.6,6.7-8.6,16.6-5,25.3C224.6,478.3,233.1,484,242.5,484z M237.3,455.6l5.2-5.2l5.2,5.2c2.8,2.8,2.8,7.4,0,10.3
	c-2.8,2.8-7.4,2.8-10.3,0C234.5,463,234.5,458.4,237.3,455.6z"/>
</svg>
