<svg xmlns="http://www.w3.org/2000/svg" width="30.777" height="25" viewBox="0 0 30.777 25"><defs><style>.a{fill:rgba(0,0,0,0.75);}</style></defs><g transform="translate(-0.001 -57.441)"><g transform="translate(0.001 57.441)"><path class="a" d="M30.778,60.4a12.608,12.608,0,0,1-3.625.994A6.34,6.34,0,0,0,29.928,57.9a12.728,12.728,0,0,1-4.012,1.533,6.319,6.319,0,0,0-10.758,5.756,17.925,17.925,0,0,1-13.012-6.6A6.321,6.321,0,0,0,4.1,67.022a6.314,6.314,0,0,1-2.86-.792v.079A6.32,6.32,0,0,0,6.3,72.5a6.4,6.4,0,0,1-1.664.221A6.06,6.06,0,0,1,3.451,72.6a6.317,6.317,0,0,0,5.9,4.385,12.667,12.667,0,0,1-7.841,2.7A13.418,13.418,0,0,1,0,79.6a17.847,17.847,0,0,0,9.678,2.841c11.614,0,17.963-9.62,17.963-17.963l-.021-.817A12.608,12.608,0,0,0,30.778,60.4Z" transform="translate(-0.001 -57.441)"/></g></g></svg>