<svg xmlns="http://www.w3.org/2000/svg" width="19.507" height="19.5" viewBox="0 0 19.507 19.5"><defs><style>.a{fill:#8b181b;stroke:#862124;stroke-width:0.5px;}</style></defs><path class="a" d="M16.219,2.833A9.5,9.5,0,0,0,.563,12.78a.387.387,0,1,0,.728-.262,8.727,8.727,0,1,1,14.535,3.047l-.055.059c-.033.035-.065.07-.1.1a8.735,8.735,0,0,1-12.343,0l-.053-.055c0-.036,0-.071,0-.106q0-.117,0-.233c0-.026,0-.051,0-.077,0-.051,0-.1.009-.154,0-.03.006-.061.008-.091,0-.046.008-.092.013-.138s.008-.064.012-.1.011-.087.017-.13.011-.066.016-.1.014-.084.021-.126.013-.066.02-.1.016-.082.026-.123.016-.066.024-.1.019-.081.03-.121.018-.066.027-.1.022-.079.034-.118.02-.066.031-.1.025-.078.038-.116.023-.065.034-.1.028-.076.042-.114.025-.064.038-.1.03-.075.046-.112l.041-.094c.016-.037.033-.073.05-.11l.044-.093.054-.108L4,12.634l.058-.106.05-.089.062-.1.053-.087.066-.1.056-.084.069-.1.059-.082.073-.1.062-.08.077-.1.064-.077.081-.093.066-.074.085-.091.069-.072.089-.088.071-.069.094-.086.072-.065.1-.084.073-.061.1-.082.073-.057.112-.082.071-.052c.041-.029.084-.057.126-.085l.062-.042c.055-.036.111-.07.167-.1l.026-.016q.1-.059.2-.114l.07-.037c.044-.024.089-.048.134-.07l.088-.042.111-.053a3.762,3.762,0,0,0,5.213,0,6.3,6.3,0,0,1,3.1,3.152.387.387,0,1,0,.708-.312A6.973,6.973,0,0,0,12.622,9.3,3.774,3.774,0,0,0,9.5,3.4a.387.387,0,0,0,0,.774,3,3,0,0,1,2.229,5.014h0a2.992,2.992,0,0,1-4.458,0h0a3,3,0,0,1,.116-4.145.387.387,0,0,0-.544-.55A3.771,3.771,0,0,0,6.377,9.3l-.011.006-.09.046-.137.072-.095.054-.126.072-.1.059L5.7,9.683l-.1.063-.114.077L5.4,9.891l-.109.08-.092.071-.105.083L5,10.2l-.1.087-.087.077-.1.09-.084.079-.1.094-.08.081-.093.1-.077.083c-.031.034-.06.069-.09.1l-.072.084c-.03.036-.06.073-.089.11l-.066.082c-.031.04-.061.081-.091.121l-.057.076c-.038.053-.075.107-.112.16l-.029.042q-.068.1-.133.207l-.043.073c-.028.046-.056.093-.083.14-.017.029-.033.059-.049.089s-.047.085-.07.128-.033.064-.049.1-.042.083-.062.125-.031.067-.047.1-.038.083-.057.125-.03.069-.044.1-.035.083-.051.125-.027.071-.041.106-.032.084-.047.127-.025.072-.037.109-.028.085-.042.128-.023.073-.034.11-.025.087-.037.131-.02.074-.03.111-.022.089-.033.133-.018.074-.026.111-.019.09-.028.136-.015.074-.022.112-.016.093-.024.139-.012.073-.018.11-.013.1-.019.145-.009.072-.013.108-.01.1-.014.153c0,.034-.007.068-.009.1,0,.057-.007.114-.01.171,0,.028,0,.057,0,.085q0,.129,0,.259c0,.093,0,.182.007.279a.4.4,0,0,0,.009.066v.005a.382.382,0,0,0,.02.061l0,.006a.385.385,0,0,0,.029.055l0,.007a.394.394,0,0,0,.038.048l0,0,.051.054c.039.041.077.082.117.123a9.51,9.51,0,0,0,13.437,0c.04-.04.079-.081.117-.123l.051-.054a9.505,9.505,0,0,0-.168-13.264Z" transform="translate(0.257 0.196)"/></svg>