<svg xmlns="http://www.w3.org/2000/svg" width="19.18" height="19" viewBox="0 0 19.18 19"><defs><style>.a{fill:rgba(0,0,0,0.75);}</style></defs><g transform="translate(0.001 -1.916)"><g transform="translate(-0.001 1.916)"><path class="a" d="M117.174,12.055c2.392,0,4.331-2.27,4.331-5.07,0-3.883-1.939-5.07-4.331-5.07s-4.331,1.187-4.331,5.07C112.843,9.785,114.782,12.055,117.174,12.055Z" transform="translate(-107.584 -1.916)"/><path class="a" d="M19.085,228.641l-2.17-4.923a1.094,1.094,0,0,0-.491-.526l-3.367-1.765a.216.216,0,0,0-.231.02,5.282,5.282,0,0,1-6.476,0,.216.216,0,0,0-.231-.02l-3.367,1.765a1.093,1.093,0,0,0-.491.526l-2.17,4.923a1.1,1.1,0,0,0,.082,1.039,1.079,1.079,0,0,0,.909.5H18.094a1.079,1.079,0,0,0,.909-.5A1.1,1.1,0,0,0,19.085,228.641Z" transform="translate(0.001 -211.177)"/></g></g></svg>