<svg xmlns="http://www.w3.org/2000/svg" width="35.523" height="25" viewBox="0 0 35.523 25"><defs><style>.a{fill:rgba(0,0,0,0.75);}</style></defs><g transform="translate(0 -45.917)"><path class="a" d="M34.139,48.063c-1.282-1.524-3.65-2.146-8.171-2.146H9.555c-4.625,0-7.032.662-8.31,2.285C0,49.784,0,52.115,0,55.342v6.15c0,6.251,1.478,9.425,9.555,9.425H25.968c3.921,0,6.094-.549,7.5-1.894,1.441-1.379,2.056-3.632,2.056-7.531v-6.15C35.523,51.939,35.427,49.594,34.139,48.063Zm-11.333,11.2-7.453,3.9a1.146,1.146,0,0,1-1.677-1.016V54.38a1.146,1.146,0,0,1,1.674-1.017l7.453,3.87a1.146,1.146,0,0,1,0,2.033Z"/></g></svg>